<svg width="24" height="25" viewBox="0 0 24 25" fill="none" xmlns="http://www.w3.org/2000/svg">
<path d="M12 2.5C12.5523 2.5 13 2.94772 13 3.5V14.0858L16.2929 10.7929C16.6834 10.4024 17.3166 10.4024 17.7071 10.7929C18.0976 11.1834 18.0976 11.8166 17.7071 12.2071L12.7078 17.2064L12.7005 17.2136C12.5208 17.3901 12.2746 17.4992 12.003 17.5L12 17.5L11.997 17.5C11.8625 17.4996 11.7343 17.4727 11.6172 17.4241C11.502 17.3764 11.3938 17.3063 11.2995 17.2136L11.2922 17.2064L6.29289 12.2071C5.90237 11.8166 5.90237 11.1834 6.29289 10.7929C6.68342 10.4024 7.31658 10.4024 7.70711 10.7929L11 14.0858V3.5C11 2.94772 11.4477 2.5 12 2.5Z" fill="white"/>
<path d="M3 20.5C2.44772 20.5 2 20.9477 2 21.5C2 22.0523 2.44772 22.5 3 22.5H21C21.5523 22.5 22 22.0523 22 21.5C22 20.9477 21.5523 20.5 21 20.5H3Z" fill="white"/>
</svg>
