<svg width="526" height="307" viewBox="0 0 526 307" fill="none" xmlns="http://www.w3.org/2000/svg">
<g clip-path="url(#clip0_26304_40248)">
<path d="M482.827 2.43945H43.1738C39.1838 2.43945 35.9492 5.67583 35.9492 9.66811V282.615C35.9492 286.607 39.1838 289.844 43.1738 289.844H482.827C486.817 289.844 490.052 286.607 490.052 282.615V9.66811C490.052 5.67583 486.817 2.43945 482.827 2.43945Z" fill="#11111A"/>
<path d="M482.827 2.43894C484.751 2.46186 486.589 3.24273 487.941 4.61222C489.294 5.98171 490.052 7.82942 490.052 9.75468V282.615C490.052 284.532 489.291 286.37 487.936 287.726C486.581 289.082 484.743 289.843 482.827 289.843H43.1737C41.2577 289.843 39.4201 289.082 38.0652 287.726C36.7103 286.37 35.9492 284.532 35.9492 282.615V9.75468C35.949 7.82942 36.7074 5.98171 38.0598 4.61222C39.4123 3.24273 41.2497 2.46186 43.1737 2.43894H482.827ZM482.827 -0.173828H43.1737C40.5571 -0.150862 38.0555 0.905305 36.2134 2.76478C34.3713 4.62425 33.3378 7.1365 33.3379 9.75468V282.615C33.3379 285.225 34.3742 287.728 36.2187 289.573C38.0633 291.419 40.5651 292.456 43.1737 292.456H482.827C485.436 292.456 487.938 291.419 489.782 289.573C491.627 287.728 492.663 285.225 492.663 282.615V9.75468C492.663 7.1365 491.63 4.62425 489.788 2.76478C487.945 0.905305 485.444 -0.150862 482.827 -0.173828Z" fill="#4B4C52"/>
<g clip-path="url(#clip1_26304_40248)">
<path d="M483 9.00098H43V279.001H483V9.00098Z" fill="#292841"/>
<path d="M81.5003 32.1263C81.5003 31.7351 81.1832 31.418 80.792 31.418H80.7494C80.5509 31.418 80.3614 31.5013 80.2273 31.6477L77.1913 34.9596H75.1253C74.7341 34.9596 74.417 35.2768 74.417 35.668V41.3346C74.417 41.7258 74.7341 42.043 75.1253 42.043H77.1913L80.2273 45.3549C80.3614 45.5013 80.5509 45.5846 80.7494 45.5846H80.792C81.1832 45.5846 81.5003 45.2675 81.5003 44.8763V32.1263Z" fill="#B5BAC1"/>
<path d="M83.696 44.7019C83.2856 44.8 82.917 44.4685 82.917 44.0464V44.0237C82.917 43.6712 83.1782 43.3777 83.5182 43.2849C85.6212 42.7105 87.167 40.7864 87.167 38.5013C87.167 36.2162 85.6212 34.2921 83.5182 33.7177C83.1782 33.6249 82.917 33.3314 82.917 32.979V32.9562C82.917 32.5341 83.2856 32.2026 83.696 32.3007C86.4994 32.9707 88.5837 35.4926 88.5837 38.5013C88.5837 41.51 86.4994 44.0319 83.696 44.7019Z" fill="#B5BAC1"/>
<path d="M83.7366 41.6973C83.3328 41.8908 82.917 41.5534 82.917 41.1056V41.0063C82.917 40.7061 83.1135 40.4479 83.3652 40.2843C83.9482 39.9054 84.3337 39.2484 84.3337 38.5013C84.3337 37.7542 83.9482 37.0972 83.3652 36.7183C83.1135 36.5547 82.917 36.2965 82.917 35.9963V35.897C82.917 35.4492 83.3328 35.1119 83.7366 35.3053C84.9277 35.8758 85.7503 37.0925 85.7503 38.5013C85.7503 39.9101 84.9277 41.1268 83.7366 41.6973Z" fill="#B5BAC1"/>
<path d="M97.3915 33.6995C97.3915 33.1224 96.9413 32.7141 96.3927 32.7141C95.83 32.7141 95.3798 33.1224 95.3798 33.6995C95.3798 34.2625 95.83 34.6567 96.3927 34.6567C96.9413 34.6567 97.3915 34.2625 97.3915 33.6995ZM97.2227 43.1165V35.7968H95.5345V42.9757C95.5345 43.5669 95.2532 43.7781 94.7889 43.7781C94.5919 43.7781 94.395 43.764 94.2402 43.7218L94.4653 45.1013C94.5779 45.1435 94.8733 45.1576 95.1265 45.1576C96.3786 45.1576 97.2227 44.5804 97.2227 43.1165Z" fill="white"/>
<path d="M98.9943 35.7968V40.6813C98.9943 41.9622 99.6555 42.7364 100.936 42.7364C101.836 42.7364 102.568 42.2438 103.201 41.6385L103.355 42.5957H104.79V35.7968H103.102V40.3857C102.61 40.8924 102.075 41.2303 101.555 41.2303C100.936 41.2303 100.683 40.8361 100.683 40.2449V35.7968H98.9943Z" fill="white"/>
<path d="M111.546 40.5968C111.546 39.3159 110.857 38.8373 109.099 38.3869C108.086 38.1194 107.832 37.9083 107.832 37.5423C107.832 37.1763 108.142 36.9229 108.775 36.9229C109.45 36.9229 110.252 37.1622 110.927 37.5423L111.153 36.1347C110.477 35.8391 109.661 35.6561 108.775 35.6561C107.199 35.6561 106.271 36.4866 106.271 37.669C106.271 38.9077 106.96 39.3863 108.606 39.8086C109.689 40.076 109.985 40.2731 109.985 40.7517C109.985 41.2021 109.591 41.4696 108.859 41.4696C108.015 41.4696 107.115 41.1458 106.383 40.6672L106.158 42.0749C106.805 42.4268 107.818 42.7364 108.803 42.7364C110.59 42.7364 111.546 41.9341 111.546 40.5968Z" fill="white"/>
<path d="M116.515 42.5957L116.304 41.174C116.149 41.2162 115.966 41.2303 115.769 41.2303C115.122 41.2303 114.883 40.9347 114.883 40.3857V37.1763H116.473L116.262 35.7968H114.883V33.3898L113.209 33.6432V35.7968H112.252V37.1763H113.209V40.6672C113.209 42.2156 114.109 42.7083 115.446 42.7083C115.938 42.7083 116.248 42.652 116.515 42.5957Z" fill="white"/>
<path d="M121.058 39.3581V37.7253H117.4V39.3581H121.058Z" fill="white"/>
<path d="M127.691 42.0749L127.466 40.625C126.847 41.1036 126.27 41.2725 125.679 41.2725C124.695 41.2725 123.921 40.5968 123.921 39.1892C123.921 37.8379 124.624 37.12 125.623 37.12C126.298 37.12 126.833 37.3452 127.382 37.7534L127.621 36.2332C127.128 35.9235 126.425 35.6561 125.539 35.6561C123.696 35.6561 122.219 36.8666 122.219 39.2315C122.219 41.4555 123.555 42.7224 125.44 42.7224C126.341 42.7224 127.044 42.5112 127.691 42.0749Z" fill="white"/>
<path d="M134.837 42.5957V37.6971C134.837 36.4303 134.162 35.6561 132.896 35.6561C131.996 35.6561 131.292 36.1347 130.729 36.6555V32.4326L129.041 32.7001V42.5957H130.729V38.0068C131.222 37.486 131.756 37.1482 132.277 37.1482C132.896 37.1482 133.149 37.5564 133.149 38.1476V42.5957H134.837Z" fill="white"/>
<path d="M138.456 33.6995C138.456 33.1224 138.006 32.7141 137.457 32.7141C136.895 32.7141 136.444 33.1224 136.444 33.6995C136.444 34.2625 136.895 34.6567 137.457 34.6567C138.006 34.6567 138.456 34.2625 138.456 33.6995ZM138.287 42.5957V35.7968H136.599V42.5957H138.287Z" fill="white"/>
<path d="M141.832 42.5957V32.4326L140.144 32.7001V42.5957H141.832Z" fill="white"/>
<path d="M145.376 42.5957V32.4326L143.688 32.7001V42.5957H145.376Z" fill="white"/>
<path d="M149.09 33.6995C149.09 33.1224 148.64 32.7141 148.091 32.7141C147.528 32.7141 147.078 33.1224 147.078 33.6995C147.078 34.2625 147.528 34.6567 148.091 34.6567C148.64 34.6567 149.09 34.2625 149.09 33.6995ZM148.921 42.5957V35.7968H147.233V42.5957H148.921Z" fill="white"/>
<path d="M156.503 42.5957V37.6971C156.503 36.4303 155.828 35.6561 154.562 35.6561C153.647 35.6561 152.93 36.1488 152.297 36.754L152.142 35.7968H150.707V42.5957H152.395V38.0068C152.888 37.486 153.422 37.1482 153.943 37.1482C154.562 37.1482 154.815 37.5564 154.815 38.1476V42.5957H156.503Z" fill="white"/>
<mask id="mask0_26304_40248" style="mask-type:alpha" maskUnits="userSpaceOnUse" x="348" y="143" width="102" height="60">
<rect x="348.488" y="143.428" width="100.951" height="59.4898" rx="6.33937" fill="#C4C4C4"/>
</mask>
<g mask="url(#mask0_26304_40248)">
<path d="M449.416 143.428H348.523V202.882H449.416V143.428Z" fill="#F7E5BC"/>
<path d="M449.416 197.941V176.648C444.911 174.981 434.282 177.798 429.378 184.583C423.606 178.714 412.484 178.338 402.254 184.583C399.509 177.704 389.232 172.704 375.811 177.563C374.802 169.44 359.927 162.35 348.523 171.858V202.895H444.465C445.776 202.888 447.032 202.365 447.959 201.437C448.886 200.509 449.41 199.253 449.416 197.941Z" fill="#6ADBC6"/>
<path d="M410.49 183.057C421.611 183.127 431.114 188.433 435.689 202.918H402.254L410.49 183.057Z" fill="#44C9C5"/>
<path d="M421.965 202.894H449.417V190.123C442.753 190.804 430.67 193.363 421.965 202.894Z" fill="#44C9C5"/>
<path d="M428.861 196.861H368.936C365.158 200.453 364.971 202.895 364.971 202.895H433.343C433.343 202.895 431.489 198.904 428.861 196.861Z" fill="#FAFAFA"/>
<path d="M430.27 199.49C430.468 199.325 430.6 199.095 430.643 198.841C430.686 198.587 430.637 198.326 430.505 198.105C429.637 196.673 429.355 195.546 427.384 194.513C425.413 193.48 424.123 192.236 418.116 191.461C416.896 188.315 417.154 187.353 408.074 186.648H382.968C378.839 187.306 378.557 187.306 377.83 189.747C377.102 192.189 377.126 191.884 374.967 192.752C372.808 193.621 369.453 193.785 368.163 196.649C367.74 197.589 367.576 198.269 370.04 202.894H425.366C427.099 201.907 428.74 200.768 430.27 199.49Z" fill="#CC4F79"/>
<path d="M410.491 187.658C414.832 188.409 414.667 188.409 411.734 191.861C408.801 195.312 405.071 198.504 400.871 200.218C394.301 202.895 388.67 200.383 385.244 196.392C380.27 190.593 378.135 187.658 382.335 187.658H410.491Z" fill="#590942"/>
<path d="M423.465 155.001L421.518 154.133C421.505 154.133 421.493 154.128 421.484 154.119C421.476 154.11 421.471 154.098 421.471 154.086C421.471 154.073 421.476 154.062 421.484 154.053C421.493 154.044 421.505 154.039 421.518 154.039L423.465 153.17C423.471 153.17 423.477 153.168 423.482 153.163C423.486 153.159 423.489 153.153 423.489 153.147L424.357 151.198C424.357 151.175 424.404 151.175 424.427 151.198L425.295 153.147C425.295 153.17 425.295 153.17 425.319 153.17L427.266 154.039C427.278 154.052 427.284 154.069 427.284 154.086C427.284 154.103 427.278 154.12 427.266 154.133L425.319 155.001H425.295L424.427 156.95C424.404 156.997 424.357 156.997 424.357 156.95L423.489 155.001H423.465Z" fill="#FAFAFA"/>
<path d="M368.796 157.748L367.529 157.185C367.506 157.185 367.506 157.138 367.529 157.138L368.796 156.574C368.796 156.568 368.799 156.562 368.803 156.558C368.808 156.553 368.814 156.551 368.82 156.551L369.383 155.283C369.383 155.26 369.43 155.26 369.43 155.283L369.993 156.551H370.016L371.283 157.138C371.307 157.138 371.307 157.185 371.283 157.185L370.016 157.748C370.016 157.754 370.014 157.76 370.01 157.765C370.005 157.769 369.999 157.772 369.993 157.772L369.43 159.039H369.383L368.82 157.772C368.796 157.772 368.796 157.772 368.796 157.748Z" fill="#F7D78D"/>
<path d="M385.807 168.595C384.118 163.9 381.162 160.472 379.754 159.838C378.346 159.204 378.698 160.002 380.012 163.97C381.326 167.938 381.349 174.441 383.79 174.488C386.23 174.535 385.807 168.595 385.807 168.595Z" fill="#2E64E8"/>
<path d="M382.709 169.839C381.701 167.82 381.63 166.834 381.231 165.308C381.02 164.486 380.715 163.336 380.457 162.42C381.677 164.603 383.812 169.463 384.258 171.012C384.704 172.562 383.718 171.834 382.709 169.839Z" fill="#1C4BBA"/>
<path d="M408.074 168.9C410.467 163.9 414.292 160.355 416.051 159.768C417.811 159.181 417.342 160.003 415.465 164.229C413.588 168.454 413.119 175.568 410.139 175.45C407.159 175.333 408.074 168.9 408.074 168.9Z" fill="#2E64E8"/>
<path d="M399.158 155.495C401.892 155.495 404.109 153.277 404.109 150.541C404.109 147.806 401.892 145.588 399.158 145.588C396.424 145.588 394.207 147.806 394.207 150.541C394.207 153.277 396.424 155.495 399.158 155.495Z" fill="#201E2F"/>
<path d="M403.876 151.836C404.043 150.564 401.982 149.243 399.271 148.886C396.56 148.529 394.227 149.271 394.059 150.543C393.892 151.816 395.953 153.137 398.664 153.494C401.375 153.851 403.708 153.109 403.876 151.836Z" fill="#41314A"/>
<path d="M407.44 154.508C402.325 149.719 393.925 149.109 388.153 153.264C382.381 157.42 383.578 163.899 384.516 171.012L408.941 171.717C409.95 167.843 412.531 159.321 407.44 154.508Z" fill="#4D7AE8"/>
<path d="M409.506 169.605L384.822 168.877C380.294 178.831 375.789 197.354 396.132 197.941C415.536 198.504 414.034 180.827 409.506 169.605Z" fill="#4D7AE8"/>
<path d="M409.506 169.604C410.561 165.261 411.735 158.57 407.441 154.508L406.972 154.109H405.681C405.681 154.109 406.221 162.491 405.775 165.824C405.329 169.158 405.493 169.51 406.502 169.956C407.511 170.402 408.45 170.942 408.262 175.215C408.074 179.488 407.816 180.051 408.755 185.122C409.693 190.193 408.426 193.433 405.775 196.109C414.761 191.343 413.072 178.478 409.506 169.604Z" fill="#2E64E8"/>
<path d="M390.43 188.785C393.104 192.377 400.331 193.293 403.264 188.926C404.742 186.743 400.847 186.625 396.906 186.649C392.964 186.672 388.998 186.837 390.43 188.785Z" fill="#3366E0"/>
<path d="M400.628 170.147C400.691 168.034 399.114 166.273 397.106 166.214C395.099 166.154 393.42 167.818 393.358 169.931C393.295 172.043 394.872 173.804 396.879 173.864C398.887 173.923 400.565 172.259 400.628 170.147Z" fill="#DBE7FF"/>
<path d="M398.333 170.626C398.372 169.81 397.773 169.119 396.997 169.082C396.22 169.046 395.559 169.677 395.521 170.493C395.482 171.309 396.081 172 396.857 172.037C397.634 172.074 398.295 171.442 398.333 170.626Z" fill="#201E2F"/>
<path d="M393.033 163.383C394.558 160.19 400.19 160.519 401.48 163.641L393.033 163.383Z" fill="#201E2F"/>
<path d="M391.626 176.741L392.307 176.976L392.987 177.14L393.668 177.305L394.348 177.398C396.197 177.62 398.072 177.395 399.815 176.741L400.472 176.483L401.106 176.178L401.739 175.849L402.373 175.473H402.443C402.644 175.362 402.866 175.292 403.095 175.268C403.323 175.243 403.555 175.264 403.775 175.33C403.996 175.395 404.201 175.504 404.379 175.65C404.557 175.795 404.705 175.975 404.813 176.178C404.956 176.447 405.027 176.748 405.019 177.053C405.01 177.357 404.923 177.654 404.766 177.915C404.013 179.135 402.964 180.144 401.716 180.85C400.469 181.565 399.09 182.021 397.663 182.19C396.236 182.36 394.789 182.239 393.41 181.836C392.037 181.42 390.793 180.66 389.796 179.629C389.473 179.292 389.296 178.841 389.305 178.375C389.314 177.908 389.507 177.464 389.843 177.14C390.068 176.935 390.34 176.791 390.636 176.721C390.932 176.651 391.24 176.658 391.533 176.741H391.626Z" fill="#400015"/>
<path d="M390.875 180.545C391.649 181.097 392.504 181.524 393.409 181.813C394.789 182.216 396.235 182.337 397.663 182.167C399.09 181.998 400.468 181.542 401.715 180.827C402.603 180.316 403.396 179.657 404.061 178.878C403.034 177.867 401.834 177.048 400.518 176.46H400.472L399.815 176.718C398.071 177.372 396.196 177.597 394.348 177.376L393.667 177.282H393.597C392.443 178.137 391.51 179.256 390.875 180.545Z" fill="#590942"/>
<path d="M403.545 177.657L403.616 175.285C403.218 175.188 402.798 175.246 402.443 175.45H402.372L401.739 175.825L401.105 176.154L400.472 176.459L399.815 176.718C398.071 177.371 396.196 177.597 394.348 177.375L393.667 177.281L392.987 177.117L392.306 176.952L391.626 176.718H391.532C391.303 176.655 391.064 176.639 390.828 176.671L390.781 177.891C395.45 180.169 400.73 178.877 403.545 177.657Z" fill="#DBE7FF"/>
<path d="M392.518 177.023L392.306 176.976L391.626 176.741H391.532C391.303 176.679 391.064 176.663 390.828 176.694L390.781 177.915C391.261 178.141 391.755 178.337 392.259 178.502L392.518 177.023Z" fill="#B5CDFF"/>
<path d="M400.941 178.549C401.834 178.327 402.705 178.028 403.546 177.657L403.616 175.285C403.219 175.188 402.799 175.246 402.443 175.45H402.373L401.739 175.825L401.106 176.154L400.871 176.272L400.941 178.549Z" fill="#B5CDFF"/>
<path d="M402.748 173.337L406.361 175.145C406.408 172.961 404.602 172.703 402.748 173.337Z" fill="#3366E0"/>
<path d="M386.98 178.15L390.312 174.863C387.778 174.793 386.769 176.483 386.98 178.15Z" fill="#3366E0"/>
<path d="M388.975 181.507C390.101 183.103 391.251 184.582 391.251 184.582C388.951 184.394 388.975 181.507 388.975 181.507Z" fill="#3366E0"/>
<path d="M407.44 154.508C402.325 149.719 393.925 149.109 388.153 153.264C385.502 155.166 384.352 157.701 383.977 160.612C387.144 163.054 387.496 158.805 388.833 154.391C393.573 158.241 400.753 158.288 405.352 154.861L405.539 158.593C405.751 162.209 408.191 162.631 410.373 160.706C410.091 158.429 409.27 156.222 407.44 154.508Z" fill="#201E2F"/>
<path d="M391.559 160.274C392.159 159.663 392.39 158.918 392.076 158.609C391.762 158.3 391.021 158.544 390.421 159.155C389.822 159.765 389.591 160.51 389.905 160.819C390.219 161.128 390.96 160.884 391.559 160.274Z" fill="#618AED"/>
<path d="M414.596 162.162C413.323 163.994 412.186 165.916 411.194 167.914C410.607 169.135 411.218 169.299 411.405 170.778C411.593 172.257 412.062 171.553 412.672 169.041C413.282 166.529 413.611 165.637 414.221 164.275C414.831 162.914 415.863 160.331 414.596 162.162Z" fill="#1C4BBA"/>
<path d="M417.694 192.634C416.544 195.71 413.494 202.894 413.494 202.894H404.555C409.294 199.583 412.884 195.851 414.503 192.986C416.122 190.122 416.451 188.408 417.671 191.601C417.807 191.931 417.815 192.299 417.694 192.634Z" fill="#BA3B66"/>
<path d="M416.027 202.894C420.321 197.8 421.729 196.063 422.879 195.405C424.028 194.748 425.952 193.738 423.888 196.884C421.823 200.03 418.35 202.894 418.35 202.894H416.027Z" fill="#BA3B66"/>
<path d="M386.394 202.894C383.062 198.856 380.763 194.912 379.895 192.728C379.027 190.545 378.769 190.005 378.558 191.226C378.346 192.447 377.877 193.01 378.299 194.7C378.722 196.391 380.106 200.969 380.974 202.894H386.394Z" fill="#BA3B66"/>
<path d="M372.668 202.894H371.354C369.853 199.091 369.243 197.377 369.172 196.109C369.102 194.842 370.627 199.044 372.668 202.894Z" fill="#BA3B66"/>
<path d="M378.133 202.918H375.365C374.637 197.401 374.637 196.321 374.802 194.771C374.966 193.222 375.74 194.56 376.303 197.33C376.729 199.248 377.342 201.119 378.133 202.918Z" fill="#BA3B66"/>
<path d="M367.013 192.118C369.477 188.127 372.128 186.178 375.343 184.418C378.557 182.657 378.98 181.647 376.61 180.849C374.24 180.051 372.199 180.356 369.36 181.53C366.521 182.704 364.503 183.385 363.635 186.718C362.766 190.052 363.987 192.071 367.013 192.118Z" fill="#542113"/>
<path d="M367.834 187.939C369.359 181.53 370.392 176.671 371.377 172.304C372.363 167.937 373.465 165.402 371.776 164.627C370.087 163.852 369.172 164.134 366.943 169.111C364.713 174.088 363.728 177.68 363.001 180.262C362.273 182.845 359.833 189.864 367.834 187.939Z" fill="#542113"/>
<path d="M364.642 177.891L363.164 177.68C363.962 169.182 364.384 165.566 364.572 163.125C364.76 160.683 363.751 160.636 362.202 160.566C360.654 160.495 360.091 161.129 359.41 164.322C358.73 167.515 357.908 173.055 357.603 175.239C357.298 177.422 356.782 182.446 356.829 184.042C356.876 185.639 364.642 186.366 364.642 177.891Z" fill="#542113"/>
<path d="M357.462 180.028C357.697 176.718 357.204 167.89 357.157 166.247C357.11 164.604 356.524 164.791 355.116 164.745C353.708 164.698 353.122 165.331 352.934 169.205C352.746 173.079 352.441 177.281 352.488 179.23C351.475 181.973 351.09 184.91 351.362 187.822C351.643 190.897 352.042 191.719 352.605 192.682C353.169 193.644 356.524 194.724 360.818 195.147C365.111 195.569 365.51 194.959 367.012 192.118C368.514 189.278 365.698 181.624 365.698 181.624L357.462 180.028Z" fill="#542113"/>
<path d="M351.644 190.029C351.011 191.508 349.767 195.006 348.547 198.481C348.685 199.693 349.263 200.812 350.171 201.626C351.08 202.439 352.255 202.891 353.474 202.895H365.511C365.487 202.495 365.159 196.861 366.285 193.433C366.285 193.433 353.075 186.743 351.644 190.029Z" fill="#542113"/>
<path d="M366.285 183.409C363.516 185.17 362.742 186.015 362.062 187.236C361.381 188.456 360.724 188.574 358.214 188.621C355.703 188.668 355.656 188.715 354.952 185.733C354.248 182.752 355.304 181.484 358.026 181.601C361.639 181.742 367.951 182.47 366.285 183.409Z" fill="#4A1A0D"/>
<path d="M353.639 178.267H362.93C360.044 176.953 356.008 177.117 353.639 178.267Z" fill="#4A1A0D"/>
<path d="M364.596 178.69C365.98 179.183 368.678 180.333 368.678 180.333C366.707 177.422 364.596 178.69 364.596 178.69Z" fill="#4A1A0D"/>
<path d="M366.098 172.445C367.529 172.727 370.391 173.431 370.391 173.431C367.975 170.872 366.098 172.445 366.098 172.445Z" fill="#4A1A0D"/>
<path d="M359.105 170.426C360.443 170.544 363.141 170.872 363.141 170.872C360.537 168.665 359.105 170.426 359.105 170.426Z" fill="#4A1A0D"/>
<path d="M353.428 172.492C354.531 172.327 356.806 172.139 356.806 172.139C354.272 170.754 353.428 172.492 353.428 172.492Z" fill="#4A1A0D"/>
<path d="M377.877 181.507C375.718 183.15 372.504 183.479 369.43 185.052C366.357 186.625 365.817 188.292 364.972 190.592C364.436 192.114 363.989 193.666 363.635 195.241C365.418 195.053 365.934 194.161 367.013 192.118C369.477 188.127 372.128 186.179 375.343 184.418C377.76 183.127 378.604 182.235 377.877 181.507Z" fill="#732D1A"/>
<path d="M366.285 193.433L367.013 192.119C367.153 191.86 367.318 191.649 367.458 191.414C365.933 193.457 361.944 193.879 358.519 194.114C355.093 194.349 352.278 193.246 351.644 190.029C351.245 190.968 349.814 194.607 348.523 197.988V202.894H365.511C365.487 202.495 365.159 196.861 366.285 193.433Z" fill="#4A1A0D"/>
<path d="M371.799 164.627C372.022 165.448 372.038 166.311 371.846 167.139C371.4 169.275 370.391 173.431 368.256 181.976L369.312 181.577C370.109 178.103 370.766 175.098 371.377 172.304C372.362 167.984 373.465 165.425 371.799 164.627Z" fill="#732D1A"/>
<path d="M364.573 163.125C364.385 165.543 363.939 169.299 363.165 177.681L362.531 177.54L363.564 160.73C364.291 160.942 364.69 161.505 364.573 163.125Z" fill="#732D1A"/>
<path d="M435.994 187.658L443.432 182.258C441.086 182 436.463 182.258 435.994 187.658Z" fill="#44C9C5"/>
</g>
<mask id="mask1_26304_40248" style="mask-type:alpha" maskUnits="userSpaceOnUse" x="348" y="75" width="102" height="60">
<rect x="348.488" y="75.2627" width="100.951" height="59.4898" rx="6.33937" fill="#C4C4C4"/>
</mask>
<g mask="url(#mask1_26304_40248)">
<path d="M449.435 75.2627H348.488V134.741H449.435V75.2627Z" fill="#5E87F9"/>
<path d="M348.488 104.995C357.855 102.435 368.936 105.817 372.293 113.38C382.364 110.162 394.008 116.127 399.502 123.15H348.488V104.995Z" fill="#6E94FF"/>
<path d="M449.436 94.1455C443.308 93.1121 436.078 94.4743 433.871 97.5274C427.298 96.2357 419.691 98.6548 416.1 101.473H449.436V94.1455Z" fill="#7A9DFF"/>
<path d="M425.419 126.556C423.541 122.54 423.587 122.376 420.254 121.178L424.691 127.542L425.419 126.556Z" fill="#FF707E"/>
<path d="M373.913 91.1383L374.125 91.3262L374.571 91.7489L374.735 91.8899L375.087 92.1952C382.928 98.9356 392.976 101.777 399.784 103.821C408.564 106.451 415.865 107.226 421.335 107.25C428.448 107.179 429.88 103.468 426.875 99.0531L425.185 96.9628L416.499 86.3942L416.076 85.8775C410.348 79.09 405.207 76.0369 394.385 78.3855L377.928 81.9553H377.881C372.129 83.2236 369.43 86.723 373.913 91.1383Z" fill="url(#paint0_linear_26304_40248)"/>
<path d="M392.858 79.701C386.285 81.3215 375.016 84.6095 375.016 84.6095L372.293 84.9853C373.255 83.5996 375.251 82.5428 377.88 81.9556H377.927L394.384 78.3858C399.502 77.2819 403.328 77.3994 406.568 78.5032C401.568 77.3054 398.657 78.2683 392.858 79.701Z" fill="#FFFDC4"/>
<path d="M399.29 104.69C393.514 102.952 381.166 98.0434 376.377 93.2523C377.504 94.3796 376.4 92.3598 378.56 93.4167C389.923 98.9594 415.723 106.451 421.334 107.25C415.84 107.579 405.182 106.451 399.29 104.69Z" fill="#FFFDC4"/>
<path d="M372.598 84.6101C377.669 83.0835 389.102 84.4692 401.779 88.4383C414.996 92.5718 425.49 98.2789 428.307 102.483C428.636 105.231 426.476 107.204 421.335 107.251C416.193 107.298 408.564 106.452 399.784 103.822C392.976 101.778 382.928 98.9365 375.087 92.1961L374.735 91.8908L374.57 91.7498L374.124 91.3271L373.913 91.1392C371.307 88.5558 371.143 86.3011 372.598 84.6101Z" fill="url(#paint1_linear_26304_40248)"/>
<path d="M421.448 103.817C422.188 101.453 412.809 96.4076 400.499 92.5481C388.189 88.6887 377.609 87.4765 376.868 89.8406C376.128 92.2046 385.507 97.2498 397.817 101.109C410.127 104.969 420.707 106.181 421.448 103.817Z" fill="#6B3143"/>
<path d="M376.965 90.6927C376.825 90.4256 376.784 90.1183 376.847 89.8238C376.9 89.6914 376.98 89.5714 377.082 89.4715L389.783 94.9202L380.251 88.6495C380.666 88.626 381.081 88.626 381.496 88.6495L390.323 94.5444C390.844 94.4721 391.374 94.4721 391.895 94.5444L387.059 89.2366L388.89 89.5654L392.6 94.6384C393.351 94.7323 394.22 94.8967 395.182 95.1081L392.412 90.317L394.055 90.7162L395.886 95.2725L397.624 95.7422L396.356 91.3269C397.013 91.4834 397.671 91.6713 398.328 91.8905L398.938 96.071H398.797L399.267 96.2354L400.605 92.5716L402.084 93.0648L399.76 96.3763L400.934 96.7756L404.267 93.7929L406.028 94.427L401.92 97.1279L403.14 97.5976L408.235 95.2725L410.395 96.1415L404.079 97.9734L405.558 98.6545L414.503 98.0438C415.254 98.4196 415.982 98.7954 416.639 99.1712H406.544L407.249 99.6174L419.527 101.05C420.055 101.429 420.536 101.871 420.959 102.365L407.836 100.158C407.876 100.201 407.906 100.253 407.922 100.311C407.938 100.368 407.941 100.428 407.93 100.486C407.91 100.537 407.878 100.583 407.837 100.62C407.796 100.657 407.748 100.683 407.695 100.698L421.287 104.08C421.076 104.362 420.654 104.596 420.043 104.761L406.404 100.815C405.67 100.775 404.94 100.681 404.22 100.533L415.066 104.878C414.55 104.855 413.986 104.784 413.399 104.714L402.812 100.252L402.436 100.181L409.244 104.033C408.211 103.821 407.131 103.61 406.004 103.328L401.098 99.8522L398.445 99.0772C397.318 98.7249 396.262 98.3491 395.299 97.9969L391.121 98.7719C389.712 98.2552 388.397 97.715 387.177 97.1748L393.562 97.2923H393.539L383.749 95.6013C382.646 95.0376 381.636 94.4975 380.768 93.9808L391.59 96.3763L390.886 95.9771L376.965 90.6927Z" fill="#7A384C"/>
<path d="M433.707 134.752H376.801C377.81 133.718 379.031 133.084 380.98 132.192L385.37 131.581L386.989 131.37L390.511 130.877L393.187 130.524L394.783 130.313L395.464 130.219L402.061 129.327L403.587 129.115L406.075 128.786L407.061 128.645L408.986 128.387L409.456 128.317L413.729 127.73L423.87 126.367L424.387 126.297C424.691 126.273 424.998 126.273 425.302 126.297C430.115 126.414 431.782 128.552 433.707 134.752Z" fill="#2347A1"/>
<path d="M425.161 132.498L423.376 134.752H412.977L418.752 128.928L421.287 130.337L425.161 132.498Z" fill="#2A52C2"/>
<path d="M424.386 126.298L424.104 126.697C424.01 126.791 423.94 126.932 423.822 127.073L423.517 127.472C422.977 128.177 422.226 129.163 421.287 130.337L419.08 133.015L418.353 133.86C418.094 134.142 417.86 134.447 417.601 134.753H381.378C381.096 133.179 380.979 132.193 380.979 132.193C380.975 131.948 381.039 131.706 381.163 131.495C381.287 131.284 381.467 131.111 381.683 130.995L384.97 129.093H384.993V128.858C384.993 128.764 384.97 128.693 384.97 128.623C384.97 128.552 384.923 127.871 384.923 127.589V127.284C384.905 127.144 384.898 127.003 384.899 126.861C384.887 126.831 384.879 126.8 384.876 126.767L384.758 124.795C384.736 124.403 384.81 124.012 384.973 123.656C385.137 123.3 385.386 122.989 385.697 122.751L390.04 119.322L390.416 119.017L391.637 118.078L394.665 115.706L396.379 115.471H396.402L398.68 115.118H398.703L401.802 114.672L402.694 114.531L404.995 114.179L406.098 114.015H406.286L406.896 114.109L407.694 114.226L409.314 114.484C410.021 114.597 410.697 114.858 411.295 115.251C411.894 115.644 412.403 116.159 412.789 116.762L414.573 119.51L414.714 119.557L415.817 119.886L419.503 120.99L420.254 121.201L420.747 121.389H420.794C421.781 121.825 422.581 122.6 423.048 123.573L424.386 126.298Z" fill="#EF6270"/>
<path d="M415.817 119.863C414.948 117.679 414.479 115.095 408.985 113.991L404.924 113.381L405.252 116.692L412.929 121.765L415.817 119.863Z" fill="#FF707E"/>
<path d="M424.387 126.297L424.105 126.696C424.012 126.79 423.941 126.931 423.824 127.072L423.519 127.471C422.979 128.176 422.227 129.162 421.288 130.336L419.082 133.014L418.354 133.859L417.579 134.752H400.606C401.005 133.343 401.592 131.229 401.874 130.031C401.919 129.792 401.982 129.557 402.061 129.326C402.461 127.847 402.789 126.931 400.324 126.555L400.582 125.263L401.709 119.556L401.991 118.03L402.226 116.926L402.601 115.047L402.695 114.554L404.996 114.202L406.099 114.037H406.287L406.898 114.131L407.696 114.248L409.316 114.507C410.023 114.62 410.698 114.881 411.297 115.274C411.896 115.666 412.404 116.181 412.79 116.785L414.574 119.533L414.715 119.58L415.818 119.909L419.504 121.012L420.255 121.224L420.748 121.412H420.795C421.783 121.848 422.582 122.623 423.049 123.596L424.387 126.297Z" fill="#E05164"/>
<path d="M408.752 120.192C411.522 118.101 411.334 118.266 409.784 117.256C408.852 116.647 407.774 116.298 406.662 116.246L408.752 120.192Z" fill="#BD3C53"/>
<path d="M409.456 128.317L404.926 134.753H401.521C403.376 132.733 405.325 130.596 407.062 128.646C409.527 125.828 411.569 123.362 412.344 122.164L412.109 123.691L411.945 124.771L409.456 128.317Z" fill="#E05164"/>
<path d="M415.277 132.286C414.34 133.164 413.352 133.988 412.319 134.752H408.07C410.066 133.907 412.695 132.685 414.409 131.605C416.991 129.984 416.663 130.994 415.277 132.286Z" fill="#E05164"/>
<path d="M389.219 120.848C386.144 123.525 384.618 122.797 391.872 132.755L393.609 131.605L398.68 125.921L392.247 117.818L389.219 120.848Z" fill="#C74153"/>
<path d="M390.159 94.1457C390.347 93.5351 394.502 94.2396 399.479 95.7193C404.456 97.1989 408.306 98.8899 408.142 99.5005C407.109 107.768 407.273 115.095 408.752 120.192L393.61 131.606C387.271 116.34 389.196 102.812 390.159 94.1457Z" fill="#FFB685"/>
<path d="M396.826 115.142L402.695 115.048L403.329 118.477C401.029 120.778 397.672 119.862 395.958 118.336C393.704 120.309 391.497 120.285 389.948 118.547L389.901 118.5C389.76 117.561 389.619 116.621 389.525 115.682C391.92 114.977 396.826 115.142 396.826 115.142Z" fill="#FE9B77"/>
<path d="M402.695 124.349C401.239 114.414 401.568 102.46 401.756 96.4473C405.559 97.7155 408.282 98.9837 408.141 99.5004C407.108 107.767 407.273 115.095 408.752 120.192L402.695 124.349Z" fill="#FE9B77"/>
<g style="mix-blend-mode:multiply" opacity="0.4">
<path d="M390.158 94.1457C390.346 93.5351 394.501 94.2396 399.478 95.7193C404.455 97.1989 408.305 98.8899 408.14 99.5005C408 100.557 407.882 101.591 407.788 102.624C402.389 101.967 394.9 102.812 389.219 104.55C389.407 100.604 389.829 97.0814 390.158 94.1457Z" fill="#A8387E"/>
</g>
<path d="M395.698 81.6035L392.881 82.1437L393.703 83.4589L395.698 81.6035Z" fill="#FFCD8F"/>
<path d="M400.52 110.63C400.855 110.03 400.778 109.348 400.348 109.108C399.918 108.867 399.298 109.159 398.962 109.759C398.627 110.359 398.704 111.041 399.134 111.281C399.564 111.522 400.185 111.23 400.52 110.63Z" fill="#543247"/>
<path d="M403.328 78.8325C403.328 78.8325 401.872 78.7151 401.238 79.2083C401.966 80.0538 403.328 78.8325 403.328 78.8325Z" fill="#FFD08F"/>
<path d="M398.679 78.8092C395.581 78.0811 395.322 79.7016 395.322 79.7016L398.679 78.8092Z" fill="#FFFDC4"/>
<path d="M421.475 97.9736C421.311 99.101 418.799 99.829 418.799 99.829L419.832 100.628C422.438 100.557 423.118 99.2419 423.118 99.2419C422.638 98.7384 422.084 98.3108 421.475 97.9736Z" fill="#D4655B"/>
<path d="M428.143 102.858C427.72 104.103 422.344 103.352 422.344 103.352L422.18 103.986C426.147 104.69 427.861 104.338 427.861 104.338C427.861 104.338 428.096 103.962 428.143 102.858Z" fill="#D4655B"/>
<path d="M408.352 91.3268C408.047 92.7829 406.263 93.7693 406.263 93.7693L403.352 92.8768C404.173 91.7026 404.525 90.082 404.525 90.082C404.525 90.082 406.521 90.6222 408.352 91.3268Z" fill="#DC7363"/>
<path d="M389.126 134.706L389.056 134.753H386.098C385.863 133.837 385.605 132.686 385.37 131.582C385.135 130.478 385.018 129.68 384.971 129.069V128.834C384.971 128.74 384.947 128.67 384.947 128.6C384.947 128.529 384.9 127.848 384.9 127.566V127.261C384.883 127.121 384.875 126.979 384.877 126.838C384.865 126.808 384.857 126.776 384.854 126.744C385.429 128.35 386.152 129.899 387.013 131.371C387.788 132.71 388.563 133.884 389.126 134.706Z" fill="#D14658"/>
<path d="M419.504 120.966C417.709 123.329 415.781 125.587 413.728 127.73C411.287 130.337 408.705 132.873 406.662 134.752H404.268C405.559 133.085 407.249 130.83 408.986 128.387C410.043 126.861 411.123 125.264 412.109 123.69C412.602 122.915 413.071 122.14 413.517 121.389C413.893 120.754 414.245 120.144 414.574 119.533H414.714L415.818 119.862L419.504 120.966Z" fill="#CC4355"/>
<path d="M411.64 119.51L404.151 126.743L402.695 133.061L410.912 122.657L411.64 119.51Z" fill="#E65568"/>
<path d="M393.164 130.454L408.588 119.651L408.87 119.439C409.316 119.04 409.668 119.04 408.752 120.191L393.61 131.605L393.164 130.454Z" fill="#BD3C53"/>
<path d="M431.031 86.7236L429.082 85.8546C429.059 85.8546 429.059 85.7842 429.082 85.7842L431.031 84.9152H431.054L431.923 82.9659C431.923 82.9424 431.993 82.9424 431.993 82.9659L432.862 84.9152H432.885L434.834 85.7842C434.857 85.7842 434.857 85.8546 434.834 85.8546L432.885 86.7236H432.862L431.993 88.6729H431.923L431.054 86.7236H431.031Z" fill="#FF99B9"/>
<path d="M364.148 117.161L362.199 116.292C362.187 116.292 362.175 116.287 362.166 116.278C362.157 116.27 362.152 116.258 362.152 116.245C362.152 116.233 362.157 116.221 362.166 116.212C362.175 116.203 362.187 116.198 362.199 116.198L364.148 115.329H364.171L365.04 113.403C365.04 113.356 365.087 113.356 365.11 113.403L365.979 115.329H366.002L367.951 116.198C367.962 116.211 367.969 116.228 367.969 116.245C367.969 116.263 367.962 116.279 367.951 116.292L366.002 117.161H365.979L365.11 119.087C365.087 119.134 365.04 119.134 365.04 119.087L364.171 117.161H364.148Z" fill="#5580F9"/>
<path d="M421.287 92.2427C418.164 89.4009 415.559 88.2266 415.559 88.2266C418.47 88.8137 420.559 89.7766 421.287 92.2427Z" fill="#EB9363"/>
<path d="M389.594 79.7013L384.641 80.7816C385.228 79.6543 385.885 79.4429 389.594 79.7013Z" fill="#FFFDC4"/>
<path d="M398.563 117.89C396.52 117.89 394.572 117.843 393.961 118.36C393.351 118.876 394.314 120.074 395.816 121.201C396.473 121.695 396.779 121.741 398.351 120.356C399.502 119.369 400.136 117.866 398.563 117.89Z" fill="#C74153"/>
<path d="M397.717 117.983L399.431 118.265C399.666 118.758 399.149 119.674 398.351 120.355C396.778 121.741 396.473 121.694 395.816 121.201L395.135 120.637C395.393 120.027 396.215 118.477 397.717 117.983Z" fill="#A82C3C"/>
<path d="M394.667 118.077C395.559 117.866 397.038 117.89 398.564 117.89C399.432 117.866 399.62 118.336 399.432 118.899L394.784 118.993C394.526 118.993 394.573 118.477 394.667 118.077Z" fill="white"/>
<path d="M387.881 115.189C387.411 114.367 387.669 113.051 388.679 112.37C388.621 112.524 388.598 112.689 388.611 112.853C388.623 113.016 388.671 113.175 388.752 113.319C388.832 113.462 388.943 113.586 389.077 113.681C389.21 113.777 389.363 113.843 389.524 113.873C390.087 113.967 391.12 113.756 391.566 113.592C392.811 113.122 394.219 113.098 395.91 113.967C398.21 112.723 399.76 113.803 401.849 113.803C402.421 113.809 402.991 113.73 403.539 113.568C405.3 113.051 405.276 112.206 404.877 111.313C407.389 111.901 407.272 114.578 406.169 115.752C405.511 116.574 404.29 116.95 402.671 116.551C400.135 118.712 398.891 118.852 395.91 116.95C393.491 118.97 391.167 118.758 389.782 116.222C389.782 116.222 388.374 116.105 387.881 115.189Z" fill="#6B3143"/>
<path d="M395.911 116.95C393.493 118.97 391.169 118.758 389.784 116.222C389.784 116.222 387.6 116.034 387.647 114.366C387.929 115.024 389.079 115.658 390.159 115.423C391.896 116.832 393.751 116.41 395.488 115.071C395.488 115.071 399.174 117.044 401.78 114.883C404.761 115.611 406.874 114.249 406.522 112.37C407.226 113.427 406.921 114.954 406.17 115.752C405.513 116.574 404.292 116.95 402.672 116.551C400.136 118.711 398.892 118.852 395.911 116.95Z" fill="#5E2737"/>
<path d="M393.556 111.274C393.985 111.091 394.127 110.459 393.873 109.862C393.618 109.265 393.064 108.93 392.635 109.114C392.205 109.297 392.064 109.929 392.318 110.525C392.572 111.122 393.127 111.457 393.556 111.274Z" fill="#543247"/>
</g>
<mask id="mask2_26304_40248" style="mask-type:alpha" maskUnits="userSpaceOnUse" x="73" y="56" width="267" height="166">
<path d="M339.818 63.0112C339.818 59.5101 336.979 56.6719 333.478 56.6719H79.8433C76.3422 56.6719 73.5039 59.5101 73.5039 63.0112V215.169C73.5039 218.67 76.3421 221.508 79.8433 221.508H333.478C336.979 221.508 339.818 218.67 339.818 215.169V63.0112Z" fill="#A8BFFF"/>
</mask>
<g mask="url(#mask2_26304_40248)">
<path d="M339.818 63.0112C339.818 59.5101 336.979 56.6719 333.478 56.6719H79.8433C76.3422 56.6719 73.5039 59.5101 73.5039 63.0112V215.169C73.5039 218.67 76.3421 221.508 79.8433 221.508H333.478C336.979 221.508 339.818 218.67 339.818 215.169V63.0112Z" fill="#A8BFFF"/>
<path d="M227.719 172.119C236.885 145.162 262.711 140.887 276.089 147.641C274.231 133.202 292.935 103.272 328.299 121.552H339.818V216.55H228.957L227.719 172.119Z" fill="#C2D2FF"/>
<path d="M111.159 174.102C108.682 167.038 97.5341 149.439 73.5039 152.413V204.219H165.97C165.723 178.068 136.614 163.878 111.159 174.102Z" fill="#C2D2FF"/>
<path d="M73.5039 221.508H339.818V161.089H293.987V208.99H277.265V193.932H238.99L169.81 161.832H139.277V151.174H124.165V189.161L116.424 186.682L105.895 197.96H73.5039V221.508Z" fill="#648AE8"/>
<path d="M105.895 205.582H73.5039V208.984H105.895V205.582Z" fill="#7B6EB3"/>
<path d="M117.848 221.571L129.863 209.549H155.937V221.509L117.848 221.571Z" fill="#6273E3"/>
<path d="M328.299 216.551H259.986V221.545H328.299V216.551Z" fill="#6273E3"/>
<path d="M225.799 94.287C227.783 94.287 229.391 92.6778 229.391 90.6928C229.391 88.7078 227.783 87.0986 225.799 87.0986C223.815 87.0986 222.207 88.7078 222.207 90.6928C222.207 92.6778 223.815 94.287 225.799 94.287Z" fill="#7D2952"/>
<path d="M201.272 102.591C203.256 102.591 204.864 100.982 204.864 98.9965C204.864 97.0115 203.256 95.4023 201.272 95.4023C199.288 95.4023 197.68 97.0115 197.68 98.9965C197.68 100.982 199.288 102.591 201.272 102.591Z" fill="#7D2952"/>
<path d="M169.748 111.018C171.732 111.018 173.341 109.409 173.341 107.424C173.341 105.439 171.732 103.83 169.748 103.83C167.764 103.83 166.156 105.439 166.156 107.424C166.156 109.409 167.764 111.018 169.748 111.018Z" fill="#7D2952"/>
<path d="M147.143 115.232C149.127 115.232 150.735 113.623 150.735 111.638C150.735 109.653 149.127 108.044 147.143 108.044C145.159 108.044 143.551 109.653 143.551 111.638C143.551 113.623 145.159 115.232 147.143 115.232Z" fill="#7D2952"/>
<path d="M122.555 117.896C124.539 117.896 126.147 116.287 126.147 114.302C126.147 112.317 124.539 110.708 122.555 110.708C120.571 110.708 118.963 112.317 118.963 114.302C118.963 116.287 120.571 117.896 122.555 117.896Z" fill="#7D2952"/>
<path d="M99.2054 117.277C101.189 117.277 102.798 115.668 102.798 113.683C102.798 111.698 101.189 110.089 99.2054 110.089C97.2215 110.089 95.6133 111.698 95.6133 113.683C95.6133 115.668 97.2215 117.277 99.2054 117.277Z" fill="#7D2952"/>
<path d="M321.176 171.933C323.16 171.933 324.768 170.324 324.768 168.339C324.768 166.354 323.16 164.745 321.176 164.745C319.192 164.745 317.584 166.354 317.584 168.339C317.584 170.324 319.192 171.933 321.176 171.933Z" fill="#7D2952"/>
<path d="M334.863 56.6719H73.5039V104.574C126.085 118.578 213.288 97.3232 261.472 67.1446C277.822 147.146 339.818 171.995 339.818 171.995V61.6294C339.818 60.3146 339.296 59.0536 338.366 58.1239C337.437 57.1942 336.177 56.6719 334.863 56.6719V56.6719Z" fill="#7D2952"/>
<path d="M73.5039 56.6719V66.4009C135.19 100.917 216.384 82.3888 250.448 56.6719H73.5039Z" fill="#70254A"/>
<path d="M339.817 56.6719H286.926C288.97 104.512 310.956 141.879 339.817 161.089V56.6719Z" fill="#70254A"/>
<path d="M254.04 159.54C250.943 166.852 245.369 180.857 245.369 180.857L259.552 189.657C265.25 176.333 267.17 169.269 268.099 165.551C269.028 161.833 269.647 158.239 264.816 155.326C259.985 152.414 257.322 151.856 254.04 159.54Z" fill="#F073AB"/>
<path d="M266.488 181.91L258.003 201.492C257.339 203.038 256.372 204.435 255.159 205.601C253.946 206.766 252.512 207.676 250.941 208.277C249.371 208.878 247.695 209.157 246.015 209.099C244.334 209.041 242.682 208.645 241.157 207.937L209.447 193.498L225.24 168.587L244.564 179.369L247.412 170.942C257.384 174.908 262.71 178.378 266.488 181.91Z" fill="#F7E5BC"/>
<path d="M229.639 172.43C242.397 174.537 243.574 177.201 246.98 183.894L233.293 182.345L229.639 172.43Z" fill="#F7E5BC"/>
<path d="M169.564 66.277C167.026 67.0682 164.885 68.7956 163.573 71.1088C162.262 73.4219 161.88 76.1476 162.503 78.7326L175.2 130.6L197.929 125.891L182.632 73.3414C182.249 72.0117 181.605 70.7718 180.737 69.6941C179.87 68.6164 178.796 67.7226 177.579 67.0648C176.363 66.4071 175.027 65.9986 173.651 65.8633C172.274 65.7281 170.885 65.8687 169.564 66.277Z" fill="#D6569B"/>
<path d="M182.197 118.454L191.177 118.083L181.639 86.8504C181.507 86.4015 181.284 85.9845 180.984 85.6256C180.684 85.2667 180.313 84.9734 179.895 84.7641C179.477 84.5548 179.02 84.434 178.553 84.4091C178.086 84.3842 177.618 84.4559 177.18 84.6196C176.412 84.9133 175.778 85.4803 175.401 86.212C175.024 86.9436 174.93 87.7887 175.136 88.5856L182.197 118.454Z" fill="#E374B0"/>
<path d="M177.366 118.082C172.039 97.7564 166.837 78.4842 164.484 69.8086C163.48 71.0378 162.777 72.4852 162.433 74.0348C162.089 75.5844 162.113 77.1931 162.502 78.7321L172.163 118.268L177.366 118.082Z" fill="#F06EA8"/>
<path d="M222.145 66.0291C224.692 66.795 226.852 68.5024 228.186 70.8044C229.521 73.1064 229.929 75.8303 229.329 78.4228L217.19 130.352L194.398 125.953L209.139 73.2175C209.509 71.8836 210.141 70.637 210.999 69.5507C211.856 68.4643 212.922 67.56 214.133 66.8906C215.344 66.2213 216.676 65.8003 218.052 65.6524C219.428 65.5045 220.819 65.6325 222.145 66.0291Z" fill="#D6569B"/>
<path d="M197.434 115.232L199.539 119.383C199.539 119.383 207.591 83.6896 211.369 69.127C210.341 70.3148 209.581 71.7095 209.139 73.2169L197.434 115.232Z" fill="#F06EA8"/>
<path d="M213.536 118.331L204.617 118.021L213.783 86.6646C213.914 86.2159 214.137 85.7995 214.438 85.4423C214.739 85.0851 215.112 84.795 215.532 84.5907C215.952 84.3863 216.411 84.2723 216.877 84.256C217.344 84.2396 217.809 84.3213 218.243 84.4957C219.009 84.7769 219.647 85.3292 220.035 86.0484C220.423 86.7676 220.534 87.6039 220.348 88.3997L213.536 118.331Z" fill="#E374B0"/>
<path d="M225.768 114.157L160.114 116.91C150.716 117.305 143.417 125.247 143.811 134.65L143.834 135.214C144.228 144.617 152.166 151.921 161.564 151.527L227.218 148.773C236.616 148.379 243.916 140.437 243.522 131.033L243.498 130.47C243.104 121.066 235.166 113.763 225.768 114.157Z" fill="#F06EA8"/>
<path d="M169.501 211.159C165.661 207.565 161.883 204.219 161.078 202.917C160.273 201.616 161.635 201.182 163.555 200.501C165.475 199.819 167.209 202.174 169.191 206.202C171.173 210.23 173.031 214.381 169.501 211.159Z" fill="#F2C591"/>
<path d="M238.99 193.932L235.274 205.706L234.779 207.193L230.196 221.57H144.975C144.17 218.409 145.161 217.79 147.329 214.257C149.497 210.725 148.382 211.655 148.691 203.103C148.939 197.092 151.107 191.515 158.848 184.575C161.202 182.53 161.759 181.724 164.175 179.493L164.918 178.811L165.29 178.44L165.785 178.068L224.002 168.896L235.708 188.417L238.99 193.932Z" fill="#F7E5BC"/>
<path d="M233.293 193.994C236.885 184.388 237.009 183.583 238.248 186.371C239.486 189.16 240.229 188.974 234.284 196.782C228.338 204.59 231.745 198.145 233.293 193.994Z" fill="#E8C282"/>
<path d="M235.274 205.706C234.902 211.345 234.406 216.674 233.787 221.57H171.172C171.234 219.029 171.296 215.869 171.42 212.027C171.41 211.612 171.431 211.198 171.482 210.787V206.016C171.049 194.675 167.828 186.929 158.848 184.575C160.52 182.901 162.254 181.228 164.174 179.493L164.917 178.811L165.784 178.068L224.002 168.896C228.585 170.57 231.619 171.747 235.088 175.279C235.459 179.741 235.645 184.141 235.707 188.417C235.769 194.428 235.583 200.191 235.274 205.706Z" fill="#1F3A70"/>
<path d="M224.002 168.896L223.197 169.02L222.392 169.826C219.419 182.282 213.164 195.295 213.164 195.295C213.164 195.295 213.474 198.455 217.809 192.321C222.144 186.186 225.86 178.935 227.718 172.119L224.002 168.896Z" fill="#172E5C"/>
<path d="M172.287 178.13C183.559 191.701 187.399 194.737 191.548 197.526C195.698 200.315 192.23 196.163 187.894 189.718C183.559 183.273 178.48 175.279 178.48 175.279L172.287 178.13Z" fill="#172E5C"/>
<path d="M235.027 207.069C234.718 212.151 234.284 216.984 233.789 221.57H171.174C171.236 219.029 171.298 215.869 171.422 212.027C171.411 211.612 171.432 211.198 171.483 210.787V206.016C184.985 209.3 202.822 215.187 206.847 216.612L234.779 207.193L235.027 207.069Z" fill="#172E5C"/>
<path d="M176.747 186.001C176.747 186.001 176.19 187.116 173.774 188.79C171.359 190.463 170.678 191.206 170.43 190.649C169.486 188.692 168.118 186.97 166.425 185.609C164.732 184.248 162.758 183.281 160.645 182.779C162.255 181.168 164.051 179.494 165.971 177.697C174.641 181.415 176.747 186.001 176.747 186.001Z" fill="#244AB0"/>
<path d="M218.861 168.896L207.094 212.956L176.994 170.198L218.861 168.896Z" fill="#D4BF9B"/>
<path d="M213.349 189.532L193.283 184.265C189.691 183.335 191.487 184.574 193.283 186.805C195.079 189.036 205.793 201.244 209.2 205.148L213.349 189.532Z" fill="#CCAC89"/>
<path d="M183.561 177.263L211.059 180.919C214.156 181.29 214.218 177.944 215.828 171.438L186.162 173.606L183.561 177.263Z" fill="#CF518A"/>
<path d="M229.688 144.37L162.118 147.074C153.225 147.43 146.304 154.932 146.66 163.831L146.661 163.855C147.016 172.754 154.514 179.679 163.408 179.323L230.977 176.618C239.87 176.262 246.791 168.76 246.435 159.862L246.434 159.837C246.079 150.939 238.581 144.014 229.688 144.37Z" fill="#F06EA8"/>
<path d="M230.754 176.085C239.424 175.714 246.547 168.711 246.547 160.036C246.575 156.881 245.674 153.788 243.956 151.143C242.238 148.497 239.778 146.418 236.885 145.163C239.063 143.501 240.809 141.337 241.973 138.856C243.138 136.375 243.687 133.649 243.574 130.91V130.353C243.478 128.114 242.943 125.916 241.997 123.885C241.052 121.854 239.715 120.029 238.064 118.516C236.414 117.002 234.48 115.829 232.376 115.063C230.271 114.298 228.036 113.955 225.799 114.055L167.21 116.534C161.946 126.635 162.689 137.479 166.591 145.287C167.16 146.469 167.481 147.755 167.534 149.066C167.587 150.377 167.372 151.685 166.9 152.909C161.264 167.906 168.696 178.75 168.696 178.75L230.754 176.085Z" fill="#E05FA3"/>
<path d="M197.68 221.57H159.529C159.529 220.826 159.529 220.144 159.591 219.463V219.339C159.591 219.153 159.653 218.967 159.653 218.719C159.699 218.36 159.782 218.007 159.901 217.666L160.087 217.046L160.458 216.178L160.954 215.435L161.325 214.939L161.573 214.753C162.573 213.746 163.777 212.964 165.103 212.46C166.852 211.761 168.756 211.547 170.615 211.841L171.421 212.026C178.853 213.204 185.232 214.195 190.682 215.559L191.425 215.868C192.167 216.115 192.859 216.493 193.469 216.984L193.84 217.232L194.212 217.542C194.336 217.666 194.46 217.728 194.522 217.851L194.893 218.223C195.025 218.293 195.133 218.401 195.203 218.533L195.575 218.905L197.185 220.888L197.68 221.57Z" fill="#FF8FB1"/>
<path d="M183.442 145.707C184.931 144.732 185.014 142.224 183.628 140.105C182.242 137.986 179.912 137.058 178.423 138.032C176.935 139.007 176.852 141.515 178.238 143.634C179.624 145.753 181.954 146.681 183.442 145.707Z" fill="#1B1926"/>
<path d="M212.789 141.08C213.433 138.773 212.673 136.544 211.091 136.102C209.51 135.66 207.706 137.173 207.062 139.48C206.418 141.788 207.178 144.016 208.76 144.458C210.341 144.9 212.145 143.387 212.789 141.08Z" fill="#1B1926"/>
<path d="M154.327 147.084C150.673 145.721 149.744 145.287 147.205 144.481C148.847 146.745 151.015 148.574 153.522 149.811L152.779 150.43C154.466 150.601 156.162 150.684 157.858 150.678C161.388 150.554 162.007 150.059 154.327 147.084Z" fill="#E05FA3"/>
<path d="M155.556 127.092C158.288 124.604 159.719 121.726 158.753 120.663C157.786 119.6 154.787 120.754 152.055 123.242C149.322 125.729 147.891 128.608 148.858 129.671C149.825 130.734 152.824 129.58 155.556 127.092Z" fill="#F792C0"/>
<path d="M151.168 212.833C156.37 210.726 158.166 209.859 159.9 209.239C161.634 208.619 160.148 207.937 156.184 206.202C152.22 204.467 151.291 203.848 151.044 207.256C150.796 210.664 149.495 213.515 151.168 212.833Z" fill="#FAD596"/>
<path d="M161.449 211.035C152.531 213.452 152.469 214.691 152.221 216.24C151.974 217.79 152.221 219.153 155.504 216.674C158.245 214.633 161.168 212.849 164.236 211.345C165.971 210.601 165.042 210.044 161.449 211.035Z" fill="#F7D08D"/>
<path d="M172.969 210.973C174.641 202.05 174.455 199.633 175.198 199.447C175.942 199.261 177.366 201.492 178.729 204.281C180.091 207.069 172.969 210.973 172.969 210.973Z" fill="#172E5C"/>
<path d="M170.616 211.841C167.767 212.212 162.317 212.274 161.698 221.57H159.53C159.444 220.257 159.57 218.939 159.902 217.666L160.088 217.046L160.459 216.178L160.955 215.435L161.326 214.939L161.574 214.753C162.574 213.746 163.778 212.964 165.104 212.46C166.852 211.761 168.757 211.547 170.616 211.841Z" fill="#F278B0"/>
<path d="M191.612 221.57C192.85 218.72 193.284 216.861 191.426 215.869C192.597 216.282 193.657 216.961 194.522 217.852L194.894 218.224C195.026 218.294 195.134 218.402 195.204 218.534L195.575 218.906L197.186 220.889L197.681 221.57H191.612Z" fill="#F278B0"/>
<path d="M189.939 153.157C194.026 160.097 200.034 161.709 204.06 152.723C204.107 152.643 204.131 152.551 204.129 152.457C204.126 152.364 204.097 152.273 204.046 152.195C203.994 152.118 203.921 152.056 203.836 152.018C203.751 151.98 203.657 151.966 203.564 151.979L190.372 152.351C190.283 152.362 190.198 152.393 190.123 152.444C190.049 152.494 189.988 152.562 189.946 152.641C189.903 152.72 189.88 152.808 189.879 152.898C189.878 152.988 189.898 153.077 189.939 153.157Z" fill="#751B40"/>
<path d="M177.861 147.146C180.71 141.692 186.222 143.985 186.222 143.985L183.497 150.058L177.861 147.146Z" fill="#E05FA3"/>
<path d="M205.732 142.684C211.43 140.391 214.155 145.721 214.155 145.721L208.148 148.571L205.732 142.684Z" fill="#E05FA3"/>
<path d="M198.176 152.165L190.372 152.351C190.283 152.361 190.198 152.393 190.123 152.443C190.049 152.494 189.988 152.561 189.946 152.641C189.903 152.72 189.88 152.808 189.879 152.898C189.878 152.988 189.898 153.076 189.939 153.157C193.469 159.106 198.362 161.15 202.264 155.945C201.295 154.316 199.875 153.003 198.176 152.165Z" fill="#9C2455"/>
<path d="M244.626 182.654C244.626 182.654 248.652 192.445 250.014 196.349C251.377 200.253 249.457 199.819 247.289 199.51C245.121 199.2 244.936 196.349 244.626 191.206C244.316 186.062 243.387 180.175 244.626 182.654Z" fill="#FAD596"/>
<path d="M248.899 180.051C249.518 184.265 251.686 188.169 252.12 189.222C252.553 190.276 255.774 189.594 258.561 188.912C261.348 188.231 259.614 187.239 256.207 184.389C252.801 181.538 248.342 176.643 248.899 180.051Z" fill="#FAD596"/>
<path d="M123.423 202.918L119.273 201.059C119.211 201.059 119.211 200.935 119.273 200.935L123.423 199.076L125.281 194.924H125.466L127.324 199.076L131.474 200.935C131.536 200.935 131.536 201.059 131.474 201.059L127.324 202.918L125.466 207.07H125.281L123.423 202.918Z" fill="#3366E0"/>
<path d="M256.394 119.198L254.474 118.33C254.412 118.33 254.412 118.269 254.474 118.269L256.394 117.401L257.261 115.418H257.385L258.252 117.401L260.234 118.269L258.252 119.136L257.385 121.057C257.323 121.119 257.323 121.119 257.261 121.057L256.394 119.136V119.198Z" fill="#FAFAFA"/>
<path d="M138.968 95.0306L136.986 94.1631L138.968 93.2955L139.835 91.3125H139.897L140.764 93.2955H140.826L142.746 94.1631C142.808 94.1631 142.808 94.225 142.746 94.225L140.826 95.0926H140.764L139.897 97.0136C139.897 97.0756 139.835 97.0756 139.835 97.0136L138.968 95.0926V95.0306Z" fill="#F7E5BC"/>
<path d="M321.175 56.6719H311.514V221.545H321.175V56.6719Z" fill="#783837"/>
<path d="M98.5249 56.6719H88.8633V221.545H98.5249V56.6719Z" fill="#783837"/>
<path d="M321.175 56.6719H311.514V182.27H321.175V56.6719Z" fill="#571E2F"/>
<path d="M98.5249 56.6719H88.8633V131.623H98.5249V56.6719Z" fill="#571E2F"/>
<path d="M260.729 88.8339C262.713 88.8339 264.321 87.2247 264.321 85.2397C264.321 83.2547 262.713 81.6455 260.729 81.6455C258.745 81.6455 257.137 83.2547 257.137 85.2397C257.137 87.2247 258.745 88.8339 260.729 88.8339Z" fill="#7D2952"/>
<path d="M240.104 88.1512C242.088 88.1512 243.696 86.5421 243.696 84.5571C243.696 82.5721 242.088 80.9629 240.104 80.9629C238.12 80.9629 236.512 82.5721 236.512 84.5571C236.512 86.5421 238.12 88.1512 240.104 88.1512Z" fill="#7D2952"/>
<path d="M73.5039 107.424V114.55C74.446 114.55 75.3504 114.18 76.0223 113.519C76.6942 112.859 77.0798 111.96 77.096 111.018C77.096 110.065 76.7176 109.151 76.0439 108.477C75.3703 107.802 74.4566 107.424 73.5039 107.424V107.424Z" fill="#7D2952"/>
<path d="M265.065 104.14C267.049 104.14 268.657 102.53 268.657 100.545C268.657 98.5603 267.049 96.9512 265.065 96.9512C263.081 96.9512 261.473 98.5603 261.473 100.545C261.473 102.53 263.081 104.14 265.065 104.14Z" fill="#7D2952"/>
<path d="M286.926 140.206C288.91 140.206 290.518 138.597 290.518 136.612C290.518 134.627 288.91 133.018 286.926 133.018C284.942 133.018 283.334 134.627 283.334 136.612C283.334 138.597 284.942 140.206 286.926 140.206Z" fill="#7D2952"/>
<path d="M299.684 154.768C301.668 154.768 303.276 153.159 303.276 151.174C303.276 149.189 301.668 147.58 299.684 147.58C297.7 147.58 296.092 149.189 296.092 151.174C296.092 153.159 297.7 154.768 299.684 154.768Z" fill="#7D2952"/>
<path d="M273.983 120.809C275.967 120.809 277.575 119.2 277.575 117.215C277.575 115.23 275.967 113.621 273.983 113.621C271.999 113.621 270.391 115.23 270.391 117.215C270.391 119.2 271.999 120.809 273.983 120.809Z" fill="#7D2952"/>
<path d="M304.516 172.491H302.039V177.356H304.516V172.491Z" fill="#5177D6"/>
<path d="M330.776 188.479H328.299V193.343H330.776V188.479Z" fill="#5177D6"/>
<path d="M309.47 192.383H306.992V197.247H309.47V192.383Z" fill="#5177D6"/>
<path d="M303.276 205.582H300.799V210.447H303.276V205.582Z" fill="#5177D6"/>
<path d="M267.479 207.999H265.002V212.864H267.479V207.999Z" fill="#5177D6"/>
<path d="M144.85 179.617H142.373V184.482H144.85V179.617Z" fill="#5177D6"/>
<path d="M110.973 207.999H108.496V212.864H110.973V207.999Z" fill="#5177D6"/>
<path d="M140.454 148.943H122.988V151.193H140.454V148.943Z" fill="#8F80CF"/>
<path d="M289.033 205.582H277.266V208.984H289.033V205.582Z" fill="#8F80CF"/>
</g>
</g>
<path d="M526 287.144H0V299.937H526V287.144Z" fill="#414159"/>
<path d="M0 299.946L0.6093 300.991C1.91469 303.097 3.70559 304.859 5.83187 306.13C6.70585 306.717 7.73895 307.021 8.79133 307.001H517.209C518.261 307.021 519.294 306.717 520.168 306.13C522.287 304.879 524.054 303.111 525.304 300.991L526 299.946H0Z" fill="#11111A"/>
<circle cx="198.07" cy="243.669" r="13.6695" fill="#DBE7FF"/>
<g clip-path="url(#clip2_26304_40248)">
<path d="M193.513 239.113C192.57 239.113 191.805 239.878 191.805 240.822V246.518C191.805 247.461 192.57 248.226 193.513 248.226H199.779C200.722 248.226 201.487 247.461 201.487 246.518V245.311C201.487 245.527 201.609 245.724 201.802 245.821L203.511 246.675C203.889 246.864 204.335 246.589 204.335 246.166V241.174C204.335 240.751 203.889 240.475 203.511 240.665L201.802 241.519C201.609 241.615 201.487 241.813 201.487 242.028V240.822C201.487 239.878 200.722 239.113 199.779 239.113H193.513Z" fill="#1C1B29"/>
</g>
<circle cx="230.535" cy="243.669" r="13.6695" fill="#DBE7FF"/>
<path fill-rule="evenodd" clip-rule="evenodd" d="M236.23 239.113V239.975C236.23 240.882 235.87 241.751 235.23 242.392L232.897 244.725C232.843 244.778 232.813 244.851 232.813 244.926V247.057C232.813 247.445 232.681 247.821 232.439 248.124L231.419 249.399C231.281 249.572 231.006 249.528 230.93 249.32L229.87 246.458C229.855 246.42 229.833 246.385 229.804 246.356L227.837 244.388C227.808 244.36 227.775 244.338 227.737 244.324L225 243.271C224.799 243.194 224.753 242.929 224.917 242.789L226.068 241.802C226.378 241.537 226.772 241.391 227.18 241.391H229.278C229.353 241.391 229.426 241.361 229.479 241.308L231.812 238.975C232.453 238.334 233.322 237.974 234.229 237.974H235.091C235.72 237.974 236.23 238.484 236.23 239.113ZM233.383 241.961C234.012 241.961 234.522 241.451 234.522 240.821C234.522 240.192 234.012 239.682 233.383 239.682C232.754 239.682 232.244 240.192 232.244 240.821C232.244 241.451 232.754 241.961 233.383 241.961Z" fill="#23272A"/>
<path d="M228.826 247.656C228.826 247.342 228.571 247.087 228.257 247.087H227.687C227.373 247.087 227.118 246.832 227.118 246.517V245.947C227.118 245.633 226.862 245.378 226.548 245.378C225.604 245.378 224.839 246.143 224.839 247.087V248.795C224.839 249.11 225.094 249.365 225.409 249.365H227.118C228.061 249.365 228.826 248.6 228.826 247.656Z" fill="#23272A"/>
<circle cx="263" cy="243.669" r="13.6695" fill="#DBE7FF"/>
<path fill-rule="evenodd" clip-rule="evenodd" d="M257.304 239.682C257.304 238.739 258.069 237.974 259.012 237.974H266.986C267.93 237.974 268.695 238.739 268.695 239.682V244.239C268.695 245.183 267.93 245.948 266.986 245.948H259.012C258.069 245.948 257.304 245.183 257.304 244.239V239.682ZM266.417 241.391C266.417 241.24 266.357 241.095 266.25 240.988L264.541 239.28C264.319 239.057 263.958 239.057 263.736 239.28C263.513 239.502 263.513 239.863 263.736 240.085L264.472 240.821H263.569C261.682 240.821 260.152 242.351 260.152 244.239C260.152 244.553 260.407 244.808 260.721 244.808C261.036 244.808 261.291 244.553 261.291 244.239C261.291 242.981 262.311 241.961 263.569 241.961H264.472L263.736 242.697C263.513 242.919 263.513 243.28 263.736 243.502C263.958 243.725 264.319 243.725 264.541 243.502L266.25 241.794C266.357 241.687 266.417 241.542 266.417 241.391Z" fill="#1C1B29"/>
<path d="M263.569 247.941C263.569 248.098 263.696 248.226 263.854 248.226H264.708C265.023 248.226 265.278 248.481 265.278 248.795C265.278 249.11 265.023 249.365 264.708 249.365H261.291C260.976 249.365 260.721 249.11 260.721 248.795C260.721 248.481 260.976 248.226 261.291 248.226H262.145C262.302 248.226 262.43 248.098 262.43 247.941V246.802C262.43 246.645 262.557 246.517 262.715 246.517H263.284C263.441 246.517 263.569 246.645 263.569 246.802V247.941Z" fill="#1C1B29"/>
<circle cx="295.465" cy="243.669" r="13.6695" fill="#DBE7FF"/>
<path d="M295.466 237.974C294.207 237.974 293.187 238.994 293.187 240.252V242.53C293.187 243.788 294.207 244.808 295.466 244.808C296.724 244.808 297.744 243.788 297.744 242.53V240.252C297.744 238.994 296.724 237.974 295.466 237.974Z" fill="#23272A"/>
<path d="M292.048 242.53C292.048 242.216 291.793 241.961 291.479 241.961C291.164 241.961 290.909 242.216 290.909 242.53C290.909 244.854 292.648 246.771 294.896 247.051V248.226H293.757C293.442 248.226 293.187 248.481 293.187 248.795C293.187 249.11 293.442 249.365 293.757 249.365H297.174C297.489 249.365 297.744 249.11 297.744 248.795C297.744 248.481 297.489 248.226 297.174 248.226H296.035V247.051C298.283 246.771 300.022 244.854 300.022 242.53C300.022 242.216 299.767 241.961 299.453 241.961C299.138 241.961 298.883 242.216 298.883 242.53C298.883 244.417 297.353 245.948 295.466 245.948C293.578 245.948 292.048 244.417 292.048 242.53Z" fill="#23272A"/>
<circle cx="327.93" cy="243.669" r="13.6695" fill="#E7366B"/>
<g clip-path="url(#clip3_26304_40248)">
<path d="M333.345 246.287L333.265 246.368C333.121 246.514 332.904 246.557 332.716 246.479L330.386 245.511C330.127 245.403 329.988 245.117 330.061 244.845L330.478 243.301C329.199 241.596 326.661 241.596 325.382 243.301L325.779 244.504C325.865 244.764 325.752 245.049 325.512 245.177L323.159 246.434C322.966 246.538 322.728 246.502 322.573 246.345L322.516 246.287C321.457 245.219 321.377 243.514 322.329 242.348C325.233 238.794 330.627 238.794 333.531 242.348C334.484 243.514 334.403 245.219 333.345 246.287Z" fill="#F2F3F5"/>
</g>
</g>
<defs>
<linearGradient id="paint0_linear_26304_40248" x1="394.295" y1="80.1117" x2="404.555" y2="106.533" gradientUnits="userSpaceOnUse">
<stop stop-color="#FFC285"/>
<stop offset="1" stop-color="#DB8D6B"/>
</linearGradient>
<linearGradient id="paint1_linear_26304_40248" x1="428.342" y1="95.6274" x2="371.678" y2="95.6274" gradientUnits="userSpaceOnUse">
<stop stop-color="#D67569"/>
<stop offset="1" stop-color="#E39E7F"/>
</linearGradient>
<clipPath id="clip0_26304_40248">
<rect width="526" height="307" fill="white"/>
</clipPath>
<clipPath id="clip1_26304_40248">
<rect width="668.409" height="459.013" fill="white" transform="translate(42.6504 9.49414)"/>
</clipPath>
<clipPath id="clip2_26304_40248">
<rect width="13.6695" height="13.6695" fill="white" transform="translate(191.235 236.835)"/>
</clipPath>
<clipPath id="clip3_26304_40248">
<rect width="13.6695" height="13.6695" fill="white" transform="translate(321.096 236.835)"/>
</clipPath>
</defs>
</svg>
