<svg width="406" height="331" viewBox="0 0 406 331" fill="none" xmlns="http://www.w3.org/2000/svg">
<g clip-path="url(#clip0_26304_40510)">
<path d="M401.34 0H4.65953C2.08614 0 0 2.09461 0 4.67845V260.706C0 263.29 2.08614 265.385 4.65953 265.385H401.34C403.914 265.385 406 263.29 406 260.706V4.67845C406 2.09461 403.914 0 401.34 0Z" fill="#11111A"/>
<path d="M401.34 0H4.65953C2.08614 0 0 2.09461 0 4.67845V260.706C0 263.29 2.08614 265.385 4.65953 265.385H401.34C403.914 265.385 406 263.29 406 260.706V4.67845C406 2.09461 403.914 0 401.34 0Z" fill="#11111A"/>
<path d="M0 240.315H406V260.745C406 261.985 405.509 263.175 404.635 264.053C403.761 264.93 402.576 265.423 401.34 265.423H4.65953C3.42374 265.423 2.23857 264.93 1.36474 264.053C0.490913 263.175 0 261.985 0 260.745L0 240.315Z" fill="#262636"/>
<mask id="mask0_26304_40510" style="mask-type:alpha" maskUnits="userSpaceOnUse" x="5" y="10" width="396" height="229">
<path d="M400.718 10.917H5.43457V238.968H400.718V10.917Z" fill="#DCDDDE"/>
</mask>
<g mask="url(#mask0_26304_40510)">
<path d="M400.718 10.917H5.43457V238.968H400.718V10.917Z" fill="#FDD171"/>
<rect x="261" y="19.0449" width="301.01" height="211.603" rx="4.25867" fill="#313338"/>
<path d="M278.034 49.9213C278.034 48.7453 278.988 47.792 280.164 47.792H295.069C296.245 47.792 297.198 48.7453 297.198 49.9213V56.3093C297.198 57.4853 296.245 58.4387 295.069 58.4387H280.164C278.988 58.4387 278.034 57.4853 278.034 56.3093V49.9213Z" fill="#DCDDDE"/>
<path d="M301.458 49.9213C301.458 48.7453 302.411 47.792 303.587 47.792H373.855C375.031 47.792 375.985 48.7453 375.985 49.9213V56.3093C375.985 57.4853 375.031 58.4387 373.855 58.4387H303.587C302.411 58.4387 301.458 57.4853 301.458 56.3093V49.9213Z" fill="#6ADBC6"/>
<path d="M280.165 69.0854C280.165 67.9094 281.118 66.9561 282.294 66.9561H380.244C381.42 66.9561 382.373 67.9094 382.373 69.0854V75.4734C382.373 76.6494 381.42 77.6027 380.244 77.6027H282.294C281.118 77.6027 280.165 76.6494 280.165 75.4734V69.0854Z" fill="#DCDDDE"/>
<path d="M386.632 69.0854C386.632 67.9094 387.585 66.9561 388.761 66.9561H486.711C487.887 66.9561 488.84 67.9094 488.84 69.0854V75.4734C488.84 76.6494 487.887 77.6027 486.711 77.6027H388.761C387.585 77.6027 386.632 76.6494 386.632 75.4734V69.0854Z" fill="#DCDDDE"/>
<path d="M278.034 88.2475C278.034 87.0715 278.988 86.1182 280.164 86.1182H350.432C351.608 86.1182 352.561 87.0715 352.561 88.2475V94.6355C352.561 95.8115 351.608 96.7648 350.432 96.7648H280.164C278.988 96.7648 278.034 95.8115 278.034 94.6355V88.2475Z" fill="#DCDDDE"/>
<path d="M356.82 88.2475C356.82 87.0715 357.774 86.1182 358.95 86.1182H373.855C375.031 86.1182 375.984 87.0715 375.984 88.2475V94.6355C375.984 95.8115 375.031 96.7648 373.855 96.7648H358.95C357.774 96.7648 356.82 95.8115 356.82 94.6355V88.2475Z" fill="#648AE8"/>
<path d="M278.034 107.413C278.034 106.237 278.988 105.283 280.164 105.283H337.656C338.832 105.283 339.785 106.237 339.785 107.413V113.801C339.785 114.977 338.832 115.93 337.656 115.93H280.164C278.988 115.93 278.034 114.977 278.034 113.801V107.413Z" fill="#DCDDDE"/>
<path d="M344.044 107.413C344.044 106.237 344.997 105.283 346.173 105.283H399.407C400.583 105.283 401.536 106.237 401.536 107.413V113.801C401.536 114.977 400.583 115.93 399.407 115.93H346.173C344.997 115.93 344.044 114.977 344.044 113.801V107.413Z" fill="#DCDDDE"/>
<path d="M278.034 126.578C278.034 125.402 278.988 124.448 280.164 124.448H361.078C362.254 124.448 363.208 125.402 363.208 126.578V132.966C363.208 134.142 362.254 135.095 361.078 135.095H280.164C278.988 135.095 278.034 134.142 278.034 132.966V126.578Z" fill="#DCDDDE"/>
<path d="M367.467 126.577C367.467 125.401 368.42 124.447 369.596 124.447H450.511C451.687 124.447 452.64 125.401 452.64 126.577V132.965C452.64 134.141 451.687 135.094 450.511 135.094H369.596C368.42 135.094 367.467 134.141 367.467 132.965V126.577Z" fill="#DCDDDE"/>
<path d="M278.034 145.741C278.034 144.565 278.988 143.611 280.164 143.611H350.432C351.608 143.611 352.561 144.565 352.561 145.741V152.129C352.561 153.305 351.608 154.258 350.432 154.258H280.164C278.988 154.258 278.034 153.305 278.034 152.129V145.741Z" fill="#DCDDDE"/>
<path d="M356.82 145.741C356.82 144.565 357.774 143.611 358.95 143.611H373.855C375.031 143.611 375.984 144.565 375.984 145.741V152.129C375.984 153.305 375.031 154.258 373.855 154.258H358.95C357.774 154.258 356.82 153.305 356.82 152.129V145.741Z" fill="#6ADBC6"/>
<path d="M278.034 164.905C278.034 163.729 278.988 162.775 280.164 162.775H373.854C375.03 162.775 375.984 163.729 375.984 164.905V171.293C375.984 172.469 375.03 173.422 373.854 173.422H280.164C278.988 173.422 278.034 172.469 278.034 171.293V164.905Z" fill="#DCDDDE"/>
<path d="M380.243 164.905C380.243 163.729 381.196 162.775 382.372 162.775H446.253C447.429 162.775 448.382 163.729 448.382 164.905V171.293C448.382 172.469 447.429 173.422 446.253 173.422H382.372C381.196 173.422 380.243 172.469 380.243 171.293V164.905Z" fill="#E05FA3"/>
<path d="M278.034 184.07C278.034 182.894 278.988 181.94 280.164 181.94H295.069C296.245 181.94 297.198 182.894 297.198 184.07V190.458C297.198 191.634 296.245 192.587 295.069 192.587H280.164C278.988 192.587 278.034 191.634 278.034 190.458V184.07Z" fill="#648AE8"/>
<path d="M301.458 184.07C301.458 182.894 302.411 181.94 303.587 181.94H403.666C404.842 181.94 405.795 182.894 405.795 184.07V190.458C405.795 191.634 404.842 192.587 403.666 192.587H303.587C302.411 192.587 301.458 191.634 301.458 190.458V184.07Z" fill="#DCDDDE"/>
<path d="M276.572 202.886C276.32 203.138 276.32 203.546 276.572 203.798L281.273 208.499L276.572 213.2C276.32 213.452 276.32 213.86 276.572 214.111C276.823 214.363 277.231 214.363 277.483 214.111L282.64 208.955C282.892 208.703 282.892 208.295 282.64 208.043L277.483 202.886C277.231 202.634 276.823 202.634 276.572 202.886Z" fill="#2DDFB4"/>
</g>
<g clip-path="url(#clip1_26304_40510)">
<rect x="19.7109" y="19.0449" width="234" height="212" rx="4.27234" fill="#292841"/>
<mask id="mask1_26304_40510" style="mask-type:alpha" maskUnits="userSpaceOnUse" x="93" y="55" width="17" height="17">
<ellipse cx="101.154" cy="63.4443" rx="7.94567" ry="8" fill="#C4C4C4"/>
</mask>
<g mask="url(#mask1_26304_40510)">
<ellipse cx="101.154" cy="63.4443" rx="7.94567" ry="8" fill="#F7E5BC"/>
<path d="M110.291 68.4522L109.211 70.9599C109.127 71.1578 109.004 71.3367 108.85 71.486C108.695 71.6352 108.513 71.7518 108.313 71.8287C108.113 71.9057 107.9 71.9415 107.686 71.934C107.472 71.9265 107.262 71.8759 107.068 71.7852L103.032 69.9362L105.042 66.7461L107.501 68.1269L107.864 67.0476C109.133 67.5555 109.81 67.9999 110.291 68.4522Z" fill="#F7E5BC"/>
<path d="M105.602 67.2383C107.225 67.5081 107.375 67.8493 107.808 68.7064L106.067 68.508L105.602 67.2383Z" fill="#F7E5BC"/>
<path d="M97.9562 53.6443C97.6333 53.7456 97.3608 53.9668 97.1939 54.2631C97.027 54.5593 96.9783 54.9083 97.0577 55.2394L98.6734 61.8814L101.566 61.2783L99.6192 54.549C99.5705 54.3787 99.4885 54.2199 99.3781 54.0819C99.2678 53.9439 99.1311 53.8294 98.9763 53.7452C98.8215 53.661 98.6515 53.6087 98.4763 53.5913C98.3012 53.574 98.1244 53.592 97.9562 53.6443V53.6443Z" fill="#D6569B"/>
<path d="M99.5645 60.3262L100.707 60.2786L99.4935 56.2791C99.4767 56.2216 99.4484 56.1682 99.4102 56.1222C99.372 56.0763 99.3248 56.0387 99.2715 56.0119C99.2183 55.9851 99.1602 55.9696 99.1007 55.9664C99.0413 55.9633 98.9818 55.9724 98.9261 55.9934V55.9934C98.8283 56.031 98.7477 56.1036 98.6997 56.1973C98.6517 56.291 98.6397 56.3992 98.666 56.5013L99.5645 60.3262Z" fill="#E374B0"/>
<path d="M104.648 53.6125C104.972 53.7106 105.247 53.9292 105.417 54.224C105.587 54.5188 105.639 54.8676 105.562 55.1996L104.018 61.8496L101.117 61.2862L102.993 54.533C103.04 54.3622 103.121 54.2026 103.23 54.0635C103.339 53.9244 103.474 53.8086 103.629 53.7228C103.783 53.6371 103.952 53.5832 104.127 53.5643C104.302 53.5453 104.479 53.5617 104.648 53.6125V53.6125Z" fill="#D6569B"/>
<path d="M103.553 60.3101L102.418 60.2704L103.584 56.255C103.601 56.1975 103.629 56.1442 103.668 56.0985C103.706 56.0527 103.754 56.0156 103.807 55.9894C103.86 55.9632 103.919 55.9486 103.978 55.9466C104.038 55.9445 104.097 55.9549 104.152 55.9773V55.9773C104.25 56.0133 104.331 56.084 104.38 56.1761C104.429 56.2682 104.444 56.3753 104.42 56.4772L103.553 60.3101Z" fill="#E374B0"/>
<path d="M106.792 69.9921L106.319 71.4998L106.256 71.6903L105.673 73.5313H94.8274C94.7249 73.1266 94.851 73.0473 95.1269 72.595C95.4027 72.1426 95.2609 72.2617 95.3003 71.1666C95.3318 70.3968 95.6077 69.6826 96.5929 68.7938C96.8924 68.532 96.9633 68.4288 97.2707 68.1431L97.3653 68.0558L97.4126 68.0082L97.4756 67.9606L104.884 66.7861L106.374 69.2858L106.792 69.9921Z" fill="#F7E5BC"/>
<path d="M106.319 71.4998C106.271 72.222 106.208 72.9044 106.13 73.5313H98.1612C98.1691 73.206 98.177 72.8013 98.1928 72.3093C98.1914 72.2562 98.1941 72.2032 98.2006 72.1506V71.5395C98.1455 70.0873 97.7356 69.0954 96.5928 68.7938C96.8056 68.5796 97.0263 68.3653 97.2706 68.1431L97.3652 68.0558L97.4755 67.9606L104.884 66.7861C105.468 67.0004 105.854 67.1512 106.295 67.6035C106.342 68.1749 106.366 68.7383 106.374 69.2858C106.382 70.0556 106.358 70.7936 106.319 71.4998Z" fill="#1F3A70"/>
<path d="M105.608 63.6454L97.0092 63.9917C95.8774 64.0373 94.9967 64.998 95.0419 66.1375L95.0421 66.1406C95.0873 67.2801 96.0415 68.1669 97.1733 68.1213L105.772 67.775C106.904 67.7295 107.785 66.7688 107.739 65.6293L107.739 65.6261C107.694 64.4866 106.74 63.5998 105.608 63.6454Z" fill="#F06EA8"/>
<path d="M105.159 59.807L96.8042 60.1596C95.6082 60.2101 94.6793 61.2272 94.7294 62.4313L94.7324 62.5035C94.7826 63.7077 95.7928 64.6429 96.9888 64.5925L105.344 64.2399C106.54 64.1894 107.469 63.1723 107.419 61.9681L107.416 61.896C107.366 60.6918 106.355 59.7565 105.159 59.807Z" fill="#F06EA8"/>
<path d="M105.744 67.7064C106.848 67.6588 107.754 66.7621 107.754 65.6511C107.758 65.2471 107.643 64.851 107.424 64.5123C107.206 64.1735 106.893 63.9072 106.524 63.7466C106.802 63.5337 107.024 63.2566 107.172 62.9389C107.32 62.6211 107.39 62.2721 107.376 61.9214V61.85C107.363 61.5633 107.295 61.2818 107.175 61.0217C107.055 60.7616 106.885 60.528 106.674 60.3341C106.464 60.1403 106.218 59.99 105.951 59.892C105.683 59.794 105.398 59.7501 105.114 59.7629L97.6575 60.0803C96.9876 61.3738 97.0822 62.7625 97.5787 63.7624C97.6511 63.9138 97.692 64.0785 97.6988 64.2464C97.7056 64.4142 97.6781 64.5817 97.6181 64.7385C96.9009 66.6589 97.8467 68.0476 97.8467 68.0476L105.744 67.7064Z" fill="#E05FA3"/>
<path d="M99.7229 63.8154C99.9123 63.6906 99.9228 63.3694 99.7465 63.0981C99.5701 62.8267 99.2736 62.7079 99.0842 62.8326C98.8948 62.9574 98.8842 63.2786 99.0606 63.55C99.237 63.8213 99.5335 63.9402 99.7229 63.8154Z" fill="#1B1926"/>
<path d="M103.457 63.2236C103.539 62.9281 103.442 62.6427 103.241 62.5861C103.04 62.5295 102.81 62.7232 102.728 63.0187C102.647 63.3142 102.743 63.5996 102.944 63.6561C103.146 63.7127 103.375 63.519 103.457 63.2236Z" fill="#1B1926"/>
<path d="M100.55 64.7705C101.07 65.6593 101.834 65.8656 102.347 64.715C102.353 64.7047 102.356 64.6929 102.355 64.6809C102.355 64.669 102.351 64.6574 102.345 64.6474C102.338 64.6375 102.329 64.6296 102.318 64.6247C102.307 64.6198 102.295 64.6181 102.284 64.6198L100.605 64.6674C100.593 64.6687 100.583 64.6728 100.573 64.6792C100.564 64.6857 100.556 64.6943 100.55 64.7045C100.545 64.7146 100.542 64.7259 100.542 64.7374C100.542 64.7489 100.544 64.7603 100.55 64.7705Z" fill="#751B40"/>
<path d="M101.598 64.6426L100.605 64.6664C100.593 64.6677 100.583 64.6718 100.573 64.6782C100.564 64.6847 100.556 64.6933 100.55 64.7035C100.545 64.7136 100.542 64.7249 100.542 64.7364C100.542 64.7479 100.544 64.7593 100.55 64.7695C100.999 65.5314 101.622 65.7932 102.118 65.1266C101.995 64.918 101.814 64.7498 101.598 64.6426V64.6426Z" fill="#9C2455"/>
</g>
<g clip-path="url(#clip2_26304_40510)">
<rect x="115.456" y="55.4443" width="19.0696" height="8" rx="2.13617" fill="#FDD171"/>
<rect x="136.115" y="58.6445" width="19.0696" height="4.8" rx="2.13617" fill="#72767D"/>
</g>
<path d="M115.456 67.1811C115.456 66.0013 116.412 65.0449 117.592 65.0449H189.598C190.778 65.0449 191.734 66.0013 191.734 67.1811V85.3088C191.734 86.4885 190.778 87.4449 189.598 87.4449H117.592C116.412 87.4449 115.456 86.4885 115.456 85.3088V67.1811Z" fill="#1C1B29"/>
<path d="M131.348 73.5815C131.348 72.4017 132.304 71.4453 133.484 71.4453H186.42C187.6 71.4453 188.556 72.4017 188.556 73.5815V78.9091C188.556 80.0889 187.6 81.0453 186.42 81.0453H133.484C132.304 81.0453 131.348 80.0889 131.348 78.9091V73.5815Z" fill="#DCDDDE"/>
<mask id="mask2_26304_40510" style="mask-type:alpha" maskUnits="userSpaceOnUse" x="93" y="93" width="17" height="17">
<ellipse cx="101.154" cy="101.845" rx="7.94567" ry="8" fill="#C4C4C4"/>
</mask>
<g mask="url(#mask2_26304_40510)">
<ellipse cx="101.154" cy="101.845" rx="7.94567" ry="8" fill="#FFB869"/>
<path d="M97.0762 104.458C98.0035 107.704 101.734 109.954 104.727 107.832C107.72 105.71 104.748 101.36 104.748 101.36C104.748 101.36 106.371 97.2428 102.303 96.2666C98.2354 95.2905 97.2237 97.073 97.0762 104.458Z" fill="#4D7AE8"/>
<path d="M103.104 102.081C102.65 102.081 102.282 101.587 102.282 100.977C102.282 100.368 102.65 99.874 103.104 99.874C103.558 99.874 103.926 100.368 103.926 100.977C103.926 101.587 103.558 102.081 103.104 102.081Z" fill="#DBE7FF"/>
<path d="M103.457 101.816C103.341 101.808 103.259 101.621 103.274 101.399C103.289 101.177 103.396 101.003 103.512 101.011C103.628 101.019 103.71 101.206 103.695 101.428C103.68 101.65 103.573 101.823 103.457 101.816Z" fill="#201E2F"/>
<path d="M104.053 98.9185C103.998 98.7537 103.894 98.6104 103.754 98.5088C103.614 98.4072 103.446 98.3525 103.273 98.3525C103.1 98.3525 102.932 98.4072 102.792 98.5088C102.652 98.6104 102.548 98.7537 102.493 98.9185H104.053Z" fill="#201E2F"/>
<path d="M103.969 103.608C103.168 103.82 102.304 103.629 101.587 102.844C101.493 102.737 101.362 102.67 101.22 102.658C101.079 102.646 100.938 102.69 100.828 102.781C100.708 102.863 100.626 102.989 100.598 103.132C100.57 103.275 100.6 103.423 100.681 103.545C101.777 105.348 103.484 105.624 104.538 104.606C104.61 104.54 104.664 104.457 104.693 104.363C104.723 104.27 104.727 104.171 104.706 104.075C104.692 103.994 104.66 103.917 104.615 103.848C104.569 103.78 104.509 103.722 104.44 103.678C104.37 103.634 104.293 103.605 104.211 103.593C104.13 103.581 104.048 103.586 103.969 103.608Z" fill="#590942"/>
<path d="M103.358 103.693C103.564 103.695 103.77 103.666 103.969 103.608H104.159V104.139C104.159 104.139 103.842 104.372 102.662 104.245V103.948L100.597 103.248C100.597 103.16 100.619 103.074 100.659 102.997C100.7 102.919 100.758 102.852 100.829 102.802C100.829 102.796 100.831 102.791 100.835 102.787C100.839 102.783 100.844 102.781 100.85 102.781C100.936 102.721 101.04 102.691 101.145 102.696C101.166 102.675 101.208 102.696 101.229 102.696H101.419C101.44 102.717 101.461 102.717 101.461 102.738C101.461 102.76 101.503 102.738 101.503 102.76L101.587 102.823C101.712 102.967 101.854 103.095 102.009 103.205L102.304 103.396C102.441 103.481 102.59 103.546 102.746 103.587C102.943 103.655 103.15 103.691 103.358 103.693Z" fill="#DBE7FF"/>
<path d="M100.829 102.781C100.829 102.775 100.831 102.77 100.835 102.766C100.839 102.762 100.844 102.759 100.85 102.759C100.936 102.7 101.04 102.67 101.145 102.674C101.166 102.653 101.208 102.674 101.229 102.674H101.419C101.44 102.696 101.461 102.696 101.461 102.717C101.461 102.738 101.503 102.717 101.503 102.738L101.587 102.802C101.654 102.89 101.732 102.968 101.819 103.035L101.229 103.396L100.597 103.184C100.604 103.104 100.628 103.026 100.668 102.956C100.708 102.887 100.763 102.827 100.829 102.781Z" fill="#B5CDFF"/>
<path d="M97.9404 97.7517C98.6992 96.054 100.027 95.7145 102.303 96.2662C102.762 96.3693 103.202 96.541 103.61 96.7755C103.736 97.4546 102.704 97.6668 100.786 97.0514C101.418 98.1973 100.111 100.234 97.9404 97.7517Z" fill="#201E2F"/>
<path d="M100.596 96.2026L100.702 94.8021C100.711 94.6743 100.693 94.5459 100.649 94.4257C100.604 94.3055 100.535 94.1964 100.445 94.1058C100.355 94.0151 100.246 93.9451 100.127 93.9005C100.008 93.8558 99.8801 93.8377 99.7531 93.8472C99.6101 93.8553 99.4711 93.8983 99.3482 93.9725C99.2253 94.0466 99.1222 94.1497 99.0475 94.2728C98.9729 94.3959 98.9291 94.5354 98.9198 94.6794C98.9106 94.8233 98.9361 94.9674 98.9944 95.0992L99.6267 96.5422L100.596 96.2026Z" fill="#201E2F"/>
<path d="M95.1167 103.693L95.749 103.927L97.0768 103.057V104.139L98.1728 105.009C98.403 105.2 98.5926 105.435 98.7303 105.701C98.8679 105.967 98.9507 106.259 98.9737 106.558L99.0159 107.428C100.618 108.765 102.81 109.189 104.728 107.831C105.039 107.621 105.317 107.364 105.55 107.067L106.203 107.301C106.203 107.301 104.875 112.924 102.662 113.943C100.449 114.961 98.9105 113.943 98.9105 113.943C96.5921 106.006 97.2665 104.521 91.5338 106.813L91.2598 105.2L95.1167 103.693Z" fill="#EF6767"/>
<path d="M99.7107 101.168L95.5376 97.2422L95.1582 97.7303L98.3829 103.778L99.7107 101.168Z" fill="#4D7AE8"/>
<path d="M98.1938 100.277L96.5498 99.1104L97.8144 101.402L97.5825 100.511L98.1938 100.277Z" fill="#3366E0"/>
</g>
<g clip-path="url(#clip3_26304_40510)">
<rect x="115.456" y="93.8447" width="25.634" height="10.6808" rx="2.13617" fill="#FDD171"/>
<rect x="143.227" y="98.1172" width="25.634" height="6.4085" rx="2.13617" fill="#72767D"/>
</g>
<path d="M115.456 105.581C115.456 104.402 116.412 103.445 117.592 103.445H189.598C190.778 103.445 191.734 104.402 191.734 105.581V109.309C191.734 110.489 190.778 111.445 189.598 111.445H115.456V105.581Z" fill="#DCDDDE"/>
<path d="M115.456 111.445H153.595V117.309C153.595 118.489 152.639 119.445 151.459 119.445H117.592C116.412 119.445 115.456 118.489 115.456 117.309V111.445Z" fill="#DCDDDE"/>
<mask id="mask3_26304_40510" style="mask-type:alpha" maskUnits="userSpaceOnUse" x="93" y="125" width="17" height="17">
<ellipse cx="101.154" cy="133.845" rx="7.94567" ry="8" fill="#C4C4C4"/>
</mask>
<g mask="url(#mask3_26304_40510)">
<ellipse cx="101.154" cy="133.845" rx="7.94567" ry="8" fill="#FF82A6"/>
<path d="M105.65 127.714L105.627 127.782L105.557 127.949L105.534 128.018L105.48 128.139C104.288 130.921 102.008 132.973 100.498 134.4C98.9336 135.87 97.1737 137.115 95.2692 138.098C93.3934 139.005 92.5472 138.194 92.7587 136.652L92.9477 135.878L93.8776 131.977L93.9172 131.788C94.5467 129.246 95.5133 127.785 98.6503 126.992L103.424 125.807L103.439 125.8C105.106 125.392 106.264 125.955 105.65 127.714Z" fill="url(#paint0_linear_26304_40510)"/>
<path d="M105.162 125.822C103.648 126.078 100.811 127.914 97.9964 130.608C95.1815 133.303 93.0289 136.275 92.8333 137.733C93.0978 138.509 93.9117 138.75 95.2708 138.098C97.1751 137.115 98.9347 135.871 100.499 134.401C102.009 132.975 104.289 130.923 105.48 128.142L105.534 128.02L105.557 127.952L105.627 127.786L105.65 127.717C106.015 126.686 105.772 126.069 105.162 125.822Z" fill="url(#paint1_linear_26304_40510)"/>
<path d="M100.658 133.397C103.388 130.789 105.201 128.25 104.708 127.727C104.215 127.203 101.602 128.893 98.8718 131.502C96.1418 134.11 94.3286 136.649 94.822 137.172C95.3153 137.696 97.9283 136.006 100.658 133.397Z" fill="#6B3143"/>
<path d="M100.094 137.935L99.3709 138.463C99.1963 138.579 99.0497 138.734 98.942 138.915C98.8342 139.096 98.768 139.298 98.7482 139.508L98.6255 140.458L97.3512 141.636C97.0846 141.899 96.927 142.254 96.9105 142.629L96.9169 143.534C96.9169 143.534 103.868 147.253 107.61 146.578C111.352 145.902 109.085 139.454 109.085 139.454C109.052 139.391 109.003 139.338 108.942 139.301C108.881 139.265 108.811 139.246 108.74 139.246L107.629 139.17L107.156 138.004C107.113 137.896 107.043 137.8 106.955 137.725C106.866 137.65 106.76 137.599 106.646 137.575L103.371 136.884L100.094 137.935Z" fill="#EF6270"/>
<path d="M100.246 139.875C99.2501 139.686 99.3179 139.709 99.6022 139.247C99.7649 138.961 100.003 138.726 100.289 138.567L100.246 139.875Z" fill="#BD3C53"/>
<path d="M101.783 130.597C101.663 130.467 100.657 131.191 99.542 132.234C98.427 133.276 97.6232 134.222 97.7431 134.353C99.0777 136.401 99.9668 138.347 100.239 139.878L105.678 140.941C105.392 136.084 103.139 132.767 101.783 130.597Z" fill="#FFB685"/>
<path d="M103.84 134.914C103.795 134.742 103.663 134.628 103.545 134.659C103.428 134.691 103.37 134.856 103.415 135.029C103.46 135.201 103.592 135.315 103.71 135.284C103.827 135.252 103.886 135.087 103.84 134.914Z" fill="#543247"/>
<path d="M102.056 135.933C102.142 135.809 102.08 135.618 101.919 135.506C101.758 135.393 101.559 135.403 101.474 135.527C101.388 135.651 101.45 135.842 101.611 135.954C101.772 136.066 101.971 136.057 102.056 135.933Z" fill="#543247"/>
<path d="M103.175 137.617C103.631 137.392 104.049 137.167 104.245 137.221C104.441 137.276 104.354 137.64 104.139 138.049C103.923 138.458 103.985 138.276 103.488 138.144C102.99 138.011 102.826 137.79 103.175 137.617Z" fill="#C74153"/>
<path d="M103.365 137.543L103.015 137.791C103.029 137.936 103.231 138.082 103.488 138.144C103.744 138.207 104.039 138.231 104.139 138.049L104.231 137.852C104.104 137.745 103.751 137.484 103.365 137.543Z" fill="#A82C3C"/>
<path d="M104.055 137.22C103.751 137.326 103.456 137.458 103.175 137.616C102.977 137.714 102.991 137.82 103.081 137.927L104.128 137.448C104.189 137.418 104.115 137.304 104.055 137.22Z" fill="white"/>
<path d="M105.375 135.791C105.383 135.768 105.368 135.738 105.376 135.715C105.358 135.561 105.293 135.416 105.19 135.301C105.087 135.186 104.951 135.106 104.8 135.073C104.837 135.106 104.865 135.146 104.884 135.192C104.902 135.237 104.91 135.286 104.906 135.336C104.903 135.385 104.888 135.432 104.864 135.475C104.839 135.518 104.806 135.554 104.765 135.582C104.619 135.666 104.455 135.714 104.287 135.723C104.069 135.748 103.858 135.821 103.67 135.936C103.483 136.052 103.322 136.208 103.2 136.392C102.43 136.357 102.161 136.849 101.614 137.119C101.466 137.196 101.308 137.249 101.144 137.275C100.606 137.37 100.518 137.15 100.505 136.853C99.9114 137.336 100.283 138.022 100.742 138.192C101.013 138.323 101.376 138.257 101.757 137.955C102.699 138.19 103.033 138.063 103.578 137.17C104.475 137.388 105.053 137.027 105.099 136.192C105.175 136.153 105.239 136.096 105.288 136.026C105.336 135.956 105.366 135.875 105.375 135.791V135.791Z" fill="#6B3143"/>
<path d="M103.578 137.169C104.475 137.388 105.053 137.027 105.099 136.191C105.175 136.153 105.24 136.096 105.288 136.026C105.336 135.956 105.366 135.875 105.375 135.791V135.791C105.383 135.768 105.368 135.737 105.376 135.715C105.361 135.636 105.336 135.559 105.303 135.486C105.313 135.612 105.276 135.737 105.2 135.838C105.123 135.939 105.013 136.007 104.889 136.03C104.619 136.636 104.074 136.754 103.448 136.629C103.448 136.629 102.743 137.619 101.77 137.4C101.085 137.966 100.352 137.892 100.199 137.344C100.185 137.526 100.23 137.708 100.328 137.861C100.426 138.014 100.572 138.13 100.742 138.191C101.013 138.322 101.376 138.256 101.757 137.955C102.699 138.189 103.033 138.062 103.578 137.169Z" fill="#5E2737"/>
</g>
<g clip-path="url(#clip4_26304_40510)">
<rect x="115.456" y="125.845" width="19.0696" height="8" rx="2.13617" fill="#FFA78B"/>
<rect x="136.115" y="129.045" width="19.0696" height="4.8" rx="2.13617" fill="#72767D"/>
</g>
<path d="M115.456 137.581C115.456 136.402 116.412 135.445 117.592 135.445H189.598C190.778 135.445 191.734 136.402 191.734 137.581V141.309C191.734 142.489 190.778 143.445 189.598 143.445H117.592C116.412 143.445 115.456 142.489 115.456 141.309V137.581Z" fill="#DCDDDE"/>
<mask id="mask4_26304_40510" style="mask-type:alpha" maskUnits="userSpaceOnUse" x="93" y="149" width="17" height="17">
<ellipse cx="101.154" cy="157.845" rx="7.94567" ry="8" fill="#C4C4C4"/>
</mask>
<g mask="url(#mask4_26304_40510)">
<ellipse cx="101.154" cy="157.845" rx="7.94567" ry="8" fill="#F7E5BC"/>
<path d="M110.291 162.852L109.211 165.359C109.127 165.557 109.004 165.736 108.85 165.885C108.695 166.035 108.513 166.151 108.313 166.228C108.113 166.305 107.9 166.341 107.686 166.333C107.472 166.326 107.262 166.275 107.068 166.185L103.032 164.336L105.042 161.146L107.501 162.526L107.864 161.447C109.133 161.955 109.81 162.399 110.291 162.852Z" fill="#F7E5BC"/>
<path d="M105.603 161.638C107.226 161.908 107.376 162.249 107.809 163.106L106.068 162.907L105.603 161.638Z" fill="#F7E5BC"/>
<path d="M97.9572 148.044C97.6343 148.145 97.3617 148.366 97.1949 148.662C97.028 148.959 96.9793 149.308 97.0587 149.639L98.6744 156.281L101.567 155.678L99.6202 148.948C99.5715 148.778 99.4895 148.619 99.3791 148.481C99.2687 148.343 99.1321 148.229 98.9773 148.145C98.8224 148.06 98.6525 148.008 98.4773 147.991C98.3022 147.973 98.1253 147.991 97.9572 148.044V148.044Z" fill="#D6569B"/>
<path d="M99.5645 154.726L100.707 154.678L99.4935 150.678C99.4767 150.621 99.4484 150.568 99.4102 150.522C99.372 150.476 99.3248 150.438 99.2715 150.411C99.2183 150.385 99.1602 150.369 99.1007 150.366C99.0413 150.363 98.9818 150.372 98.9261 150.393V150.393C98.8283 150.43 98.7477 150.503 98.6997 150.597C98.6517 150.69 98.6397 150.799 98.666 150.901L99.5645 154.726Z" fill="#E374B0"/>
<path d="M104.648 148.012C104.972 148.11 105.247 148.329 105.417 148.623C105.587 148.918 105.639 149.267 105.562 149.599L104.018 156.249L101.117 155.686L102.993 148.932C103.04 148.762 103.121 148.602 103.23 148.463C103.339 148.324 103.474 148.208 103.629 148.122C103.783 148.037 103.952 147.983 104.127 147.964C104.302 147.945 104.479 147.961 104.648 148.012V148.012Z" fill="#D6569B"/>
<path d="M103.553 154.709L102.418 154.67L103.584 150.654C103.601 150.597 103.629 150.544 103.668 150.498C103.706 150.452 103.754 150.415 103.807 150.389C103.86 150.363 103.919 150.348 103.978 150.346C104.038 150.344 104.097 150.354 104.152 150.377V150.377C104.25 150.413 104.331 150.483 104.38 150.576C104.429 150.668 104.444 150.775 104.42 150.877L103.553 154.709Z" fill="#E374B0"/>
<path d="M106.793 164.392L106.32 165.899L106.257 166.09L105.674 167.931H94.8284C94.7259 167.526 94.852 167.447 95.1279 166.994C95.4037 166.542 95.2619 166.661 95.3013 165.566C95.3328 164.796 95.6086 164.082 96.5939 163.193C96.8934 162.931 96.9643 162.828 97.2717 162.543L97.3663 162.455L97.4135 162.408L97.4766 162.36L104.885 161.186L106.375 163.685L106.793 164.392Z" fill="#F7E5BC"/>
<path d="M106.32 165.899C106.272 166.621 106.209 167.304 106.131 167.931H98.1622C98.1701 167.605 98.178 167.201 98.1937 166.709C98.1924 166.656 98.1951 166.603 98.2016 166.55V165.939C98.1464 164.487 97.7366 163.495 96.5938 163.193C96.8066 162.979 97.0272 162.765 97.2716 162.543L97.3662 162.455L97.4765 162.36L104.885 161.186C105.468 161.4 105.855 161.551 106.296 162.003C106.343 162.574 106.367 163.138 106.375 163.685C106.383 164.455 106.359 165.193 106.32 165.899Z" fill="#1F3A70"/>
<path d="M105.609 158.044L97.0102 158.39C95.8784 158.436 94.9976 159.396 95.0429 160.536L95.043 160.539C95.0883 161.679 96.0425 162.565 97.1742 162.52L105.773 162.173C106.905 162.128 107.786 161.167 107.74 160.028L107.74 160.025C107.695 158.885 106.741 157.998 105.609 158.044Z" fill="#F06EA8"/>
<path d="M105.159 154.205L96.8042 154.558C95.6082 154.608 94.6793 155.626 94.7294 156.83L94.7324 156.902C94.7826 158.106 95.7928 159.041 96.9888 158.991L105.344 158.638C106.54 158.588 107.469 157.571 107.419 156.367L107.416 156.294C107.366 155.09 106.355 154.155 105.159 154.205Z" fill="#F06EA8"/>
<path d="M105.744 162.105C106.848 162.057 107.754 161.16 107.754 160.05C107.758 159.646 107.643 159.249 107.424 158.911C107.206 158.572 106.893 158.306 106.524 158.145C106.802 157.932 107.024 157.655 107.172 157.337C107.32 157.02 107.39 156.671 107.376 156.32V156.248C107.363 155.962 107.295 155.68 107.175 155.42C107.055 155.16 106.885 154.926 106.674 154.733C106.464 154.539 106.218 154.388 105.951 154.29C105.683 154.192 105.398 154.149 105.114 154.161L97.6575 154.479C96.9876 155.772 97.0822 157.161 97.5787 158.161C97.6511 158.312 97.692 158.477 97.6988 158.645C97.7056 158.813 97.6781 158.98 97.6181 159.137C96.9009 161.057 97.8467 162.446 97.8467 162.446L105.744 162.105Z" fill="#E05FA3"/>
<path d="M99.7229 158.215C99.9123 158.09 99.9228 157.769 99.7465 157.497C99.5701 157.226 99.2736 157.107 99.0842 157.232C98.8948 157.357 98.8842 157.678 99.0606 157.949C99.237 158.221 99.5335 158.34 99.7229 158.215Z" fill="#1B1926"/>
<path d="M103.457 157.623C103.539 157.327 103.442 157.042 103.241 156.986C103.04 156.929 102.81 157.123 102.728 157.418C102.647 157.714 102.743 157.999 102.944 158.056C103.146 158.112 103.375 157.918 103.457 157.623Z" fill="#1B1926"/>
<path d="M100.55 159.17C101.07 160.059 101.834 160.265 102.347 159.114C102.353 159.104 102.356 159.092 102.355 159.08C102.355 159.068 102.351 159.057 102.345 159.047C102.338 159.037 102.329 159.029 102.318 159.024C102.307 159.019 102.295 159.018 102.284 159.019L100.605 159.067C100.593 159.068 100.583 159.072 100.573 159.079C100.564 159.085 100.556 159.094 100.55 159.104C100.545 159.114 100.542 159.125 100.542 159.137C100.542 159.148 100.544 159.16 100.55 159.17Z" fill="#751B40"/>
<path d="M101.598 159.042L100.605 159.066C100.593 159.067 100.583 159.071 100.573 159.078C100.564 159.084 100.556 159.093 100.55 159.103C100.545 159.113 100.542 159.124 100.542 159.136C100.542 159.147 100.544 159.159 100.55 159.169C100.999 159.931 101.622 160.193 102.118 159.526C101.995 159.317 101.814 159.149 101.598 159.042V159.042Z" fill="#9C2455"/>
</g>
<g clip-path="url(#clip5_26304_40510)">
<rect x="115.456" y="149.845" width="19.0696" height="8" rx="2.13617" fill="#BED3FF"/>
<rect x="136.115" y="153.045" width="19.0696" height="4.8" rx="2.13617" fill="#72767D"/>
</g>
<path d="M115.456 161.581C115.456 160.401 116.412 159.444 117.592 159.444H189.598C190.778 159.444 191.734 160.401 191.734 161.581V167.444H115.456V161.581Z" fill="#DCDDDE"/>
<path d="M115.456 167.445H191.734V173.309C191.734 174.489 190.778 175.445 189.598 175.445H117.592C116.412 175.445 115.456 174.489 115.456 173.309V167.445Z" fill="#DCDDDE"/>
<mask id="mask5_26304_40510" style="mask-type:alpha" maskUnits="userSpaceOnUse" x="93" y="181" width="17" height="17">
<ellipse cx="101.154" cy="189.845" rx="7.94567" ry="8" fill="#C4C4C4"/>
</mask>
<g mask="url(#mask5_26304_40510)">
<ellipse cx="101.154" cy="189.845" rx="7.94567" ry="8" fill="#CFDEFF"/>
<path d="M110.04 200.576C109.889 200.201 109.639 199.875 109.318 199.632C108.997 199.389 108.616 199.239 108.216 199.197L107.381 199.109C106.187 194.769 106.793 193.783 103.256 192.812L100.393 192.713C100.393 192.713 97.4836 192.765 96.4122 194.206L97.9045 199.138C97.9045 199.138 97.2893 202.413 97.5664 204.072L101.296 203.585L102.909 208.843C109.003 207.928 111.844 205.086 111.844 205.086L110.04 200.576Z" fill="#CFDEFF"/>
<path d="M97.0938 193.099C101.15 196.918 104.816 199.527 104.203 193.497L97.0938 193.099Z" fill="#B8C5FF"/>
<path d="M99.0859 193.548C102.618 195.214 103.535 195.843 103.305 193.837L99.0859 193.548Z" fill="#5697B0"/>
<path d="M106.711 196.355C106.282 194.531 105.959 193.744 104.148 193.087C104.635 194.233 104.845 196.598 104.845 196.598L106.711 196.355Z" fill="white"/>
<path d="M100.682 187.539L100.554 186.531C100.51 186.202 100.364 185.895 100.136 185.656C99.9083 185.416 99.6104 185.256 99.2855 185.198V185.198C98.9286 185.136 98.5611 185.202 98.2473 185.384C97.9336 185.567 97.6936 185.855 97.5696 186.198C97.1136 187.44 96.4011 189.439 95.9096 191.12C95.1269 193.798 98.6572 194.415 102.127 194.146C105.596 193.876 105.924 192.348 105.446 190.137C105.139 188.757 104.75 187.349 104.508 186.474C104.434 186.23 104.29 186.013 104.095 185.849C103.901 185.685 103.662 185.583 103.41 185.553V185.553C103.127 185.52 102.841 185.583 102.597 185.731C102.354 185.88 102.166 186.105 102.063 186.373L101.673 187.41L100.682 187.539Z" fill="#7CE4CC"/>
<path d="M104.98 191.199L104.734 191.113L103.47 191.554L102.184 191.722L99.9576 191.277C99.9576 191.277 98.7343 189.374 98.8215 191.491C98.8905 192.954 99.5074 193.793 99.8832 194.178C100.631 194.211 101.38 194.197 102.126 194.134C102.689 194.102 103.247 194.007 103.789 193.851C104.165 193.316 104.772 192.33 104.98 191.199Z" fill="#AAFAE7"/>
<path opacity="0.74" d="M98.7855 191.308C98.4998 190.504 97.9827 188.809 98.199 187.532C98.4154 186.254 98.7001 185.205 99.2874 185.194C98.9303 185.131 98.5625 185.198 98.2486 185.38C97.9347 185.563 97.6946 185.851 97.5705 186.194C97.1142 187.437 96.4014 189.436 95.9095 191.118C95.2076 193.511 97.9583 194.256 101.038 194.195C100.37 194.086 99.5211 193.381 98.7855 191.308Z" fill="url(#paint2_linear_26304_40510)"/>
<path d="M101.038 194.198L100.791 194.204L100.556 194.209L100.187 194.191L100.072 194.206L99.8865 194.191C99.512 193.819 98.8948 192.979 98.8257 191.516C98.8205 191.49 98.8215 191.462 98.8287 191.437C99.5509 193.406 100.385 194.099 101.038 194.198Z" fill="#AAFAE7"/>
<path d="M104.676 190.976L104.674 191.271C103.322 192.16 103.102 192.406 99.6219 191.31L99.5869 191.036L99.7376 191.078C102.685 191.825 103.248 191.891 104.676 190.976Z" fill="#2C4661"/>
<path d="M99.3473 192.125C99.8027 191.998 100.057 191.478 99.9153 190.964C99.7736 190.451 99.2896 190.139 98.8343 190.267C98.3789 190.394 98.1246 190.914 98.2663 191.427C98.408 191.941 98.8919 192.253 99.3473 192.125Z" fill="#738EFF"/>
<path d="M105.324 191.06C105.417 190.616 105.288 190.212 105.036 190.159C104.784 190.106 104.505 190.424 104.412 190.868C104.319 191.313 104.448 191.716 104.7 191.769C104.952 191.822 105.231 191.505 105.324 191.06Z" fill="#738EFF"/>
<path opacity="0.41" d="M101.872 190.211C101.808 190.114 101.917 190.047 102.004 190.01C102.039 189.996 102.077 189.994 102.113 190.003C102.15 190.013 102.182 190.033 102.206 190.062L102.536 190.492C102.631 190.624 102.488 190.63 102.346 190.543C102.204 190.456 101.971 190.369 101.872 190.211Z" fill="#284E7A"/>
<path opacity="0.41" d="M103.348 190.413L103.449 190.176C103.466 190.136 103.471 190.091 103.464 190.047C103.456 190.004 103.435 189.964 103.404 189.932L103.359 189.885C103.355 189.88 103.35 189.877 103.344 189.874C103.338 189.872 103.331 189.871 103.325 189.872C103.318 189.873 103.312 189.875 103.307 189.879C103.302 189.883 103.298 189.888 103.295 189.894C103.233 190.062 103.185 190.236 103.152 190.412C103.136 190.598 103.252 190.583 103.348 190.413Z" fill="#284E7A"/>
<path d="M101.919 187.626L100.679 187.538L101.669 187.409L102.06 186.372C102.162 186.105 102.35 185.879 102.594 185.731C102.837 185.582 103.123 185.52 103.406 185.552V185.552L103.647 185.6C103.058 185.493 102.858 186.176 102.742 187.006C102.682 187.46 102.699 187.694 101.919 187.626Z" fill="#61C7C7"/>
<path d="M104.232 187.436C104.234 187.119 104.027 186.861 103.77 186.859C103.512 186.858 103.302 187.114 103.3 187.431C103.298 187.749 103.505 188.007 103.762 188.008C104.019 188.01 104.23 187.754 104.232 187.436Z" fill="#21354A"/>
<path d="M99.8698 187.247C99.901 186.931 99.7186 186.654 99.4625 186.629C99.2064 186.604 98.9734 186.839 98.9422 187.155C98.911 187.471 99.0934 187.747 99.3495 187.772C99.6057 187.798 99.8386 187.562 99.8698 187.247Z" fill="#21354A"/>
<path d="M97.9051 199.129C98.4424 199.138 99.1274 199.075 99.7386 199.048C99.7273 198.802 99.7487 198.556 99.8022 198.316C99.8962 197.913 100.04 197.524 100.23 197.156C99.7404 197.115 99.1468 197.074 98.6609 197.059C98.5615 194.64 97.2963 193.333 96.5971 194.002C96.2657 194.319 96.064 194.749 96.0316 195.207C96.0134 195.577 96.0507 196.177 96.0286 196.312C95.9673 196.753 95.6573 196.886 96.0363 197.704C96.2322 198.112 95.8639 199.12 97.9051 199.129Z" fill="white"/>
<path d="M99.5811 185.287C100.079 185.603 100.204 186.376 100.244 186.686C100.283 186.997 100.354 187.553 100.373 187.695C100.391 187.838 100.436 187.884 100.908 188.099C101.381 188.313 101.184 188.102 100.969 187.854L100.68 187.537L100.551 186.528C100.515 186.253 100.405 185.992 100.235 185.774C100.064 185.556 99.8385 185.388 99.5811 185.287V185.287Z" fill="#D4FFDC"/>
<path d="M103.963 187.058C104.142 187.127 104.182 187.542 104.005 187.381C103.827 187.22 103.717 186.972 103.963 187.058Z" fill="#335A70"/>
<path d="M99.6471 186.816C99.8131 186.887 99.8547 187.315 99.6884 187.14C99.5221 186.964 99.3879 186.732 99.6471 186.816Z" fill="#335A70"/>
<path d="M99.6102 191.586C99.7812 191.495 99.7952 191.184 99.6416 190.891C99.4879 190.598 99.2247 190.435 99.0537 190.526C98.8828 190.617 98.8687 190.928 99.0224 191.221C99.176 191.514 99.4392 191.677 99.6102 191.586Z" fill="#B2A6FF"/>
<path d="M105.314 190.707C105.314 190.498 105.233 190.329 105.133 190.329C105.033 190.329 104.952 190.498 104.952 190.707C104.951 190.917 105.032 191.086 105.132 191.086C105.232 191.086 105.314 190.916 105.314 190.707Z" fill="#B2A6FF"/>
<path d="M104.007 185.973C104.285 186.2 104.363 186.61 104.052 186.322C103.741 186.034 103.672 185.702 104.007 185.973Z" fill="#D4FFDC"/>
</g>
<g clip-path="url(#clip6_26304_40510)">
<rect x="115.456" y="181.845" width="19.0696" height="8" rx="2.13617" fill="#2DDFB4"/>
<rect x="136.115" y="185.045" width="19.0696" height="4.8" rx="2.13617" fill="#72767D"/>
</g>
<path d="M115.456 193.581C115.456 192.402 116.412 191.445 117.592 191.445H170.529C171.708 191.445 172.665 192.402 172.665 193.581V197.309C172.665 198.489 171.708 199.445 170.529 199.445H115.456V193.581Z" fill="#DCDDDE"/>
<mask id="mask6_26304_40510" style="mask-type:alpha" maskUnits="userSpaceOnUse" x="93" y="205" width="17" height="17">
<ellipse cx="101.154" cy="213.845" rx="7.94567" ry="8" fill="#C4C4C4"/>
</mask>
<g mask="url(#mask6_26304_40510)">
<ellipse cx="101.154" cy="213.845" rx="7.94567" ry="8" fill="#FFB869"/>
<path d="M97.0762 216.458C98.0035 219.704 101.734 221.954 104.727 219.832C107.72 217.71 104.748 213.36 104.748 213.36C104.748 213.36 106.371 209.243 102.303 208.267C98.2354 207.29 97.2237 209.073 97.0762 216.458Z" fill="#4D7AE8"/>
<path d="M103.104 214.081C102.65 214.081 102.282 213.587 102.282 212.977C102.282 212.368 102.65 211.874 103.104 211.874C103.558 211.874 103.926 212.368 103.926 212.977C103.926 213.587 103.558 214.081 103.104 214.081Z" fill="#DBE7FF"/>
<path d="M103.457 213.816C103.341 213.808 103.259 213.621 103.274 213.399C103.289 213.177 103.396 213.003 103.512 213.011C103.628 213.019 103.71 213.206 103.695 213.428C103.68 213.65 103.573 213.823 103.457 213.816Z" fill="#201E2F"/>
<path d="M104.053 210.919C103.998 210.754 103.894 210.61 103.754 210.509C103.614 210.407 103.446 210.353 103.273 210.353C103.1 210.353 102.932 210.407 102.792 210.509C102.652 210.61 102.548 210.754 102.493 210.919H104.053Z" fill="#201E2F"/>
<path d="M103.969 215.608C103.168 215.82 102.304 215.629 101.587 214.844C101.493 214.737 101.362 214.67 101.22 214.658C101.079 214.646 100.938 214.69 100.828 214.781C100.708 214.863 100.626 214.989 100.598 215.132C100.57 215.275 100.6 215.423 100.681 215.545C101.777 217.348 103.484 217.624 104.538 216.606C104.61 216.54 104.664 216.457 104.693 216.363C104.723 216.27 104.727 216.171 104.706 216.075C104.692 215.994 104.66 215.917 104.615 215.848C104.569 215.78 104.509 215.722 104.44 215.678C104.37 215.634 104.293 215.605 104.211 215.593C104.13 215.581 104.048 215.586 103.969 215.608Z" fill="#590942"/>
<path d="M103.358 215.693C103.564 215.695 103.77 215.666 103.969 215.608H104.159V216.139C104.159 216.139 103.842 216.372 102.662 216.245V215.948L100.597 215.248C100.597 215.16 100.619 215.074 100.659 214.997C100.7 214.919 100.758 214.852 100.829 214.802C100.829 214.796 100.831 214.791 100.835 214.787C100.839 214.783 100.844 214.781 100.85 214.781C100.936 214.721 101.04 214.691 101.145 214.696C101.166 214.675 101.208 214.696 101.229 214.696H101.419C101.44 214.717 101.461 214.717 101.461 214.738C101.461 214.76 101.503 214.738 101.503 214.76L101.587 214.823C101.712 214.967 101.854 215.095 102.009 215.205L102.304 215.396C102.441 215.481 102.59 215.546 102.746 215.587C102.943 215.655 103.15 215.691 103.358 215.693Z" fill="#DBE7FF"/>
<path d="M100.829 214.781C100.829 214.775 100.831 214.77 100.835 214.766C100.839 214.762 100.844 214.759 100.85 214.759C100.936 214.7 101.04 214.67 101.145 214.674C101.166 214.653 101.208 214.674 101.229 214.674H101.419C101.44 214.696 101.461 214.696 101.461 214.717C101.461 214.738 101.503 214.717 101.503 214.738L101.587 214.802C101.654 214.89 101.732 214.968 101.819 215.035L101.229 215.396L100.597 215.184C100.604 215.104 100.628 215.026 100.668 214.956C100.708 214.887 100.763 214.827 100.829 214.781Z" fill="#B5CDFF"/>
<path d="M97.9404 209.752C98.6992 208.054 100.027 207.715 102.303 208.266C102.762 208.369 103.202 208.541 103.61 208.776C103.736 209.455 102.704 209.667 100.786 209.051C101.418 210.197 100.111 212.234 97.9404 209.752Z" fill="#201E2F"/>
<path d="M100.596 208.203L100.702 206.802C100.711 206.674 100.693 206.546 100.649 206.426C100.604 206.306 100.535 206.196 100.445 206.106C100.355 206.015 100.246 205.945 100.127 205.9C100.008 205.856 99.8801 205.838 99.7531 205.847C99.6101 205.855 99.4711 205.898 99.3482 205.972C99.2253 206.047 99.1222 206.15 99.0475 206.273C98.9729 206.396 98.9291 206.535 98.9198 206.679C98.9106 206.823 98.9361 206.967 98.9944 207.099L99.6267 208.542L100.596 208.203Z" fill="#201E2F"/>
<path d="M95.1167 215.694L95.749 215.928L97.0768 215.058V216.14L98.1728 217.01C98.403 217.2 98.5926 217.436 98.7303 217.702C98.8679 217.968 98.9507 218.26 98.9737 218.559L99.0159 219.429C100.618 220.766 102.81 221.19 104.728 219.832C105.039 219.622 105.317 219.365 105.55 219.068L106.203 219.302C106.203 219.302 104.875 224.925 102.662 225.944C100.449 226.962 98.9105 225.944 98.9105 225.944C96.5921 218.007 97.2665 216.522 91.5338 218.814L91.2598 217.201L95.1167 215.694Z" fill="#EF6767"/>
<path d="M99.7107 213.168L95.5376 209.242L95.1582 209.73L98.3829 215.778L99.7107 213.168Z" fill="#4D7AE8"/>
<path d="M98.1938 212.277L96.5498 211.11L97.8144 213.402L97.5825 212.511L98.1938 212.277Z" fill="#3366E0"/>
</g>
<g clip-path="url(#clip7_26304_40510)">
<rect x="115.456" y="205.845" width="19.0696" height="8" rx="2.13617" fill="#FDD171"/>
<rect x="136.115" y="209.045" width="19.0696" height="4.8" rx="2.13617" fill="#72767D"/>
</g>
<path d="M115.456 217.581C115.456 216.402 116.412 215.445 117.592 215.445H189.598C190.778 215.445 191.734 216.402 191.734 217.581V221.309C191.734 222.489 190.778 223.445 189.598 223.445H115.456V217.581Z" fill="#DCDDDE"/>
<path d="M115.456 223.445H179.021V229.309C179.021 230.489 178.065 231.445 176.885 231.445H117.592C116.412 231.445 115.456 230.489 115.456 229.309V223.445Z" fill="#DCDDDE"/>
<path d="M19.7109 23.3173C19.7109 20.9577 21.6237 19.0449 23.9833 19.0449H82.0845V231.045H23.9833C21.6237 231.045 19.7109 229.132 19.7109 226.773V23.3173Z" fill="#1C1B29"/>
<rect x="39.5752" y="38.2451" width="36.1528" height="9.6" rx="2.13617" fill="#B9BBBE"/>
<rect x="39.5752" y="57.4453" width="32.9745" height="9.6" rx="2.13617" fill="#B9BBBE"/>
<rect x="39.5752" y="76.6445" width="36.1528" height="9.6" rx="2.13617" fill="#B9BBBE"/>
<rect x="39.5752" y="95.8447" width="26.618" height="9.6" rx="2.13617" fill="#B9BBBE"/>
<rect x="39.5752" y="115.045" width="36.1528" height="9.6" rx="2.13617" fill="#B9BBBE"/>
<path d="M106.391 38.7802V41.5562C106.391 42.2842 106.764 42.7242 107.487 42.7242C107.996 42.7242 108.409 42.4442 108.766 42.1002L108.854 42.6442H109.664V38.7802H108.711V41.3882C108.433 41.6762 108.131 41.8682 107.837 41.8682C107.487 41.8682 107.344 41.6442 107.344 41.3082V38.7802H106.391Z" fill="white"/>
<path d="M113.194 40.6602C113.194 41.5082 112.82 41.9162 112.328 41.9162C112.002 41.9162 111.819 41.8602 111.589 41.7482V40.0922C111.843 39.7642 112.113 39.5482 112.455 39.5482C112.884 39.5482 113.194 39.9162 113.194 40.6602ZM114.155 40.6042C114.155 39.3082 113.512 38.7002 112.709 38.7002C112.177 38.7002 111.803 38.9962 111.533 39.3082L111.446 38.7802H110.635V44.1322L111.589 43.9882V42.5322C111.819 42.6202 112.113 42.6842 112.479 42.6842C113.361 42.6842 114.155 42.0442 114.155 40.6042Z" fill="white"/>
<path d="M115.705 40.7642C115.705 39.9162 116.062 39.5082 116.563 39.5082C116.889 39.5082 117.072 39.5642 117.31 39.6762V41.3322C117.056 41.6602 116.785 41.8682 116.436 41.8682C116.015 41.8682 115.705 41.5162 115.705 40.7642ZM114.743 40.8202C114.743 42.1242 115.387 42.7242 116.19 42.7242C116.722 42.7242 117.095 42.4362 117.366 42.1082L117.445 42.6442H118.263V36.8682L117.31 37.0202V38.8842C117.079 38.8042 116.785 38.7402 116.42 38.7402C115.53 38.7402 114.743 39.3802 114.743 40.8202Z" fill="white"/>
<path d="M121.331 41.5802C121.068 41.8362 120.758 41.9962 120.433 41.9962C120.139 41.9962 119.964 41.8282 119.964 41.5482C119.964 41.1802 120.226 40.8522 121.331 40.7162V41.5802ZM122.284 42.6442V39.9962C122.284 39.0682 121.791 38.7002 120.798 38.7002C120.186 38.7002 119.718 38.8362 119.273 39.0122L119.392 39.7802C119.805 39.5962 120.226 39.4682 120.671 39.4682C121.092 39.4682 121.331 39.6282 121.331 40.0442V40.1562C119.781 40.3082 119.018 40.7162 119.018 41.6522C119.018 42.3242 119.455 42.7242 120.107 42.7242C120.679 42.7242 121.076 42.4682 121.386 42.1402L121.466 42.6442H122.284Z" fill="white"/>
<path d="M125.295 42.6442L125.176 41.8362C125.088 41.8602 124.985 41.8682 124.874 41.8682C124.508 41.8682 124.373 41.7002 124.373 41.3882V39.5642H125.271L125.152 38.7802H124.373V37.4122L123.428 37.5562V38.7802H122.887V39.5642H123.428V41.5482C123.428 42.4282 123.936 42.7082 124.691 42.7082C124.969 42.7082 125.144 42.6762 125.295 42.6442Z" fill="white"/>
<path d="M127.501 39.3642C127.962 39.3642 128.201 39.7002 128.264 40.3002H126.731C126.802 39.6762 127.12 39.3642 127.501 39.3642ZM129.186 42.2522L129.075 41.5002C128.654 41.7962 128.248 41.9802 127.756 41.9802C127.168 41.9802 126.762 41.6522 126.723 40.9002H129.186C129.186 40.8442 129.194 40.7482 129.194 40.6682C129.194 39.5722 128.677 38.7002 127.525 38.7002C126.524 38.7002 125.777 39.4602 125.777 40.7162C125.777 42.1082 126.58 42.7242 127.652 42.7242C128.272 42.7242 128.773 42.5402 129.186 42.2522Z" fill="white"/>
<path d="M132.809 41.5082C132.809 40.7802 132.419 40.5082 131.426 40.2522C130.854 40.1002 130.711 39.9802 130.711 39.7722C130.711 39.5642 130.886 39.4202 131.243 39.4202C131.625 39.4202 132.078 39.5562 132.459 39.7722L132.586 38.9722C132.205 38.8042 131.744 38.7002 131.243 38.7002C130.354 38.7002 129.829 39.1722 129.829 39.8442C129.829 40.5482 130.218 40.8202 131.148 41.0602C131.76 41.2122 131.927 41.3242 131.927 41.5962C131.927 41.8522 131.704 42.0042 131.291 42.0042C130.814 42.0042 130.306 41.8202 129.893 41.5482L129.766 42.3482C130.131 42.5482 130.703 42.7242 131.259 42.7242C132.268 42.7242 132.809 42.2682 132.809 41.5082Z" fill="white"/>
</g>
<g clip-path="url(#clip8_26304_40510)">
<path d="M123.921 72.8601C124.873 71.9073 126.418 71.9073 127.371 72.8601L127.562 73.0515C128.519 74.0076 128.519 75.5577 127.562 76.5138L125.018 79.0584C124.881 79.1951 124.659 79.1951 124.523 79.0584C124.386 78.9216 124.386 78.6998 124.523 78.563L127.067 76.0184C127.75 75.3359 127.75 74.2294 127.067 73.5468L126.876 73.3555C126.196 72.6762 125.095 72.6762 124.416 73.3555L121.606 76.165C121.189 76.5827 121.161 77.2509 121.543 77.7018C121.972 78.2091 122.743 78.2411 123.213 77.7713L125.398 75.5858C125.552 75.4324 125.552 75.1837 125.398 75.0303C125.245 74.8769 124.996 74.8769 124.843 75.0303L123.617 76.2562C123.48 76.393 123.258 76.393 123.121 76.2562C122.985 76.1195 122.985 75.8977 123.121 75.7609L124.347 74.535C124.774 74.108 125.467 74.108 125.894 74.535C126.32 74.9619 126.32 75.6542 125.894 76.0811L123.708 78.2666C122.948 79.0263 121.702 78.9744 121.008 78.1543C120.391 77.4252 120.436 76.345 121.111 75.6697L123.921 72.8601Z" fill="#DCDDDE"/>
</g>
<g clip-path="url(#clip9_26304_40510)">
<path fill-rule="evenodd" clip-rule="evenodd" d="M33.1855 39.214C33.2252 38.9755 33.0641 38.7499 32.8256 38.7101C32.5871 38.6704 32.3615 38.8315 32.3217 39.07L31.9449 41.3311H30.1266C29.8848 41.3311 29.6888 41.5272 29.6888 41.769C29.6888 42.0108 29.8848 42.2068 30.1266 42.2068H31.799L31.5071 43.9581H29.6888C29.447 43.9581 29.251 44.1541 29.251 44.3959C29.251 44.6377 29.447 44.8338 29.6888 44.8338H31.3611L31.0083 46.951C30.9685 47.1895 31.1296 47.4151 31.3682 47.4548C31.6067 47.4946 31.8323 47.3334 31.872 47.0949L32.2489 44.8338H34.4259L34.0731 46.951C34.0333 47.1895 34.1944 47.4151 34.433 47.4548C34.6715 47.4946 34.8971 47.3334 34.9368 47.0949L35.3137 44.8338H37.1319C37.3737 44.8338 37.5698 44.6377 37.5698 44.3959C37.5698 44.1541 37.3737 43.9581 37.1319 43.9581H35.4596L35.7515 42.2068H37.5698C37.8116 42.2068 38.0076 42.0108 38.0076 41.769C38.0076 41.5272 37.8116 41.3311 37.5698 41.3311H35.8975L36.2503 39.214C36.2901 38.9755 36.1289 38.7499 35.8904 38.7101C35.6519 38.6704 35.4263 38.8315 35.3866 39.07L35.0097 41.3311H32.8326L33.1855 39.214ZM34.5719 43.9581L34.8638 42.2068H32.6867L32.3948 43.9581H34.5719Z" fill="#B5BAC1"/>
</g>
<path fill-rule="evenodd" clip-rule="evenodd" d="M98.4013 36.0616C98.4411 35.8231 98.2799 35.5975 98.0414 35.5578C97.8029 35.518 97.5773 35.6792 97.5376 35.9177L97.1607 38.1788H95.3425C95.1007 38.1788 94.9046 38.3748 94.9046 38.6166C94.9046 38.8584 95.1007 39.0544 95.3425 39.0544H97.0148L96.7229 40.8058H94.9046C94.6628 40.8058 94.4668 41.0018 94.4668 41.2436C94.4668 41.4854 94.6628 41.6814 94.9046 41.6814H96.5769L96.2241 43.7986C96.1843 44.0371 96.3455 44.2627 96.584 44.3025C96.8225 44.3422 97.0481 44.1811 97.0878 43.9426L97.4647 41.6814H99.6418L99.2889 43.7986C99.2491 44.0371 99.4103 44.2627 99.6488 44.3025C99.8873 44.3422 100.113 44.1811 100.153 43.9426L100.529 41.6814H102.348C102.59 41.6814 102.786 41.4854 102.786 41.2436C102.786 41.0018 102.59 40.8058 102.348 40.8058H100.675L100.967 39.0544H102.786C103.027 39.0544 103.223 38.8584 103.223 38.6166C103.223 38.3748 103.027 38.1788 102.786 38.1788H101.113L101.466 36.0616C101.506 35.8231 101.345 35.5975 101.106 35.5578C100.868 35.518 100.642 35.6792 100.602 35.9177L100.226 38.1788H98.0485L98.4013 36.0616ZM99.7877 40.8058L100.08 39.0544H97.9025L97.6106 40.8058H99.7877Z" fill="#B5BAC1"/>
<g clip-path="url(#clip10_26304_40510)">
<path fill-rule="evenodd" clip-rule="evenodd" d="M33.1855 58.128C33.2252 57.8895 33.0641 57.6639 32.8256 57.6242C32.5871 57.5844 32.3615 57.7456 32.3217 57.9841L31.9449 60.2452H30.1266C29.8848 60.2452 29.6888 60.4412 29.6888 60.683C29.6888 60.9248 29.8848 61.1209 30.1266 61.1209H31.799L31.5071 62.8722H29.6888C29.447 62.8722 29.251 63.0682 29.251 63.31C29.251 63.5518 29.447 63.7478 29.6888 63.7478H31.3611L31.0083 65.865C30.9685 66.1036 31.1296 66.3291 31.3682 66.3689C31.6067 66.4086 31.8323 66.2475 31.872 66.009L32.2489 63.7478H34.4259L34.0731 65.865C34.0333 66.1036 34.1944 66.3291 34.433 66.3689C34.6715 66.4086 34.8971 66.2475 34.9368 66.009L35.3137 63.7478H37.1319C37.3737 63.7478 37.5698 63.5518 37.5698 63.31C37.5698 63.0682 37.3737 62.8722 37.1319 62.8722H35.4596L35.7515 61.1209H37.5698C37.8116 61.1209 38.0076 60.9248 38.0076 60.683C38.0076 60.4412 37.8116 60.2452 37.5698 60.2452H35.8975L36.2503 58.128C36.2901 57.8895 36.1289 57.6639 35.8904 57.6242C35.6519 57.5844 35.4263 57.7456 35.3866 57.9841L35.0097 60.2452H32.8326L33.1855 58.128ZM34.5719 62.8722L34.8638 61.1209H32.6867L32.3948 62.8722H34.5719Z" fill="#B5BAC1"/>
</g>
<g clip-path="url(#clip11_26304_40510)">
<path fill-rule="evenodd" clip-rule="evenodd" d="M33.1855 77.0431C33.2252 76.8046 33.0641 76.579 32.8256 76.5392C32.5871 76.4995 32.3615 76.6606 32.3217 76.8991L31.9449 79.1602H30.1266C29.8848 79.1602 29.6888 79.3563 29.6888 79.5981C29.6888 79.8399 29.8848 80.0359 30.1266 80.0359H31.799L31.5071 81.7872H29.6888C29.447 81.7872 29.251 81.9832 29.251 82.225C29.251 82.4669 29.447 82.6629 29.6888 82.6629H31.3611L31.0083 84.7801C30.9685 85.0186 31.1296 85.2442 31.3682 85.2839C31.6067 85.3237 31.8323 85.1626 31.872 84.924L32.2489 82.6629H34.4259L34.0731 84.7801C34.0333 85.0186 34.1944 85.2442 34.433 85.2839C34.6715 85.3237 34.8971 85.1626 34.9368 84.924L35.3137 82.6629H37.1319C37.3737 82.6629 37.5698 82.4669 37.5698 82.225C37.5698 81.9832 37.3737 81.7872 37.1319 81.7872H35.4596L35.7515 80.0359H37.5698C37.8116 80.0359 38.0076 79.8399 38.0076 79.5981C38.0076 79.3563 37.8116 79.1602 37.5698 79.1602H35.8975L36.2503 77.0431C36.2901 76.8046 36.1289 76.579 35.8904 76.5392C35.6519 76.4995 35.4263 76.6606 35.3866 76.8991L35.0097 79.1602H32.8326L33.1855 77.0431ZM34.5719 81.7872L34.8638 80.0359H32.6867L32.3948 81.7872H34.5719Z" fill="#B5BAC1"/>
</g>
<g clip-path="url(#clip12_26304_40510)">
<path fill-rule="evenodd" clip-rule="evenodd" d="M33.1855 97.0079C33.2252 96.7694 33.0641 96.5438 32.8256 96.5041C32.5871 96.4643 32.3615 96.6254 32.3217 96.864L31.9449 99.1251H30.1266C29.8848 99.1251 29.6888 99.3211 29.6888 99.5629C29.6888 99.8047 29.8848 100.001 30.1266 100.001H31.799L31.5071 101.752H29.6888C29.447 101.752 29.251 101.948 29.251 102.19C29.251 102.432 29.447 102.628 29.6888 102.628H31.3611L31.0083 104.745C30.9685 104.983 31.1296 105.209 31.3682 105.249C31.6067 105.289 31.8323 105.127 31.872 104.889L32.2489 102.628H34.4259L34.0731 104.745C34.0333 104.983 34.1944 105.209 34.433 105.249C34.6715 105.289 34.8971 105.127 34.9368 104.889L35.3137 102.628H37.1319C37.3737 102.628 37.5698 102.432 37.5698 102.19C37.5698 101.948 37.3737 101.752 37.1319 101.752H35.4596L35.7515 100.001H37.5698C37.8116 100.001 38.0076 99.8047 38.0076 99.5629C38.0076 99.3211 37.8116 99.1251 37.5698 99.1251H35.8975L36.2503 97.0079C36.2901 96.7694 36.1289 96.5438 35.8904 96.5041C35.6519 96.4643 35.4263 96.6254 35.3866 96.864L35.0097 99.1251H32.8326L33.1855 97.0079ZM34.5719 101.752L34.8638 100.001H32.6867L32.3948 101.752H34.5719Z" fill="#B5BAC1"/>
</g>
<g clip-path="url(#clip13_26304_40510)">
<path fill-rule="evenodd" clip-rule="evenodd" d="M33.1855 115.922C33.2252 115.683 33.0641 115.458 32.8256 115.418C32.5871 115.378 32.3615 115.54 32.3217 115.778L31.9449 118.039H30.1266C29.8848 118.039 29.6888 118.235 29.6888 118.477C29.6888 118.719 29.8848 118.915 30.1266 118.915H31.799L31.5071 120.666H29.6888C29.447 120.666 29.251 120.862 29.251 121.104C29.251 121.346 29.447 121.542 29.6888 121.542H31.3611L31.0083 123.659C30.9685 123.897 31.1296 124.123 31.3682 124.163C31.6067 124.203 31.8323 124.041 31.872 123.803L32.2489 121.542H34.4259L34.0731 123.659C34.0333 123.897 34.1944 124.123 34.433 124.163C34.6715 124.203 34.8971 124.041 34.9368 123.803L35.3137 121.542H37.1319C37.3737 121.542 37.5698 121.346 37.5698 121.104C37.5698 120.862 37.3737 120.666 37.1319 120.666H35.4596L35.7515 118.915H37.5698C37.8116 118.915 38.0076 118.719 38.0076 118.477C38.0076 118.235 37.8116 118.039 37.5698 118.039H35.8975L36.2503 115.922C36.2901 115.683 36.1289 115.458 35.8904 115.418C35.6519 115.378 35.4263 115.54 35.3866 115.778L35.0097 118.039H32.8326L33.1855 115.922ZM34.5719 120.666L34.8638 118.915H32.6867L32.3948 120.666H34.5719Z" fill="#B5BAC1"/>
</g>
<path d="M233.364 265.424V323.983H172.635V265.424H202.999C201.752 265.414 200.516 265.653 199.361 266.127C198.207 266.601 197.159 267.302 196.277 268.187C195.395 269.073 194.698 270.125 194.225 271.284C193.753 272.443 193.515 273.685 193.525 274.937V305.113C193.518 306.995 194.067 308.837 195.102 310.406C196.138 311.974 197.614 313.199 199.343 313.925C201.073 314.652 202.978 314.847 204.817 314.485C206.657 314.124 208.348 313.223 209.678 311.897C211.455 310.088 212.458 307.654 212.474 305.113V274.937C212.474 272.414 211.476 269.994 209.699 268.21C207.922 266.426 205.512 265.424 202.999 265.424H233.364Z" fill="#11111A"/>
<path d="M286.017 320.629H119.982C110.14 320.578 100.373 322.349 91.1709 325.854V331H314.75V325.854C305.577 322.343 295.834 320.571 286.017 320.629V320.629Z" fill="#2C2C40"/>
<path d="M314.75 325.854H91.1709V331.079H314.75V325.854Z" fill="#11111A"/>
</g>
<defs>
<linearGradient id="paint0_linear_26304_40510" x1="98.8953" y1="127.442" x2="99.6203" y2="135.729" gradientUnits="userSpaceOnUse">
<stop stop-color="#FFC285"/>
<stop offset="1" stop-color="#DB8D6B"/>
</linearGradient>
<linearGradient id="paint1_linear_26304_40510" x1="91.9462" y1="135.942" x2="106.863" y2="128.693" gradientUnits="userSpaceOnUse">
<stop stop-color="#D67569"/>
<stop offset="1" stop-color="#E39E7F"/>
</linearGradient>
<linearGradient id="paint2_linear_26304_40510" x1="95.5784" y1="191.332" x2="98.1939" y2="190.348" gradientUnits="userSpaceOnUse">
<stop stop-color="#61C7C7"/>
<stop offset="1" stop-color="#54B9C7"/>
</linearGradient>
<clipPath id="clip0_26304_40510">
<rect width="406" height="331" fill="white"/>
</clipPath>
<clipPath id="clip1_26304_40510">
<rect width="234" height="212" fill="white" transform="translate(19.7109 19.0449)"/>
</clipPath>
<clipPath id="clip2_26304_40510">
<rect width="39.7284" height="8" fill="white" transform="translate(115.456 55.4443)"/>
</clipPath>
<clipPath id="clip3_26304_40510">
<rect width="39.7284" height="8" fill="white" transform="translate(115.456 93.8447)"/>
</clipPath>
<clipPath id="clip4_26304_40510">
<rect width="39.7284" height="8" fill="white" transform="translate(115.456 125.845)"/>
</clipPath>
<clipPath id="clip5_26304_40510">
<rect width="39.7284" height="8" fill="white" transform="translate(115.456 149.845)"/>
</clipPath>
<clipPath id="clip6_26304_40510">
<rect width="39.7284" height="8" fill="white" transform="translate(115.456 181.845)"/>
</clipPath>
<clipPath id="clip7_26304_40510">
<rect width="39.7284" height="8" fill="white" transform="translate(115.456 205.845)"/>
</clipPath>
<clipPath id="clip8_26304_40510">
<rect width="8.40635" height="8.40635" fill="white" transform="translate(120.217 71.4551)"/>
</clipPath>
<clipPath id="clip9_26304_40510">
<rect width="10.5079" height="10.5079" fill="white" transform="translate(28.376 37.8291)"/>
</clipPath>
<clipPath id="clip10_26304_40510">
<rect width="10.5079" height="10.5079" fill="white" transform="translate(28.376 56.7432)"/>
</clipPath>
<clipPath id="clip11_26304_40510">
<rect width="10.5079" height="10.5079" fill="white" transform="translate(28.376 75.6582)"/>
</clipPath>
<clipPath id="clip12_26304_40510">
<rect width="10.5079" height="10.5079" fill="white" transform="translate(28.376 95.623)"/>
</clipPath>
<clipPath id="clip13_26304_40510">
<rect width="10.5079" height="10.5079" fill="white" transform="translate(28.376 114.537)"/>
</clipPath>
</defs>
</svg>
