<svg width="528" height="317" viewBox="0 0 528 317" fill="none" xmlns="http://www.w3.org/2000/svg">
<path d="M471.399 0.129883H56.5122C48.616 0.129883 42.2148 6.6871 42.2148 14.7758V292.663C42.2148 300.752 48.616 307.309 56.5122 307.309H471.399C479.295 307.309 485.696 300.752 485.696 292.663V14.7758C485.696 6.6871 479.295 0.129883 471.399 0.129883Z" fill="#11111A"/>
<path d="M471.399 2.82546C474.501 2.82537 477.478 4.08155 479.679 6.32014C481.881 8.55872 483.13 11.5982 483.153 14.7758V292.6C483.153 295.793 481.914 298.856 479.71 301.114C477.506 303.372 474.516 304.64 471.399 304.64H56.5999C53.4827 304.64 50.4931 303.372 48.2888 301.114C46.0846 298.856 44.8463 295.793 44.8463 292.6V14.7758C44.8694 11.5982 46.118 8.55872 48.3197 6.32014C50.5214 4.08155 53.4978 2.82537 56.5999 2.82546H471.399ZM471.399 0.129883H56.5999C52.7999 0.12981 49.1542 1.66999 46.459 4.41409C43.7638 7.15819 42.238 10.8833 42.2148 14.7758V292.6C42.2148 296.508 43.7304 300.256 46.4281 303.02C49.1259 305.783 52.7848 307.336 56.5999 307.336H471.399C475.214 307.336 478.873 305.783 481.571 303.02C484.269 300.256 485.784 296.508 485.784 292.6V14.7758C485.761 10.8833 484.235 7.15819 481.54 4.41409C478.845 1.66999 475.199 0.12981 471.399 0.129883V0.129883Z" fill="#B8B9C9"/>
<path d="M527.186 300.956H0.814453V311.37H527.186V300.956Z" fill="url(#paint0_linear_26173_43411)"/>
<path d="M300.008 303.652H227.995C227.304 303.629 226.647 303.338 226.158 302.837C225.67 302.336 225.385 301.664 225.363 300.956H302.639C302.617 301.664 302.333 302.336 301.844 302.837C301.355 303.338 300.699 303.629 300.008 303.652Z" fill="#B8B9C9"/>
<path d="M0.814453 311.379C11.5401 314.03 22.4487 315.832 33.444 316.77H494.556C505.551 315.832 516.46 314.03 527.186 311.379H0.814453Z" fill="#ACADBF"/>
<mask id="mask0_26173_43411" style="mask-type:alpha" maskUnits="userSpaceOnUse" x="51" y="9" width="426" height="277">
<path d="M476.137 9.83398H51.8652V285.259H476.137V9.83398Z" fill="#36393F"/>
</mask>
<g mask="url(#mask0_26173_43411)">
<rect x="52.207" y="9.4707" width="520.667" height="373.423" rx="6.63796" fill="#292841"/>
<path d="M52.207 16.1087C52.207 12.4426 55.1789 9.4707 58.845 9.4707H160.192V382.894H58.845C55.1789 382.894 52.207 379.922 52.207 376.256V16.1087Z" fill="#1C1B29"/>
<path d="M207.225 49.0393C207.225 47.7569 206.551 47.2778 204.831 46.8269C203.841 46.5592 203.593 46.3478 203.593 45.9814C203.593 45.615 203.896 45.3614 204.515 45.3614C205.175 45.3614 205.959 45.6009 206.619 45.9814L206.839 44.5723C206.179 44.2763 205.381 44.0932 204.515 44.0932C202.974 44.0932 202.066 44.9246 202.066 46.1082C202.066 47.3483 202.74 47.8274 204.35 48.2501C205.409 48.5179 205.698 48.7152 205.698 49.1943C205.698 49.6452 205.313 49.9129 204.597 49.9129C203.772 49.9129 202.891 49.5888 202.176 49.1097L201.956 50.5189C202.589 50.8711 203.579 51.1812 204.542 51.1812C206.289 51.1812 207.225 50.3779 207.225 49.0393Z" fill="white"/>
<path d="M212.083 51.0402L211.877 49.617C211.725 49.6593 211.546 49.6734 211.354 49.6734C210.721 49.6734 210.487 49.3774 210.487 48.8279V45.615H212.042L211.835 44.2341H210.487V41.8244L208.85 42.0781V44.2341H207.915V45.615H208.85V49.1097C208.85 50.6598 209.731 51.153 211.037 51.153C211.519 51.153 211.822 51.0966 212.083 51.0402Z" fill="white"/>
<path d="M213.288 44.2341V49.1238C213.288 50.4061 213.935 51.1812 215.186 51.1812C216.067 51.1812 216.782 50.688 217.401 50.082L217.552 51.0402H218.956V44.2341H217.305V48.8279C216.823 49.3352 216.301 49.6734 215.792 49.6734C215.186 49.6734 214.939 49.2788 214.939 48.687V44.2341H213.288Z" fill="white"/>
<path d="M221.971 47.7287C221.971 46.2351 222.59 45.5164 223.457 45.5164C224.021 45.5164 224.337 45.615 224.75 45.8123V48.7292C224.31 49.307 223.842 49.6734 223.237 49.6734C222.508 49.6734 221.971 49.0533 221.971 47.7287ZM220.307 47.8274C220.307 50.1243 221.421 51.1812 222.81 51.1812C223.732 51.1812 224.379 50.6739 224.846 50.0961L224.984 51.0402H226.401V40.8662L224.75 41.1339V44.4173C224.351 44.2763 223.842 44.1636 223.209 44.1636C221.669 44.1636 220.307 45.2909 220.307 47.8274Z" fill="white"/>
<path d="M228.781 53.6049C229.977 53.6049 230.748 53.1117 231.312 51.4771L233.857 44.2341H232.192L230.707 49.0252L229.193 44.1354L227.474 44.3609L229.881 51.0261L229.826 51.2234C229.606 51.9562 229.166 52.2098 228.616 52.2098C228.327 52.2098 228.093 52.1676 227.887 52.1112L228.107 53.5344C228.258 53.5767 228.423 53.6049 228.781 53.6049Z" fill="white"/>
<path d="M238.126 47.7992V46.1646H234.55V47.7992H238.126Z" fill="white"/>
<path d="M243.209 46.4464C243.209 47.1933 242.769 47.7428 242.04 47.7428C241.325 47.7428 240.884 47.2074 240.884 46.5028C240.884 45.7559 241.311 45.1782 242.04 45.1782C242.742 45.1782 243.209 45.7278 243.209 46.4464ZM245.562 51.3221C245.562 50.2793 244.709 49.8425 243.347 49.6452L242.494 49.5606C241.462 49.4056 241.256 49.3493 241.256 49.1238C241.256 49.0111 241.366 48.8842 241.531 48.7574C241.696 48.7856 241.875 48.7997 242.068 48.7997C243.498 48.7997 244.722 47.926 244.722 46.4605C244.722 46.1505 244.667 45.8405 244.544 45.5728L245.754 45.4882L245.534 44.1354L243.911 44.7273C243.429 44.3186 242.797 44.0932 242.026 44.0932C240.541 44.0932 239.358 45.0091 239.358 46.5028C239.358 47.4046 239.825 48.1092 240.609 48.4897C240.059 48.8279 239.77 49.1943 239.77 49.5747C239.77 49.8425 239.894 50.0961 240.155 50.3075C239.33 50.7866 238.904 51.2798 238.904 51.9139C238.904 53.0412 240.265 53.6049 242.068 53.6049C243.993 53.6049 245.562 52.7876 245.562 51.3221ZM242.178 52.6044C240.926 52.6044 240.334 52.238 240.334 51.7307C240.334 51.3784 240.554 51.0543 241.036 50.702C241.366 50.7725 241.572 50.8148 242.026 50.8711L242.92 50.9839C243.746 51.1107 244.035 51.3221 244.035 51.6884C244.035 52.1957 243.361 52.6044 242.178 52.6044Z" fill="white"/>
<path d="M250.741 45.77L250.48 44.0932C249.448 44.1495 248.788 44.8118 248.348 45.6009L248.142 44.2341H246.738V51.0402H248.389V47.1369C248.871 46.4042 249.71 45.8405 250.741 45.77Z" fill="white"/>
<path d="M257.53 47.6301C257.53 45.4178 256.209 44.0932 254.394 44.0932C252.592 44.0932 251.271 45.4318 251.271 47.6442C251.271 49.8566 252.578 51.1812 254.38 51.1812C256.196 51.1812 257.53 49.8425 257.53 47.6301ZM255.921 47.6442C255.921 48.9124 255.398 49.8002 254.38 49.8002C253.417 49.8002 252.88 48.8842 252.88 47.6301C252.88 46.376 253.403 45.4741 254.38 45.4741C255.37 45.4741 255.921 46.3901 255.921 47.6442Z" fill="white"/>
<path d="M258.842 44.2341V49.1238C258.842 50.4061 259.488 51.1812 260.74 51.1812C261.62 51.1812 262.336 50.688 262.955 50.082L263.106 51.0402H264.509V44.2341H262.858V48.8279C262.377 49.3352 261.854 49.6734 261.345 49.6734C260.74 49.6734 260.492 49.2788 260.492 48.687V44.2341H258.842Z" fill="white"/>
<path d="M270.62 47.5456C270.62 49.0393 269.973 49.7579 269.12 49.7579C268.556 49.7579 268.24 49.6593 267.841 49.462V46.5451C268.281 45.9673 268.749 45.5868 269.34 45.5868C270.083 45.5868 270.62 46.2351 270.62 47.5456ZM272.284 47.4469C272.284 45.1641 271.17 44.0932 269.781 44.0932C268.859 44.0932 268.213 44.6145 267.745 45.1641L267.593 44.2341H266.19V53.6613L267.841 53.4076V50.843C268.24 50.998 268.749 51.1107 269.382 51.1107C270.909 51.1107 272.284 49.9834 272.284 47.4469Z" fill="white"/>
<mask id="mask1_26173_43411" style="mask-type:alpha" maskUnits="userSpaceOnUse" x="179" y="73" width="28" height="29">
<ellipse cx="193.206" cy="87.6784" rx="13.7561" ry="14.0915" fill="#C4C4C4"/>
</mask>
<g mask="url(#mask1_26173_43411)">
<ellipse cx="193.206" cy="87.6784" rx="13.7561" ry="14.0915" fill="#F7E5BC"/>
<path d="M209.026 96.4994L207.157 100.916C207.011 101.265 206.798 101.58 206.53 101.843C206.263 102.106 205.947 102.311 205.601 102.447C205.255 102.582 204.886 102.645 204.516 102.632C204.145 102.619 203.781 102.53 203.445 102.37L196.459 99.1133L199.939 93.4941L204.196 95.9263L204.824 94.0253C207.02 94.9199 208.194 95.7027 209.026 96.4994Z" fill="#F7E5BC"/>
<path d="M200.907 94.3604C203.718 94.8356 203.977 95.4367 204.728 96.9463L201.712 96.5968L200.907 94.3604Z" fill="#F7E5BC"/>
<path d="M187.672 70.4161C187.113 70.5945 186.641 70.9842 186.352 71.506C186.063 72.0277 185.979 72.6425 186.116 73.2256L188.913 84.9252L193.921 83.8628L190.551 72.0096C190.466 71.7096 190.325 71.43 190.133 71.1869C189.942 70.9438 189.706 70.7422 189.438 70.5938C189.17 70.4454 188.875 70.3533 188.572 70.3228C188.269 70.2923 187.963 70.324 187.672 70.4161Z" fill="#D6569B"/>
<path d="M190.455 82.1854L192.434 82.1015L190.332 75.0566C190.303 74.9554 190.254 74.8613 190.188 74.7804C190.122 74.6994 190.04 74.6333 189.948 74.586C189.856 74.5388 189.755 74.5116 189.652 74.506C189.549 74.5004 189.446 74.5165 189.35 74.5534C189.181 74.6197 189.041 74.7476 188.958 74.9126C188.875 75.0777 188.854 75.2683 188.9 75.448L190.455 82.1854Z" fill="#E374B0"/>
<path d="M199.256 70.3601C199.817 70.5329 200.293 70.918 200.587 71.4373C200.881 71.9565 200.971 72.571 200.838 73.1557L198.164 84.8692L193.143 83.8768L196.39 71.9816C196.472 71.6807 196.611 71.3995 196.8 71.1545C196.989 70.9094 197.224 70.7055 197.491 70.5545C197.757 70.4035 198.051 70.3085 198.354 70.2752C198.657 70.2418 198.964 70.2707 199.256 70.3601Z" fill="#D6569B"/>
<path d="M197.359 82.1582L195.395 82.0883L197.414 75.0154C197.443 74.9142 197.492 74.8203 197.558 74.7397C197.625 74.6592 197.707 74.5937 197.799 74.5476C197.892 74.5015 197.993 74.4758 198.096 74.4721C198.199 74.4685 198.301 74.4869 198.396 74.5262C198.565 74.5896 198.706 74.7142 198.791 74.8765C198.877 75.0387 198.901 75.2273 198.86 75.4068L197.359 82.1582Z" fill="#E374B0"/>
<path d="M202.968 99.2106L202.149 101.866L202.04 102.202L201.03 105.445H182.255C182.077 104.732 182.296 104.592 182.773 103.795C183.251 102.999 183.005 103.208 183.073 101.279C183.128 99.9234 183.606 98.6654 185.311 97.0999C185.83 96.6386 185.952 96.4569 186.485 95.9537L186.648 95.7999L186.73 95.7161L186.839 95.6322L199.666 93.5635L202.245 97.9665L202.968 99.2106Z" fill="#F7E5BC"/>
<path d="M202.149 101.866C202.067 103.138 201.958 104.34 201.821 105.445H188.026C188.04 104.872 188.053 104.159 188.081 103.292C188.078 103.199 188.083 103.105 188.094 103.013V101.936C187.999 99.3783 187.289 97.6311 185.311 97.0999C185.679 96.7225 186.061 96.3451 186.484 95.9537L186.648 95.7999L186.839 95.6322L199.665 93.5635C200.675 93.9409 201.344 94.2065 202.108 95.0032C202.19 96.0096 202.231 97.002 202.244 97.9665C202.258 99.3224 202.217 100.622 202.149 101.866Z" fill="#1F3A70"/>
<path d="M200.918 88.0317L186.031 88.6417C184.072 88.722 182.547 90.4142 182.625 92.4214L182.626 92.427C182.704 94.4341 184.356 95.9961 186.315 95.9159L201.202 95.3059C203.162 95.2256 204.686 93.5334 204.608 91.5262L204.608 91.5206C204.529 89.5135 202.877 87.9515 200.918 88.0317Z" fill="#F06EA8"/>
<path d="M200.141 81.2707L185.676 81.8918C183.605 81.9807 181.997 83.7722 182.084 85.8933L182.089 86.0204C182.176 88.1415 183.925 89.7889 185.995 89.7L200.46 89.0789C202.531 88.99 204.139 87.1985 204.052 85.0774L204.047 84.9503C203.96 82.8292 202.211 81.1818 200.141 81.2707Z" fill="#F06EA8"/>
<path d="M201.153 95.1852C203.063 95.1013 204.632 93.5218 204.632 91.5649C204.639 90.8533 204.44 90.1556 204.061 89.5589C203.683 88.9623 203.141 88.4932 202.504 88.2102C202.984 87.8352 203.368 87.3472 203.625 86.7875C203.881 86.2279 204.002 85.613 203.977 84.9953V84.8695C203.956 84.3645 203.838 83.8688 203.63 83.4106C203.422 82.9525 203.127 82.5409 202.763 82.1994C202.4 81.8579 201.974 81.5933 201.51 81.4207C201.046 81.248 200.554 81.1708 200.061 81.1933L187.153 81.7524C185.993 84.0308 186.157 86.4769 187.016 88.2381C187.142 88.5048 187.212 88.7949 187.224 89.0906C187.236 89.3862 187.188 89.6813 187.084 89.9574C185.843 93.3401 187.48 95.7862 187.48 95.7862L201.153 95.1852Z" fill="#E05FA3"/>
<path d="M190.73 88.3321C191.058 88.1123 191.076 87.5466 190.771 87.0686C190.465 86.5905 189.952 86.3812 189.624 86.601C189.296 86.8208 189.278 87.3865 189.583 87.8645C189.889 88.3426 190.402 88.5519 190.73 88.3321Z" fill="#1B1926"/>
<path d="M197.194 87.2886C197.336 86.7681 197.169 86.2654 196.82 86.1657C196.472 86.0661 196.075 86.4072 195.933 86.9277C195.791 87.4482 195.958 87.9509 196.307 88.0505C196.655 88.1502 197.052 87.809 197.194 87.2886Z" fill="#1B1926"/>
<path d="M192.161 90.0128C193.061 91.5783 194.385 91.9417 195.272 89.9149C195.282 89.8968 195.288 89.876 195.287 89.855C195.286 89.8339 195.28 89.8134 195.269 89.7959C195.257 89.7784 195.241 89.7645 195.223 89.7559C195.204 89.7473 195.183 89.7442 195.163 89.7472L192.256 89.8311C192.237 89.8334 192.218 89.8405 192.201 89.8519C192.185 89.8633 192.172 89.8785 192.162 89.8964C192.153 89.9142 192.148 89.9341 192.147 89.9544C192.147 89.9747 192.152 89.9947 192.161 90.0128Z" fill="#751B40"/>
<path d="M193.975 89.7891L192.256 89.831C192.237 89.8333 192.218 89.8405 192.201 89.8518C192.185 89.8632 192.172 89.8785 192.162 89.8963C192.153 89.9142 192.148 89.9341 192.147 89.9543C192.147 89.9746 192.152 89.9946 192.161 90.0127C192.938 91.3546 194.016 91.8159 194.876 90.6417C194.663 90.2742 194.35 89.978 193.975 89.7891Z" fill="#9C2455"/>
</g>
<g clip-path="url(#clip0_26173_43411)">
<rect x="217.968" y="73.5869" width="33.0145" height="14.0915" rx="3.31898" fill="#BED3FF"/>
<rect x="253.733" y="79.2236" width="33.0145" height="8.45487" rx="3.31898" fill="#72767D"/>
</g>
<path d="M217.968 93.8161C217.968 91.983 219.454 90.4971 221.287 90.4971H346.707C348.54 90.4971 350.026 91.983 350.026 93.8161V126.634C350.026 128.467 348.54 129.953 346.707 129.953H221.287C219.454 129.953 217.968 128.467 217.968 126.634V93.8161Z" fill="#1C1B29"/>
<path d="M245.479 105.089C245.479 103.256 246.965 101.771 248.798 101.771H341.204C343.037 101.771 344.523 103.256 344.523 105.089V115.361C344.523 117.194 343.037 118.68 341.204 118.68H248.798C246.965 118.68 245.479 117.194 245.479 115.361V105.089Z" fill="#DCDDDE"/>
<mask id="mask2_26173_43411" style="mask-type:alpha" maskUnits="userSpaceOnUse" x="179" y="141" width="28" height="29">
<ellipse cx="193.206" cy="155.317" rx="13.7561" ry="14.0915" fill="#C4C4C4"/>
</mask>
<g mask="url(#mask2_26173_43411)">
<ellipse cx="193.206" cy="155.317" rx="13.7561" ry="14.0915" fill="#FFB869"/>
<path d="M186.148 159.92C187.754 165.639 194.212 169.601 199.394 165.863C204.575 162.126 199.43 154.463 199.43 154.463C199.43 154.463 202.24 147.212 195.198 145.492C188.155 143.773 186.404 146.913 186.148 159.92Z" fill="#4D7AE8"/>
<path d="M196.583 155.734C195.797 155.734 195.16 154.864 195.16 153.79C195.16 152.717 195.797 151.847 196.583 151.847C197.369 151.847 198.006 152.717 198.006 153.79C198.006 154.864 197.369 155.734 196.583 155.734Z" fill="#DBE7FF"/>
<path d="M197.194 155.266C196.993 155.252 196.851 154.924 196.877 154.532C196.903 154.141 197.087 153.835 197.288 153.849C197.489 153.863 197.631 154.192 197.605 154.583C197.579 154.974 197.395 155.28 197.194 155.266Z" fill="#201E2F"/>
<path d="M198.227 150.165C198.132 149.875 197.951 149.622 197.709 149.443C197.466 149.264 197.175 149.168 196.876 149.168C196.578 149.168 196.286 149.264 196.044 149.443C195.802 149.622 195.621 149.875 195.526 150.165H198.227Z" fill="#201E2F"/>
<path d="M198.081 158.425C196.694 158.799 195.198 158.462 193.957 157.079C193.795 156.89 193.568 156.772 193.323 156.751C193.078 156.73 192.834 156.808 192.644 156.967C192.436 157.111 192.293 157.334 192.245 157.586C192.197 157.838 192.249 158.099 192.388 158.313C194.286 161.49 197.241 161.976 199.066 160.182C199.191 160.066 199.284 159.919 199.335 159.755C199.386 159.591 199.394 159.416 199.358 159.247C199.332 159.104 199.278 158.968 199.199 158.848C199.119 158.727 199.016 158.625 198.896 158.548C198.776 158.47 198.641 158.419 198.501 158.398C198.36 158.377 198.217 158.386 198.081 158.425Z" fill="#590942"/>
<path d="M197.022 158.575C197.38 158.578 197.737 158.528 198.08 158.426H198.409V159.36C198.409 159.36 197.861 159.771 195.818 159.547V159.024L192.242 157.79C192.244 157.636 192.281 157.485 192.35 157.348C192.42 157.212 192.521 157.094 192.644 157.005C192.644 156.995 192.647 156.986 192.654 156.979C192.661 156.972 192.67 156.968 192.68 156.968C192.83 156.863 193.009 156.81 193.191 156.818C193.227 156.781 193.3 156.818 193.337 156.818H193.665C193.702 156.856 193.738 156.856 193.738 156.893C193.738 156.93 193.811 156.893 193.811 156.93L193.957 157.043C194.173 157.296 194.418 157.522 194.687 157.715L195.198 158.052C195.436 158.202 195.694 158.315 195.964 158.388C196.305 158.508 196.662 158.571 197.022 158.575Z" fill="#DBE7FF"/>
<path d="M192.644 156.967C192.644 156.957 192.647 156.948 192.654 156.941C192.661 156.934 192.67 156.93 192.68 156.93C192.83 156.825 193.009 156.772 193.191 156.78C193.227 156.743 193.3 156.78 193.337 156.78H193.665C193.702 156.818 193.738 156.818 193.738 156.855C193.738 156.892 193.811 156.855 193.811 156.892L193.957 157.005C194.072 157.16 194.207 157.298 194.359 157.416L193.337 158.051L192.242 157.677C192.254 157.536 192.297 157.399 192.366 157.277C192.435 157.154 192.53 157.048 192.644 156.967Z" fill="#B5CDFF"/>
<path d="M187.645 148.108C188.958 145.118 191.257 144.52 195.198 145.492C195.991 145.673 196.754 145.976 197.46 146.389C197.679 147.585 195.891 147.959 192.57 146.875C193.665 148.893 191.403 152.482 187.645 148.108Z" fill="#201E2F"/>
<path d="M192.241 145.38L192.424 142.913C192.44 142.688 192.409 142.462 192.332 142.25C192.255 142.038 192.135 141.846 191.979 141.686C191.823 141.527 191.636 141.403 191.429 141.325C191.222 141.246 191.002 141.214 190.782 141.231C190.534 141.245 190.294 141.321 190.081 141.452C189.868 141.582 189.689 141.764 189.56 141.981C189.431 142.197 189.355 142.443 189.339 142.697C189.323 142.95 189.367 143.204 189.468 143.436L190.563 145.978L192.241 145.38Z" fill="#201E2F"/>
<path d="M182.755 158.574L183.849 158.986L186.148 157.453V159.359L188.045 160.892C188.444 161.228 188.772 161.642 189.011 162.111C189.249 162.58 189.392 163.094 189.432 163.621L189.505 165.153C192.278 167.508 196.073 168.255 199.393 165.863C199.933 165.494 200.414 165.04 200.816 164.518L201.948 164.929C201.948 164.929 199.649 174.834 195.818 176.628C191.986 178.422 189.323 176.628 189.323 176.628C185.309 162.649 186.476 160.032 176.552 164.069L176.077 161.228L182.755 158.574Z" fill="#EF6767"/>
<path d="M190.71 154.127L183.485 147.212L182.828 148.072L188.411 158.724L190.71 154.127Z" fill="#4D7AE8"/>
<path d="M188.082 152.556L185.236 150.5L187.426 154.537L187.024 152.967L188.082 152.556Z" fill="#3366E0"/>
</g>
<g clip-path="url(#clip1_26173_43411)">
<rect x="217.968" y="141.226" width="39.8278" height="16.5949" rx="3.31898" fill="#FDD171"/>
<rect x="261.114" y="147.864" width="39.8278" height="9.95695" rx="3.31898" fill="#72767D"/>
</g>
<path d="M217.968 161.455C217.968 159.622 219.454 158.136 221.287 158.136H346.707C348.54 158.136 350.026 159.622 350.026 161.455V168.908C350.026 170.741 348.54 172.227 346.707 172.227H217.968V161.455Z" fill="#DCDDDE"/>
<path d="M217.968 172.228H283.997V183C283.997 184.833 282.511 186.319 280.678 186.319H221.287C219.454 186.319 217.968 184.833 217.968 183V172.228Z" fill="#DCDDDE"/>
<mask id="mask3_26173_43411" style="mask-type:alpha" maskUnits="userSpaceOnUse" x="179" y="197" width="28" height="29">
<ellipse cx="193.206" cy="211.683" rx="13.7561" ry="14.0915" fill="#C4C4C4"/>
</mask>
<g mask="url(#mask3_26173_43411)">
<ellipse cx="193.206" cy="211.683" rx="13.7561" ry="14.0915" fill="#FF82A6"/>
<path d="M201.018 200.855L200.978 200.975L200.856 201.268L200.815 201.388L200.72 201.601C198.638 206.495 194.676 210.116 192.05 212.633C189.331 215.226 186.275 217.425 182.97 219.165C179.716 220.773 178.257 219.354 178.634 216.646L178.967 215.285L180.605 208.428L180.675 208.095C181.783 203.626 183.467 201.054 188.904 199.638L197.177 197.522L197.204 197.509C200.093 196.782 202.095 197.761 201.018 200.855Z" fill="url(#paint1_linear_26173_43411)"/>
<path d="M200.191 197.55C197.569 198.01 192.646 201.253 187.755 206.002C182.864 210.751 179.117 215.983 178.768 218.543C179.22 219.904 180.627 220.321 182.984 219.166C186.287 217.428 189.341 215.231 192.059 212.64C194.683 210.126 198.643 206.508 200.724 201.618L200.819 201.405L200.86 201.285L200.981 200.992L201.022 200.872C201.662 199.06 201.245 197.979 200.191 197.55Z" fill="url(#paint2_linear_26173_43411)"/>
<path d="M192.339 210.883C197.071 206.282 200.22 201.81 199.372 200.894C198.524 199.979 194 202.966 189.268 207.567C184.536 212.168 181.387 216.64 182.235 217.555C183.083 218.471 187.607 215.483 192.339 210.883Z" fill="#6B3143"/>
<path d="M191.399 218.926L190.142 219.859C189.838 220.065 189.583 220.338 189.395 220.657C189.207 220.976 189.091 221.333 189.055 221.702L188.836 223.373L186.619 225.453C186.154 225.918 185.879 226.544 185.848 227.203L185.852 228.795C185.852 228.795 197.872 235.281 204.363 234.066C210.854 232.851 206.972 221.529 206.972 221.529C206.915 221.419 206.829 221.326 206.724 221.262C206.618 221.198 206.497 221.165 206.374 221.167L204.449 221.042L203.639 218.994C203.564 218.804 203.445 218.637 203.291 218.506C203.138 218.375 202.954 218.285 202.758 218.243L197.086 217.053L191.399 218.926Z" fill="#EF6270"/>
<path d="M191.632 222.3C189.906 221.975 190.024 222.016 190.52 221.201C190.804 220.697 191.218 220.282 191.716 220L191.632 222.3Z" fill="#BD3C53"/>
<path d="M194.34 205.962C194.132 205.734 192.38 207.016 190.437 208.861C188.493 210.706 187.09 212.379 187.297 212.607C189.6 216.204 191.13 219.625 191.593 222.321L201.029 224.152C200.568 215.6 196.679 209.774 194.34 205.962Z" fill="#FFB685"/>
<path d="M197.861 213.565C197.784 213.262 197.555 213.062 197.351 213.119C197.146 213.175 197.044 213.466 197.121 213.769C197.199 214.072 197.427 214.272 197.632 214.215C197.836 214.159 197.939 213.868 197.861 213.565Z" fill="#543247"/>
<path d="M194.768 215.359C194.916 215.14 194.811 214.803 194.534 214.607C194.256 214.41 193.91 214.428 193.762 214.647C193.613 214.866 193.718 215.203 193.996 215.4C194.274 215.597 194.619 215.578 194.768 215.359Z" fill="#543247"/>
<path d="M196.708 218.334C197.499 217.935 198.225 217.536 198.564 217.63C198.903 217.724 198.75 218.365 198.374 219.086C197.997 219.806 198.106 219.486 197.245 219.257C196.384 219.028 196.101 218.639 196.708 218.334Z" fill="#C74153"/>
<path d="M197.037 218.198L196.429 218.638C196.451 218.892 196.802 219.147 197.245 219.255C197.689 219.363 198.2 219.404 198.374 219.084L198.536 218.736C198.316 218.549 197.707 218.093 197.037 218.198Z" fill="#A82C3C"/>
<path d="M198.233 217.627C197.705 217.815 197.195 218.05 196.707 218.329C196.365 218.501 196.389 218.688 196.543 218.875L198.358 218.027C198.463 217.974 198.335 217.774 198.233 217.627Z" fill="white"/>
<path d="M200.521 215.097C200.535 215.058 200.509 215.004 200.523 214.964C200.494 214.694 200.382 214.441 200.205 214.24C200.027 214.039 199.792 213.9 199.532 213.842C199.594 213.899 199.644 213.97 199.675 214.05C199.707 214.13 199.72 214.216 199.714 214.302C199.707 214.388 199.682 214.472 199.639 214.547C199.596 214.622 199.538 214.686 199.467 214.735C199.214 214.884 198.93 214.97 198.64 214.986C198.261 215.032 197.896 215.161 197.57 215.366C197.244 215.57 196.966 215.844 196.754 216.168C195.421 216.112 194.951 216.977 194.003 217.455C193.747 217.591 193.472 217.685 193.188 217.733C192.258 217.904 192.106 217.517 192.087 216.997C191.055 217.848 191.693 219.049 192.486 219.344C192.954 219.572 193.583 219.454 194.244 218.922C195.873 219.326 196.452 219.1 197.402 217.53C198.953 217.907 199.955 217.269 200.041 215.803C200.172 215.735 200.284 215.635 200.368 215.511C200.452 215.388 200.505 215.246 200.521 215.097Z" fill="#6B3143"/>
<path d="M197.403 217.532C198.954 217.909 199.956 217.272 200.041 215.806C200.172 215.738 200.285 215.638 200.369 215.515C200.453 215.392 200.505 215.25 200.522 215.101C200.535 215.061 200.51 215.008 200.524 214.968C200.498 214.83 200.456 214.696 200.398 214.568C200.415 214.789 200.351 215.009 200.218 215.186C200.085 215.363 199.893 215.484 199.679 215.526C199.207 216.59 198.263 216.801 197.181 216.586C197.181 216.586 195.954 218.328 194.273 217.951C193.083 218.948 191.816 218.825 191.555 217.865C191.529 218.184 191.606 218.501 191.775 218.769C191.944 219.037 192.195 219.239 192.489 219.346C192.957 219.573 193.586 219.455 194.247 218.924C195.875 219.327 196.454 219.102 197.403 217.532Z" fill="#5E2737"/>
</g>
<g clip-path="url(#clip2_26173_43411)">
<rect x="217.968" y="197.592" width="33.0145" height="14.0915" rx="3.31898" fill="#FFA78B"/>
<rect x="253.733" y="203.229" width="33.0145" height="8.45487" rx="3.31898" fill="#72767D"/>
</g>
<path d="M217.968 217.821C217.968 215.988 219.454 214.502 221.287 214.502H346.707C348.54 214.502 350.026 215.988 350.026 217.821V225.274C350.026 227.107 348.54 228.593 346.707 228.593H221.287C219.454 228.593 217.968 227.107 217.968 225.274V217.821Z" fill="#DCDDDE"/>
<mask id="mask4_26173_43411" style="mask-type:alpha" maskUnits="userSpaceOnUse" x="179" y="239" width="28" height="30">
<ellipse cx="193.206" cy="253.958" rx="13.7561" ry="14.0915" fill="#C4C4C4"/>
</mask>
<g mask="url(#mask4_26173_43411)">
<ellipse cx="193.206" cy="253.958" rx="13.7561" ry="14.0915" fill="#F7E5BC"/>
<path d="M209.026 262.778L207.157 267.195C207.011 267.543 206.798 267.859 206.53 268.121C206.263 268.384 205.947 268.59 205.601 268.725C205.255 268.861 204.886 268.924 204.516 268.911C204.145 268.897 203.781 268.808 203.445 268.648L196.459 265.392L199.939 259.772L204.196 262.205L204.824 260.304C207.02 261.198 208.194 261.981 209.026 262.778Z" fill="#F7E5BC"/>
<path d="M200.907 260.639C203.718 261.114 203.977 261.715 204.728 263.225L201.712 262.875L200.907 260.639Z" fill="#F7E5BC"/>
<path d="M187.671 236.694C187.112 236.873 186.64 237.263 186.351 237.784C186.062 238.306 185.978 238.921 186.115 239.504L188.912 251.203L193.92 250.141L190.55 238.288C190.465 237.988 190.324 237.708 190.132 237.465C189.941 237.222 189.705 237.02 189.437 236.872C189.169 236.724 188.874 236.632 188.571 236.601C188.268 236.571 187.962 236.602 187.671 236.694Z" fill="#D6569B"/>
<path d="M190.455 248.464L192.434 248.38L190.332 241.335C190.303 241.234 190.254 241.14 190.188 241.059C190.122 240.978 190.04 240.912 189.948 240.864C189.856 240.817 189.755 240.79 189.652 240.784C189.549 240.779 189.446 240.795 189.35 240.832C189.181 240.898 189.041 241.026 188.958 241.191C188.875 241.356 188.854 241.547 188.9 241.726L190.455 248.464Z" fill="#E374B0"/>
<path d="M199.256 236.638C199.817 236.811 200.293 237.196 200.587 237.716C200.881 238.235 200.971 238.849 200.838 239.434L198.164 251.148L193.143 250.155L196.39 238.26C196.472 237.959 196.611 237.678 196.8 237.433C196.989 237.188 197.224 236.984 197.491 236.833C197.757 236.682 198.051 236.587 198.354 236.553C198.657 236.52 198.964 236.549 199.256 236.638Z" fill="#D6569B"/>
<path d="M197.359 248.436L195.395 248.367L197.414 241.294C197.443 241.193 197.492 241.099 197.558 241.018C197.625 240.937 197.707 240.872 197.799 240.826C197.892 240.78 197.993 240.754 198.096 240.75C198.199 240.747 198.301 240.765 198.396 240.805C198.565 240.868 198.706 240.993 198.791 241.155C198.877 241.317 198.901 241.506 198.86 241.685L197.359 248.436Z" fill="#E374B0"/>
<path d="M202.968 265.489L202.149 268.145L202.04 268.48L201.03 271.723H182.255C182.077 271.01 182.296 270.87 182.773 270.074C183.251 269.277 183.005 269.487 183.073 267.558C183.128 266.202 183.606 264.944 185.311 263.378C185.83 262.917 185.952 262.735 186.485 262.232L186.648 262.078L186.73 261.994L186.839 261.911L199.666 259.842L202.245 264.245L202.968 265.489Z" fill="#F7E5BC"/>
<path d="M202.149 268.145C202.067 269.417 201.958 270.619 201.821 271.723H188.026C188.04 271.15 188.053 270.437 188.081 269.57C188.078 269.477 188.083 269.384 188.094 269.291V268.215C187.999 265.657 187.289 263.909 185.311 263.378C185.679 263.001 186.061 262.623 186.484 262.232L186.648 262.078L186.839 261.911L199.665 259.842C200.675 260.219 201.344 260.485 202.108 261.282C202.19 262.288 202.231 263.28 202.244 264.245C202.258 265.601 202.217 266.901 202.149 268.145Z" fill="#1F3A70"/>
<path d="M200.918 254.31L186.031 254.92C184.072 255 182.547 256.693 182.625 258.7L182.626 258.705C182.704 260.712 184.356 262.274 186.315 262.194L201.202 261.584C203.162 261.504 204.686 259.812 204.608 257.805L204.608 257.799C204.529 255.792 202.877 254.23 200.918 254.31Z" fill="#F06EA8"/>
<path d="M200.141 247.549L185.676 248.17C183.605 248.259 181.997 250.051 182.084 252.172L182.089 252.299C182.176 254.42 183.925 256.067 185.995 255.978L200.46 255.357C202.531 255.268 204.139 253.477 204.052 251.356L204.047 251.229C203.96 249.108 202.211 247.46 200.141 247.549Z" fill="#F06EA8"/>
<path d="M201.153 261.463C203.063 261.38 204.632 259.8 204.632 257.843C204.639 257.132 204.44 256.434 204.061 255.837C203.683 255.241 203.141 254.771 202.504 254.489C202.984 254.114 203.368 253.626 203.625 253.066C203.881 252.506 204.002 251.891 203.977 251.274V251.148C203.956 250.643 203.838 250.147 203.63 249.689C203.422 249.231 203.127 248.819 202.763 248.478C202.4 248.136 201.974 247.872 201.51 247.699C201.046 247.526 200.554 247.449 200.061 247.472L187.153 248.031C185.993 250.309 186.157 252.755 187.016 254.516C187.142 254.783 187.212 255.073 187.224 255.369C187.236 255.665 187.188 255.96 187.084 256.236C185.843 259.618 187.48 262.065 187.48 262.065L201.153 261.463Z" fill="#E05FA3"/>
<path d="M190.73 254.61C191.058 254.391 191.076 253.825 190.771 253.347C190.465 252.869 189.952 252.66 189.624 252.879C189.296 253.099 189.278 253.665 189.583 254.143C189.889 254.621 190.402 254.83 190.73 254.61Z" fill="#1B1926"/>
<path d="M197.194 253.567C197.336 253.046 197.169 252.544 196.82 252.444C196.472 252.344 196.075 252.686 195.933 253.206C195.791 253.727 195.958 254.229 196.307 254.329C196.655 254.429 197.052 254.087 197.194 253.567Z" fill="#1B1926"/>
<path d="M192.161 256.291C193.061 257.857 194.385 258.22 195.272 256.193C195.282 256.175 195.288 256.154 195.287 256.133C195.286 256.112 195.28 256.092 195.269 256.074C195.257 256.057 195.241 256.043 195.223 256.034C195.204 256.026 195.183 256.023 195.163 256.026L192.256 256.109C192.237 256.112 192.218 256.119 192.201 256.13C192.185 256.142 192.172 256.157 192.162 256.175C192.153 256.193 192.148 256.212 192.147 256.233C192.147 256.253 192.152 256.273 192.161 256.291Z" fill="#751B40"/>
<path d="M193.975 256.067L192.256 256.109C192.237 256.112 192.218 256.119 192.201 256.13C192.185 256.142 192.172 256.157 192.162 256.175C192.153 256.192 192.148 256.212 192.147 256.233C192.147 256.253 192.152 256.273 192.161 256.291C192.938 257.633 194.016 258.094 194.876 256.92C194.663 256.553 194.35 256.256 193.975 256.067Z" fill="#9C2455"/>
</g>
<g clip-path="url(#clip3_26173_43411)">
<rect x="217.968" y="239.866" width="33.0145" height="14.0915" rx="3.31898" fill="#BED3FF"/>
<rect x="253.733" y="245.503" width="33.0145" height="8.45487" rx="3.31898" fill="#72767D"/>
</g>
<path d="M217.968 260.095C217.968 258.262 219.454 256.776 221.287 256.776H346.707C348.54 256.776 350.026 258.262 350.026 260.095V270.868H217.968V260.095Z" fill="#DCDDDE"/>
<path d="M217.968 270.868H350.026V281.641C350.026 283.474 348.54 284.96 346.707 284.96H221.287C219.454 284.96 217.968 283.474 217.968 281.641V270.868Z" fill="#DCDDDE"/>
<rect x="86.5977" y="43.29" width="62.59" height="16.9097" rx="3.31898" fill="#B9BBBE"/>
<rect x="86.5977" y="77.1094" width="57.0876" height="16.9097" rx="3.31898" fill="#B9BBBE"/>
<rect x="86.5977" y="110.929" width="62.59" height="16.9097" rx="3.31898" fill="#B9BBBE"/>
<rect x="86.5977" y="144.748" width="46.0828" height="16.9097" rx="3.31898" fill="#B9BBBE"/>
<rect x="86.5977" y="178.567" width="62.59" height="16.9097" rx="3.31898" fill="#B9BBBE"/>
</g>
<path d="M233.936 106.706C235.206 105.436 237.265 105.436 238.535 106.706L238.79 106.961C240.064 108.236 240.064 110.302 238.79 111.576L235.398 114.967C235.216 115.15 234.921 115.15 234.738 114.967C234.556 114.785 234.556 114.49 234.738 114.307L238.13 110.916C239.039 110.006 239.039 108.531 238.13 107.622L237.875 107.367C236.969 106.461 235.502 106.461 234.596 107.367L230.852 111.111C230.295 111.668 230.258 112.558 230.766 113.159C231.339 113.835 232.366 113.878 232.992 113.252L235.905 110.339C236.11 110.135 236.11 109.803 235.905 109.599C235.701 109.394 235.369 109.394 235.165 109.599L233.531 111.233C233.349 111.415 233.053 111.415 232.871 111.233C232.689 111.05 232.689 110.755 232.871 110.573L234.505 108.939C235.074 108.37 235.997 108.37 236.566 108.939C237.135 109.508 237.135 110.43 236.566 110.999L233.653 113.912C232.64 114.925 230.979 114.856 230.054 113.763C229.232 112.791 229.291 111.351 230.191 110.451L233.936 106.706Z" fill="#DCDDDE"/>
<path fill-rule="evenodd" clip-rule="evenodd" d="M70.3239 45.6094C70.3845 45.2462 70.1391 44.9027 69.7759 44.8422C69.4128 44.7817 69.0693 45.027 69.0087 45.3902L68.4349 48.8331H65.6663C65.2982 48.8331 64.9997 49.1315 64.9997 49.4997C64.9997 49.8679 65.2982 50.1664 65.6663 50.1664H68.2127L67.7683 52.8331H64.9997C64.6315 52.8331 64.333 53.1315 64.333 53.4997C64.333 53.8679 64.6315 54.1664 64.9997 54.1664H67.546L67.0087 57.3902C66.9482 57.7534 67.1936 58.0968 67.5567 58.1574C67.9199 58.2179 68.2634 57.9726 68.3239 57.6094L68.8978 54.1664H72.2127L71.6754 57.3902C71.6149 57.7534 71.8602 58.0968 72.2234 58.1574C72.5866 58.2179 72.9301 57.9726 72.9906 57.6094L73.5644 54.1664H76.333C76.7012 54.1664 76.9997 53.8679 76.9997 53.4997C76.9997 53.1315 76.7012 52.8331 76.333 52.8331H73.7867L74.2311 50.1664H76.9997C77.3679 50.1664 77.6663 49.8679 77.6663 49.4997C77.6663 49.1315 77.3679 48.8331 76.9997 48.8331H74.4533L74.9906 45.6094C75.0511 45.2462 74.8058 44.9027 74.4426 44.8422C74.0794 44.7817 73.7359 45.027 73.6754 45.3902L73.1016 48.8331H69.7867L70.3239 45.6094ZM72.4349 52.8331L72.8794 50.1664H69.5644L69.12 52.8331H72.4349Z" fill="#B5BAC1"/>
<path fill-rule="evenodd" clip-rule="evenodd" d="M186.324 40.6094C186.384 40.2462 186.139 39.9027 185.776 39.8422C185.413 39.7817 185.069 40.027 185.009 40.3902L184.435 43.8331H181.666C181.298 43.8331 181 44.1315 181 44.4997C181 44.8679 181.298 45.1664 181.666 45.1664H184.213L183.768 47.8331H181C180.631 47.8331 180.333 48.1315 180.333 48.4997C180.333 48.8679 180.631 49.1664 181 49.1664H183.546L183.009 52.3902C182.948 52.7534 183.194 53.0968 183.557 53.1574C183.92 53.2179 184.263 52.9726 184.324 52.6094L184.898 49.1664H188.213L187.675 52.3902C187.615 52.7534 187.86 53.0968 188.223 53.1574C188.587 53.2179 188.93 52.9726 188.991 52.6094L189.564 49.1664H192.333C192.701 49.1664 193 48.8679 193 48.4997C193 48.1315 192.701 47.8331 192.333 47.8331H189.787L190.231 45.1664H193C193.368 45.1664 193.666 44.8679 193.666 44.4997C193.666 44.1315 193.368 43.8331 193 43.8331H190.453L190.991 40.6094C191.051 40.2462 190.806 39.9027 190.443 39.8422C190.079 39.7817 189.736 40.027 189.675 40.3902L189.102 43.8331H185.787L186.324 40.6094ZM188.435 47.8331L188.879 45.1664H185.564L185.12 47.8331H188.435Z" fill="#B5BAC1"/>
<path fill-rule="evenodd" clip-rule="evenodd" d="M70.3239 79.6094C70.3845 79.2462 70.1391 78.9027 69.7759 78.8422C69.4128 78.7817 69.0693 79.027 69.0087 79.3902L68.4349 82.8331H65.6663C65.2982 82.8331 64.9997 83.1315 64.9997 83.4997C64.9997 83.8679 65.2982 84.1664 65.6663 84.1664H68.2127L67.7683 86.8331H64.9997C64.6315 86.8331 64.333 87.1315 64.333 87.4997C64.333 87.8679 64.6315 88.1664 64.9997 88.1664H67.546L67.0087 91.3902C66.9482 91.7534 67.1936 92.0968 67.5567 92.1574C67.9199 92.2179 68.2634 91.9726 68.3239 91.6094L68.8978 88.1664H72.2127L71.6754 91.3902C71.6149 91.7534 71.8602 92.0968 72.2234 92.1574C72.5866 92.2179 72.9301 91.9726 72.9906 91.6094L73.5644 88.1664H76.333C76.7012 88.1664 76.9997 87.8679 76.9997 87.4997C76.9997 87.1315 76.7012 86.8331 76.333 86.8331H73.7867L74.2311 84.1664H76.9997C77.3679 84.1664 77.6663 83.8679 77.6663 83.4997C77.6663 83.1315 77.3679 82.8331 76.9997 82.8331H74.4533L74.9906 79.6094C75.0511 79.2462 74.8058 78.9027 74.4426 78.8422C74.0794 78.7817 73.7359 79.027 73.6754 79.3902L73.1016 82.8331H69.7867L70.3239 79.6094ZM72.4349 86.8331L72.8794 84.1664H69.5644L69.12 86.8331H72.4349Z" fill="#B5BAC1"/>
<path fill-rule="evenodd" clip-rule="evenodd" d="M70.3239 113.609C70.3845 113.246 70.1391 112.903 69.7759 112.842C69.4128 112.782 69.0693 113.027 69.0087 113.39L68.4349 116.833H65.6663C65.2982 116.833 64.9997 117.132 64.9997 117.5C64.9997 117.868 65.2982 118.166 65.6663 118.166H68.2127L67.7683 120.833H64.9997C64.6315 120.833 64.333 121.132 64.333 121.5C64.333 121.868 64.6315 122.166 64.9997 122.166H67.546L67.0087 125.39C66.9482 125.753 67.1936 126.097 67.5567 126.157C67.9199 126.218 68.2634 125.973 68.3239 125.609L68.8978 122.166H72.2127L71.6754 125.39C71.6149 125.753 71.8602 126.097 72.2234 126.157C72.5866 126.218 72.9301 125.973 72.9906 125.609L73.5644 122.166H76.333C76.7012 122.166 76.9997 121.868 76.9997 121.5C76.9997 121.132 76.7012 120.833 76.333 120.833H73.7867L74.2311 118.166H76.9997C77.3679 118.166 77.6663 117.868 77.6663 117.5C77.6663 117.132 77.3679 116.833 76.9997 116.833H74.4533L74.9906 113.609C75.0511 113.246 74.8058 112.903 74.4426 112.842C74.0794 112.782 73.7359 113.027 73.6754 113.39L73.1016 116.833H69.7867L70.3239 113.609ZM72.4349 120.833L72.8794 118.166H69.5644L69.12 120.833H72.4349Z" fill="#B5BAC1"/>
<path fill-rule="evenodd" clip-rule="evenodd" d="M70.3239 147.609C70.3845 147.246 70.1391 146.903 69.7759 146.842C69.4128 146.782 69.0693 147.027 69.0087 147.39L68.4349 150.833H65.6663C65.2982 150.833 64.9997 151.132 64.9997 151.5C64.9997 151.868 65.2982 152.166 65.6663 152.166H68.2127L67.7683 154.833H64.9997C64.6315 154.833 64.333 155.132 64.333 155.5C64.333 155.868 64.6315 156.166 64.9997 156.166H67.546L67.0087 159.39C66.9482 159.753 67.1936 160.097 67.5567 160.157C67.9199 160.218 68.2634 159.973 68.3239 159.609L68.8978 156.166H72.2127L71.6754 159.39C71.6149 159.753 71.8602 160.097 72.2234 160.157C72.5866 160.218 72.9301 159.973 72.9906 159.609L73.5644 156.166H76.333C76.7012 156.166 76.9997 155.868 76.9997 155.5C76.9997 155.132 76.7012 154.833 76.333 154.833H73.7867L74.2311 152.166H76.9997C77.3679 152.166 77.6663 151.868 77.6663 151.5C77.6663 151.132 77.3679 150.833 76.9997 150.833H74.4533L74.9906 147.609C75.0511 147.246 74.8058 146.903 74.4426 146.842C74.0794 146.782 73.7359 147.027 73.6754 147.39L73.1016 150.833H69.7867L70.3239 147.609ZM72.4349 154.833L72.8794 152.166H69.5644L69.12 154.833H72.4349Z" fill="#B5BAC1"/>
<path fill-rule="evenodd" clip-rule="evenodd" d="M70.3239 181.609C70.3845 181.246 70.1391 180.903 69.7759 180.842C69.4128 180.782 69.0693 181.027 69.0087 181.39L68.4349 184.833H65.6663C65.2982 184.833 64.9997 185.132 64.9997 185.5C64.9997 185.868 65.2982 186.166 65.6663 186.166H68.2127L67.7683 188.833H64.9997C64.6315 188.833 64.333 189.132 64.333 189.5C64.333 189.868 64.6315 190.166 64.9997 190.166H67.546L67.0087 193.39C66.9482 193.753 67.1936 194.097 67.5567 194.157C67.9199 194.218 68.2634 193.973 68.3239 193.609L68.8978 190.166H72.2127L71.6754 193.39C71.6149 193.753 71.8602 194.097 72.2234 194.157C72.5866 194.218 72.9301 193.973 72.9906 193.609L73.5644 190.166H76.333C76.7012 190.166 76.9997 189.868 76.9997 189.5C76.9997 189.132 76.7012 188.833 76.333 188.833H73.7867L74.2311 186.166H76.9997C77.3679 186.166 77.6663 185.868 77.6663 185.5C77.6663 185.132 77.3679 184.833 76.9997 184.833H74.4533L74.9906 181.609C75.0511 181.246 74.8058 180.903 74.4426 180.842C74.0794 180.782 73.7359 181.027 73.6754 181.39L73.1016 184.833H69.7867L70.3239 181.609ZM72.4349 188.833L72.8794 186.166H69.5644L69.12 188.833H72.4349Z" fill="#B5BAC1"/>
<defs>
<linearGradient id="paint0_linear_26173_43411" x1="0.814453" y1="306.186" x2="527.186" y2="306.186" gradientUnits="userSpaceOnUse">
<stop stop-color="#CCCFDE"/>
<stop offset="0.89" stop-color="#D2D4E2"/>
<stop offset="1" stop-color="#D3D5E3"/>
</linearGradient>
<linearGradient id="paint1_linear_26173_43411" x1="189.325" y1="200.427" x2="190.676" y2="214.958" gradientUnits="userSpaceOnUse">
<stop stop-color="#FFC285"/>
<stop offset="1" stop-color="#DB8D6B"/>
</linearGradient>
<linearGradient id="paint2_linear_26173_43411" x1="177.245" y1="215.407" x2="203.313" y2="202.994" gradientUnits="userSpaceOnUse">
<stop stop-color="#D67569"/>
<stop offset="1" stop-color="#E39E7F"/>
</linearGradient>
<clipPath id="clip0_26173_43411">
<rect width="68.7803" height="14.0915" fill="white" transform="translate(217.968 73.5869)"/>
</clipPath>
<clipPath id="clip1_26173_43411">
<rect width="68.7803" height="14.0915" fill="white" transform="translate(217.968 141.226)"/>
</clipPath>
<clipPath id="clip2_26173_43411">
<rect width="68.7803" height="14.0915" fill="white" transform="translate(217.968 197.592)"/>
</clipPath>
<clipPath id="clip3_26173_43411">
<rect width="68.7803" height="14.0915" fill="white" transform="translate(217.968 239.866)"/>
</clipPath>
</defs>
</svg>
