<svg width="440" height="742" viewBox="0 0 440 742" fill="none" xmlns="http://www.w3.org/2000/svg">
<g clip-path="url(#clip0_26173_42682)">
<path d="M40.4705 741.396H283.073C302.69 741.396 318.592 725.465 318.592 705.814L318.592 98.2492C318.592 78.5979 302.69 62.6674 283.073 62.6674H40.4705C20.8541 62.6674 4.95187 78.5979 4.95187 98.2492L4.95187 705.814C4.95187 725.465 20.8541 741.396 40.4705 741.396Z" fill="#EF6767"/>
<path d="M283.072 62.5381H98.375V659.018C98.4316 672.098 103.643 684.626 112.876 693.875C122.108 703.124 134.614 708.345 147.67 708.402H318.59V98.3355C318.619 93.6447 317.721 88.9946 315.949 84.6527C314.176 80.3108 311.565 76.3628 308.264 73.0359C304.962 69.7089 301.037 67.0687 296.714 65.2671C292.391 63.4654 287.754 62.538 283.072 62.5381Z" fill="#E44A4A"/>
<path d="M4.95117 267.403H3.65959C2.68903 267.403 1.75822 267.017 1.07193 266.329C0.385647 265.642 9.48906e-05 264.709 9.48906e-05 263.737L9.48906e-05 226.861C9.48906e-05 225.889 0.385647 224.956 1.07193 224.269C1.75822 223.581 2.68903 223.195 3.65959 223.195H4.95117L4.95117 267.403Z" fill="#DE3C3C"/>
<path d="M4.95117 396.144C3.63806 396.144 2.37874 395.622 1.45023 394.691C0.521725 393.761 9.48906e-05 392.5 9.48906e-05 391.184L9.48906e-05 316.786C9.48906e-05 315.47 0.521725 314.209 1.45023 313.279C2.37874 312.349 3.63806 311.826 4.95117 311.826V311.826L4.95117 396.144Z" fill="#11111A"/>
<path d="M113.659 86.9062H50.3713C38.7203 86.9062 29.2754 96.368 29.2754 108.04V171.375C29.2754 183.047 38.7203 192.509 50.3713 192.509H113.659C125.31 192.509 134.755 183.047 134.755 171.375V108.04C134.755 96.368 125.31 86.9062 113.659 86.9062Z" fill="#11111A"/>
<path d="M108.493 175.106C110.276 175.106 111.722 173.657 111.722 171.871C111.722 170.084 110.276 168.636 108.493 168.636C106.709 168.636 105.264 170.084 105.264 171.871C105.264 173.657 106.709 175.106 108.493 175.106Z" fill="#08080D"/>
<path d="M82.0149 121.841C90.0992 121.841 96.6529 115.275 96.6529 107.177C96.6529 99.078 90.0992 92.5127 82.0149 92.5127C73.9306 92.5127 67.377 99.078 67.377 107.177C67.377 115.275 73.9306 121.841 82.0149 121.841Z" fill="#08080D"/>
<path d="M82.0158 117.312C87.6035 117.312 92.1333 112.775 92.1333 107.177C92.1333 101.579 87.6035 97.0415 82.0158 97.0415C76.4282 97.0415 71.8984 101.579 71.8984 107.177C71.8984 112.775 76.4282 117.312 82.0158 117.312Z" fill="#1E1E2E"/>
<path d="M82.0164 112.568C84.9885 112.568 87.398 110.154 87.398 107.177C87.398 104.199 84.9885 101.786 82.0164 101.786C79.0442 101.786 76.6348 104.199 76.6348 107.177C76.6348 110.154 79.0442 112.568 82.0164 112.568Z" fill="#050508"/>
<path d="M86.105 162.167H77.925C74.8339 162.167 72.3281 164.677 72.3281 167.774V175.947C72.3281 179.043 74.8339 181.554 77.925 181.554H86.105C89.1961 181.554 91.7019 179.043 91.7019 175.947V167.774C91.7019 164.677 89.1961 162.167 86.105 162.167Z" fill="#21212E"/>
<path d="M52.5247 154.404C60.609 154.404 67.1627 147.838 67.1627 139.74C67.1627 131.641 60.609 125.076 52.5247 125.076C44.4404 125.076 37.8867 131.641 37.8867 139.74C37.8867 147.838 44.4404 154.404 52.5247 154.404Z" fill="#08080D"/>
<path d="M52.5237 149.875C58.1114 149.875 62.6411 145.337 62.6411 139.739C62.6411 134.142 58.1114 129.604 52.5237 129.604C46.936 129.604 42.4062 134.142 42.4062 139.739C42.4062 145.337 46.936 149.875 52.5237 149.875Z" fill="#1E1E2E"/>
<path d="M52.5242 145.131C55.4964 145.131 57.9058 142.717 57.9058 139.74C57.9058 136.762 55.4964 134.349 52.5242 134.349C49.552 134.349 47.1426 136.762 47.1426 139.74C47.1426 142.717 49.552 145.131 52.5242 145.131Z" fill="#050508"/>
<path d="M108.493 154.404C116.578 154.404 123.131 147.838 123.131 139.74C123.131 131.641 116.578 125.076 108.493 125.076C100.409 125.076 93.8555 131.641 93.8555 139.74C93.8555 147.838 100.409 154.404 108.493 154.404Z" fill="#08080D"/>
<path d="M108.492 149.875C114.08 149.875 118.61 145.337 118.61 139.739C118.61 134.142 114.08 129.604 108.492 129.604C102.905 129.604 98.375 134.142 98.375 139.739C98.375 145.337 102.905 149.875 108.492 149.875Z" fill="#1E1E2E"/>
<path d="M108.493 145.131C111.465 145.131 113.875 142.717 113.875 139.74C113.875 136.762 111.465 134.349 108.493 134.349C105.521 134.349 103.111 136.762 103.111 139.74C103.111 142.717 105.521 145.131 108.493 145.131Z" fill="#050508"/>
<path d="M399.53 0H156.927C137.31 0 121.408 15.9305 121.408 35.5818V643.146C121.408 662.798 137.31 678.728 156.927 678.728H399.53C419.146 678.728 435.048 662.798 435.048 643.146V35.5818C435.048 15.9305 419.146 0 399.53 0Z" fill="#0C0C12"/>
<path d="M399.314 6.46958C407.042 6.46937 414.456 9.52966 419.94 14.9832C425.424 20.4367 428.533 27.8411 428.59 35.582V643.06C428.59 646.902 427.832 650.705 426.358 654.251C424.884 657.797 422.724 661.016 420.003 663.722C417.281 666.429 414.052 668.569 410.501 670.019C406.951 671.469 403.149 672.201 399.314 672.173H156.927C149.219 672.173 141.828 669.106 136.378 663.646C130.928 658.186 127.866 650.781 127.866 643.06V35.582C127.922 27.8783 131.002 20.5062 136.44 15.0588C141.878 9.61133 149.237 6.52602 156.927 6.46958H399.314ZM399.314 0.000165257H156.927C152.262 0.000165257 147.644 0.920516 143.334 2.70867C139.025 4.49682 135.11 7.11776 131.811 10.4218C128.513 13.7259 125.897 17.6484 124.112 21.9654C122.327 26.2824 121.408 30.9093 121.408 35.582V643.06C121.408 647.733 122.327 652.36 124.112 656.677C125.897 660.994 128.513 664.916 131.811 668.22C135.11 671.524 139.025 674.145 143.334 675.934C147.644 677.722 152.262 678.642 156.927 678.642H399.314C403.997 678.671 408.639 677.771 412.973 675.996C417.307 674.22 421.248 671.604 424.569 668.297C427.89 664.99 430.526 661.058 432.324 656.727C434.122 652.396 435.048 647.751 435.048 643.06V35.582C435.048 30.8911 434.122 26.2465 432.324 21.9154C430.526 17.5843 427.89 13.6522 424.569 10.3453C421.248 7.03837 417.307 4.42194 412.973 2.64652C408.639 0.871103 403.997 -0.0282643 399.314 0.000165257Z" fill="#FF9191"/>
<mask id="mask0_26173_42682" style="mask-type:alpha" maskUnits="userSpaceOnUse" x="137" y="38" width="283" height="622">
<path d="M394.462 38.7114H161.546C147.993 38.7114 137.006 49.718 137.006 63.2952V634.588C137.006 648.165 147.993 659.172 161.546 659.172H394.462C408.015 659.172 419.002 648.165 419.002 634.588V63.2952C419.002 49.718 408.015 38.7114 394.462 38.7114Z" fill="#36393F"/>
</mask>
<g mask="url(#mask0_26173_42682)">
<path d="M345.28 57.1875H112.364C98.8112 57.1875 87.8242 68.194 87.8242 81.7713V653.064C87.8242 666.641 98.8112 677.648 112.364 677.648H345.28C358.833 677.648 369.82 666.641 369.82 653.064V81.7713C369.82 68.194 358.833 57.1875 345.28 57.1875Z" fill="#36393F"/>
<g clip-path="url(#clip1_26173_42682)">
<rect x="135.25" y="34.5" width="323.194" height="512.927" rx="8" fill="#292841"/>
<path d="M191.792 81.263C191.792 79.7476 190.931 79.1813 188.736 78.6484C187.471 78.332 187.155 78.0822 187.155 77.6492C187.155 77.2162 187.541 76.9165 188.332 76.9165C189.175 76.9165 190.176 77.1996 191.019 77.6492L191.3 75.9839C190.457 75.6341 189.438 75.4177 188.332 75.4177C186.364 75.4177 185.205 76.4002 185.205 77.7991C185.205 79.2646 186.066 79.8308 188.121 80.3304C189.473 80.6468 189.842 80.88 189.842 81.4462C189.842 81.9791 189.35 82.2955 188.437 82.2955C187.383 82.2955 186.259 81.9125 185.345 81.3463L185.064 83.0116C185.872 83.428 187.137 83.7944 188.367 83.7944C190.597 83.7944 191.792 82.8451 191.792 81.263Z" fill="white"/>
<path d="M197.995 83.6278L197.732 81.9458C197.539 81.9958 197.31 82.0124 197.064 82.0124C196.256 82.0124 195.958 81.6627 195.958 81.0132V77.2162H197.943L197.679 75.5842H195.958V72.7364L193.867 73.0362V75.5842H192.673V77.2162H193.867V81.3463C193.867 83.1782 194.992 83.761 196.66 83.761C197.275 83.761 197.661 83.6944 197.995 83.6278Z" fill="white"/>
<path d="M199.534 75.5842V81.3629C199.534 82.8784 200.36 83.7944 201.958 83.7944C203.082 83.7944 203.996 83.2115 204.786 82.4954L204.979 83.6278H206.771V75.5842H204.663V81.0132C204.048 81.6127 203.381 82.0124 202.731 82.0124C201.958 82.0124 201.642 81.5461 201.642 80.8467V75.5842H199.534Z" fill="white"/>
<path d="M210.621 79.7142C210.621 77.949 211.412 77.0997 212.518 77.0997C213.239 77.0997 213.643 77.2162 214.17 77.4494V80.8966C213.608 81.5794 213.01 82.0124 212.237 82.0124C211.307 82.0124 210.621 81.2797 210.621 79.7142ZM208.496 79.8308C208.496 82.5453 209.919 83.7944 211.693 83.7944C212.87 83.7944 213.695 83.1948 214.293 82.512L214.468 83.6278H216.277V71.604L214.17 71.9204V75.8007C213.66 75.6341 213.01 75.5009 212.202 75.5009C210.235 75.5009 208.496 76.8332 208.496 79.8308Z" fill="white"/>
<path d="M219.316 86.6588C220.845 86.6588 221.828 86.0759 222.548 84.1441L225.798 75.5842H223.672L221.775 81.2464L219.843 75.4676L217.648 75.7341L220.722 83.6112L220.651 83.8443C220.37 84.7103 219.808 85.0101 219.106 85.0101C218.737 85.0101 218.438 84.9601 218.175 84.8935L218.456 86.5755C218.649 86.6254 218.86 86.6588 219.316 86.6588Z" fill="white"/>
<path d="M231.249 79.7975V77.8657H226.683V79.7975H231.249Z" fill="white"/>
<path d="M237.74 78.1988C237.74 79.0814 237.178 79.7309 236.247 79.7309C235.334 79.7309 234.772 79.0981 234.772 78.2654C234.772 77.3828 235.316 76.7 236.247 76.7C237.143 76.7 237.74 77.3495 237.74 78.1988ZM240.744 83.9609C240.744 82.7285 239.655 82.2123 237.916 81.9791L236.827 81.8792C235.509 81.696 235.246 81.6294 235.246 81.3629C235.246 81.2297 235.386 81.0798 235.597 80.93C235.808 80.9633 236.036 80.9799 236.282 80.9799C238.109 80.9799 239.672 79.9474 239.672 78.2154C239.672 77.8491 239.602 77.4827 239.444 77.1663L240.989 77.0663L240.708 75.4676L238.636 76.1671C238.021 75.6841 237.213 75.4177 236.229 75.4177C234.332 75.4177 232.822 76.5001 232.822 78.2654C232.822 79.3312 233.419 80.1639 234.42 80.6135C233.718 81.0132 233.349 81.4462 233.349 81.8959C233.349 82.2123 233.507 82.512 233.841 82.7618C232.787 83.3281 232.242 83.9109 232.242 84.6603C232.242 85.9926 233.981 86.6588 236.282 86.6588C238.741 86.6588 240.744 85.6928 240.744 83.9609ZM236.423 85.4764C234.824 85.4764 234.069 85.0434 234.069 84.4438C234.069 84.0275 234.35 83.6445 234.965 83.2281C235.386 83.3114 235.65 83.3614 236.229 83.428L237.371 83.5612C238.425 83.7111 238.794 83.9609 238.794 84.3939C238.794 84.9934 237.933 85.4764 236.423 85.4764Z" fill="white"/>
<path d="M247.358 77.3994L247.024 75.4177C245.707 75.4843 244.864 76.267 244.301 77.1996L244.038 75.5842H242.246V83.6278H244.354V79.0148C244.969 78.1488 246.04 77.4827 247.358 77.3994Z" fill="white"/>
<path d="M256.026 79.5977C256.026 76.9831 254.34 75.4177 252.021 75.4177C249.72 75.4177 248.034 76.9997 248.034 79.6143C248.034 82.2289 249.702 83.7944 252.003 83.7944C254.322 83.7944 256.026 82.2123 256.026 79.5977ZM253.971 79.6143C253.971 81.1131 253.303 82.1623 252.003 82.1623C250.774 82.1623 250.089 81.0798 250.089 79.5977C250.089 78.1155 250.756 77.0497 252.003 77.0497C253.268 77.0497 253.971 78.1322 253.971 79.6143Z" fill="white"/>
<path d="M257.701 75.5842V81.3629C257.701 82.8784 258.526 83.7944 260.124 83.7944C261.249 83.7944 262.162 83.2115 262.952 82.4954L263.146 83.6278H264.937V75.5842H262.829V81.0132C262.215 81.6127 261.547 82.0124 260.897 82.0124C260.124 82.0124 259.808 81.5461 259.808 80.8467V75.5842H257.701Z" fill="white"/>
<path d="M272.74 79.4978C272.74 81.263 271.915 82.1124 270.825 82.1124C270.105 82.1124 269.701 81.9958 269.192 81.7626V78.3154C269.754 77.6326 270.351 77.1829 271.107 77.1829C272.055 77.1829 272.74 77.949 272.74 79.4978ZM274.865 79.3812C274.865 76.6833 273.443 75.4177 271.669 75.4177C270.492 75.4177 269.666 76.0338 269.069 76.6833L268.876 75.5842H267.084V86.7254L269.192 86.4256V83.3947C269.701 83.5779 270.351 83.7111 271.159 83.7111C273.109 83.7111 274.865 82.3788 274.865 79.3812Z" fill="white"/>
<mask id="mask1_26173_42682" style="mask-type:alpha" maskUnits="userSpaceOnUse" x="156" y="110" width="36" height="34">
<ellipse cx="173.893" cy="126.927" rx="17.5649" ry="16.6535" fill="#C4C4C4"/>
</mask>
<g mask="url(#mask1_26173_42682)">
<ellipse cx="173.893" cy="126.927" rx="17.5649" ry="16.6535" fill="#CFDEFF"/>
<path d="M193.45 149.356C193.113 148.57 192.56 147.884 191.85 147.371C191.141 146.858 190.302 146.538 189.423 146.445L187.588 146.248C184.894 137.152 186.209 135.099 178.427 133.014L172.139 132.763C172.139 132.763 165.751 132.827 163.422 135.826L166.78 146.164C166.78 146.164 165.483 153.004 166.119 156.48L174.301 155.517L177.928 166.539C191.295 164.719 197.486 158.816 197.486 158.816L193.45 149.356Z" fill="#CFDEFF"/>
<path d="M164.918 133.612C173.914 141.691 182.031 147.224 180.582 134.557L164.918 133.612Z" fill="#B8C5FF"/>
<path d="M169.32 134.587C177.137 138.149 179.169 139.487 178.629 135.261L169.32 134.587Z" fill="#5697B0"/>
<path d="M186.176 140.509C185.206 136.693 184.487 135.046 180.512 133.646C181.595 136.046 182.095 140.989 182.095 140.989L186.176 140.509Z" fill="white"/>
<path d="M172.811 122.104L172.511 119.99C172.411 119.301 172.084 118.657 171.579 118.152C171.074 117.647 170.416 117.306 169.701 117.18V117.18C168.915 117.044 168.108 117.177 167.422 117.555C166.735 117.933 166.212 118.532 165.945 119.247C164.963 121.842 163.429 126.018 162.376 129.53C160.7 135.127 168.472 136.472 176.095 135.961C183.719 135.449 184.415 132.254 183.327 127.616C182.63 124.723 181.752 121.768 181.204 119.932C181.037 119.419 180.718 118.962 180.287 118.617C179.856 118.271 179.33 118.052 178.775 117.986V117.986C178.152 117.913 177.525 118.04 176.991 118.347C176.458 118.655 176.049 119.124 175.828 119.683L174.986 121.848L172.811 122.104Z" fill="#7CE4CC"/>
<path d="M182.311 129.777L181.767 129.592L178.99 130.499L176.161 130.832L171.249 129.864C171.249 129.864 168.523 125.849 168.75 130.296C168.926 133.368 170.299 135.139 171.133 135.952C172.78 136.035 174.43 136.016 176.072 135.896C177.312 135.837 178.539 135.646 179.731 135.327C180.551 134.209 181.87 132.148 182.311 129.777Z" fill="#AAFAE7"/>
<path opacity="0.74" d="M168.661 129.993C168.023 128.31 166.864 124.765 167.316 122.102C167.769 119.439 168.374 117.252 169.659 117.238C168.877 117.102 168.073 117.235 167.39 117.612C166.706 117.989 166.185 118.586 165.919 119.299C164.942 121.887 163.415 126.05 162.367 129.553C160.871 134.537 166.9 136.134 173.636 136.055C172.172 135.815 170.304 134.332 168.661 129.993Z" fill="url(#paint0_linear_26173_42682)"/>
<path d="M173.635 136.016L173.093 136.025L172.578 136.03L171.771 135.988L171.518 136.018L171.112 135.983C170.286 135.201 168.92 133.438 168.745 130.38C168.733 130.325 168.735 130.268 168.75 130.214C170.364 134.34 172.202 135.8 173.635 136.016Z" fill="#AAFAE7"/>
<path d="M181.664 129.306L181.664 129.93C178.694 131.792 178.213 132.309 170.51 129.936L170.428 129.355L170.761 129.447C177.281 131.073 178.526 131.221 181.664 129.306Z" fill="#2C4661"/>
<path d="M169.911 131.686C170.91 131.426 171.461 130.344 171.141 129.269C170.821 128.195 169.751 127.535 168.751 127.795C167.752 128.055 167.201 129.137 167.521 130.212C167.841 131.286 168.911 131.946 169.911 131.686Z" fill="#738EFF"/>
<path d="M183.122 129.465C183.321 128.543 183.027 127.703 182.464 127.589C181.902 127.475 181.284 128.13 181.085 129.052C180.885 129.974 181.18 130.813 181.742 130.927C182.304 131.041 182.922 130.386 183.122 129.465Z" fill="#738EFF"/>
<path opacity="0.41" d="M175.482 127.683C175.339 127.48 175.578 127.342 175.768 127.264C175.844 127.237 175.929 127.233 176.009 127.253C176.089 127.273 176.16 127.316 176.214 127.377L176.945 128.282C177.157 128.56 176.843 128.57 176.529 128.386C176.216 128.203 175.702 128.015 175.482 127.683Z" fill="#284E7A"/>
<path opacity="0.41" d="M178.745 128.112L178.961 127.62C178.999 127.536 179.01 127.442 178.992 127.351C178.974 127.26 178.928 127.176 178.861 127.11L178.761 127.012C178.752 127.001 178.74 126.993 178.727 126.989C178.713 126.984 178.699 126.982 178.685 126.984C178.671 126.985 178.658 126.99 178.647 126.998C178.635 127.006 178.626 127.016 178.62 127.028C178.488 127.379 178.386 127.74 178.315 128.108C178.285 128.496 178.538 128.467 178.745 128.112Z" fill="#284E7A"/>
<path d="M175.6 122.321L172.867 122.118L175.046 121.862L175.89 119.691C176.111 119.131 176.521 118.66 177.056 118.352C177.59 118.044 178.219 117.916 178.842 117.989V117.989L179.375 118.092C178.076 117.859 177.646 119.291 177.403 121.032C177.279 121.986 177.32 122.478 175.6 122.321Z" fill="#61C7C7"/>
<path d="M180.704 121.921C180.703 121.264 180.238 120.727 179.665 120.72C179.092 120.713 178.627 121.24 178.628 121.897C178.628 122.553 179.094 123.091 179.667 123.097C180.24 123.104 180.704 122.577 180.704 121.921Z" fill="#21354A"/>
<path d="M171.061 121.525C171.125 120.871 170.714 120.296 170.143 120.24C169.572 120.183 169.057 120.667 168.993 121.321C168.929 121.975 169.34 122.55 169.911 122.606C170.482 122.663 170.997 122.178 171.061 121.525Z" fill="#21354A"/>
<path d="M166.755 146.28C167.934 146.306 169.437 146.185 170.777 146.137C170.749 145.624 170.791 145.11 170.905 144.609C171.104 143.768 171.413 142.955 171.824 142.19C170.75 142.096 169.446 142.002 168.38 141.962C168.122 136.903 165.324 134.151 163.801 135.541C163.079 136.198 162.643 137.093 162.579 138.051C162.546 138.825 162.637 140.08 162.591 140.36C162.464 141.283 161.786 141.555 162.631 143.272C163.068 144.128 162.276 146.229 166.755 146.28Z" fill="white"/>
<path d="M170.416 117.422C171.508 118.089 171.793 119.702 171.885 120.351C171.976 120.999 172.14 122.16 172.182 122.457C172.224 122.754 172.323 122.852 173.357 123.306C174.391 123.761 173.958 123.318 173.485 122.797L172.849 122.131L172.552 120.025C172.468 119.45 172.226 118.905 171.85 118.447C171.475 117.99 170.979 117.635 170.416 117.422V117.422Z" fill="#D4FFDC"/>
<path d="M180.1 121.125C180.493 121.271 180.587 122.14 180.196 121.801C179.804 121.462 179.559 120.941 180.1 121.125Z" fill="#335A70"/>
<path d="M170.559 120.623C170.923 120.772 171.022 121.668 170.654 121.299C170.287 120.929 169.989 120.442 170.559 120.623Z" fill="#335A70"/>
<path d="M170.486 130.558C170.861 130.371 170.886 129.723 170.543 129.111C170.2 128.499 169.619 128.154 169.244 128.341C168.869 128.528 168.843 129.176 169.186 129.788C169.529 130.4 170.111 130.745 170.486 130.558Z" fill="#B2A6FF"/>
<path d="M183.084 128.726C183.081 128.292 182.901 127.94 182.682 127.938C182.463 127.937 182.287 128.287 182.29 128.721C182.293 129.154 182.473 129.507 182.692 129.509C182.911 129.51 183.086 129.16 183.084 128.726Z" fill="#B2A6FF"/>
<path d="M180.197 118.868C180.809 119.346 180.988 120.204 180.3 119.598C179.613 118.991 179.457 118.295 180.197 118.868Z" fill="#D4FFDC"/>
</g>
<g clip-path="url(#clip2_26173_42682)">
<rect x="205.51" y="110.273" width="42.1557" height="16.6535" rx="4" fill="#2DDFB4"/>
<rect x="251.179" y="116.935" width="42.1557" height="9.99209" rx="4" fill="#72767D"/>
</g>
<path d="M205.51 134.258C205.51 132.049 207.301 130.258 209.51 130.258H327.977C330.186 130.258 331.977 132.049 331.977 134.258V142.911C331.977 145.12 330.186 146.911 327.977 146.911H205.51V134.258Z" fill="#DCDDDE"/>
<mask id="mask2_26173_42682" style="mask-type:alpha" maskUnits="userSpaceOnUse" x="156" y="160" width="36" height="34">
<ellipse cx="173.893" cy="176.887" rx="17.5649" ry="16.6535" fill="#C4C4C4"/>
</mask>
<g mask="url(#mask2_26173_42682)">
<ellipse cx="173.893" cy="176.887" rx="17.5649" ry="16.6535" fill="#F7E5BC"/>
<path d="M194.092 187.312L191.705 192.532C191.518 192.944 191.246 193.317 190.905 193.627C190.564 193.938 190.16 194.18 189.718 194.341C189.276 194.501 188.805 194.575 188.332 194.56C187.859 194.544 187.395 194.439 186.966 194.25L178.045 190.401L182.488 183.76L187.924 186.635L188.725 184.388C191.531 185.445 193.029 186.37 194.092 187.312Z" fill="#F7E5BC"/>
<path d="M183.726 184.784C187.315 185.346 187.646 186.056 188.604 187.84L184.754 187.427L183.726 184.784Z" fill="#F7E5BC"/>
<path d="M166.824 156.487C166.11 156.698 165.508 157.158 165.139 157.775C164.77 158.392 164.663 159.118 164.838 159.807L168.41 173.634L174.804 172.378L170.501 158.37C170.393 158.016 170.212 157.685 169.968 157.398C169.724 157.11 169.422 156.872 169.079 156.697C168.737 156.522 168.361 156.413 167.974 156.377C167.587 156.341 167.196 156.378 166.824 156.487V156.487Z" fill="#D6569B"/>
<path d="M170.379 170.396L172.905 170.297L170.222 161.971C170.185 161.851 170.122 161.74 170.038 161.644C169.953 161.549 169.849 161.471 169.731 161.415C169.613 161.359 169.485 161.327 169.353 161.32C169.222 161.314 169.091 161.333 168.967 161.376V161.376C168.751 161.455 168.573 161.606 168.467 161.801C168.361 161.996 168.334 162.221 168.392 162.433L170.379 170.396Z" fill="#E374B0"/>
<path d="M181.617 156.421C182.334 156.625 182.941 157.08 183.317 157.693C183.692 158.307 183.807 159.033 183.638 159.724L180.223 173.568L173.812 172.395L177.958 158.337C178.062 157.981 178.24 157.649 178.482 157.359C178.723 157.07 179.023 156.829 179.363 156.65C179.704 156.472 180.079 156.36 180.466 156.32C180.853 156.281 181.244 156.315 181.617 156.421V156.421Z" fill="#D6569B"/>
<path d="M179.195 170.363L176.687 170.28L179.265 161.921C179.302 161.802 179.365 161.691 179.449 161.596C179.534 161.5 179.639 161.423 179.757 161.369C179.875 161.314 180.004 161.284 180.136 161.279C180.267 161.275 180.398 161.297 180.52 161.343V161.343C180.735 161.418 180.915 161.565 181.024 161.757C181.133 161.949 181.164 162.172 181.112 162.384L179.195 170.363Z" fill="#E374B0"/>
<path d="M186.356 190.517L185.311 193.655L185.171 194.052L183.882 197.884H159.907C159.681 197.042 159.96 196.877 160.569 195.935C161.179 194.993 160.866 195.241 160.953 192.961C161.022 191.359 161.632 189.872 163.81 188.022C164.472 187.477 164.629 187.262 165.309 186.668L165.518 186.486L165.622 186.387L165.762 186.288L182.14 183.843L185.433 189.046L186.356 190.517Z" fill="#F7E5BC"/>
<path d="M185.311 193.655C185.206 195.158 185.067 196.579 184.893 197.884H167.278C167.295 197.207 167.313 196.364 167.347 195.34C167.345 195.23 167.35 195.119 167.365 195.01V193.738C167.243 190.715 166.337 188.65 163.811 188.022C164.281 187.576 164.769 187.13 165.309 186.668L165.518 186.486L165.762 186.288L182.14 183.843C183.429 184.289 184.283 184.603 185.259 185.544C185.363 186.734 185.416 187.907 185.433 189.046C185.45 190.649 185.398 192.185 185.311 193.655Z" fill="#1F3A70"/>
<path d="M183.739 177.304L164.73 178.025C162.228 178.12 160.281 180.12 160.381 182.492L160.382 182.498C160.482 184.87 162.591 186.717 165.093 186.622L184.102 185.901C186.604 185.806 188.551 183.806 188.451 181.434L188.45 181.427C188.35 179.055 186.241 177.209 183.739 177.304Z" fill="#F06EA8"/>
<path d="M182.746 169.314L164.276 170.048C161.633 170.153 159.579 172.27 159.69 174.777L159.697 174.927C159.807 177.434 162.04 179.381 164.684 179.276L183.154 178.542C185.798 178.437 187.852 176.32 187.741 173.813L187.734 173.663C187.623 171.156 185.39 169.209 182.746 169.314Z" fill="#F06EA8"/>
<path d="M184.039 185.759C186.478 185.659 188.482 183.793 188.482 181.48C188.49 180.639 188.236 179.815 187.753 179.109C187.27 178.404 186.578 177.85 185.764 177.515C186.377 177.072 186.868 176.496 187.195 175.834C187.523 175.173 187.677 174.446 187.646 173.716V173.567C187.619 172.971 187.468 172.385 187.202 171.843C186.936 171.302 186.56 170.815 186.096 170.412C185.631 170.008 185.087 169.696 184.495 169.492C183.903 169.287 183.274 169.196 182.645 169.223L166.163 169.884C164.682 172.576 164.891 175.467 165.988 177.549C166.148 177.864 166.239 178.206 166.254 178.556C166.269 178.905 166.208 179.254 166.075 179.58C164.49 183.578 166.581 186.469 166.581 186.469L184.039 185.759Z" fill="#E05FA3"/>
<path d="M170.73 177.661C171.148 177.401 171.172 176.733 170.782 176.168C170.392 175.603 169.736 175.355 169.318 175.615C168.899 175.875 168.876 176.543 169.266 177.108C169.655 177.673 170.311 177.921 170.73 177.661Z" fill="#1B1926"/>
<path d="M178.985 176.427C179.166 175.812 178.952 175.218 178.507 175.1C178.063 174.982 177.555 175.385 177.374 176.001C177.193 176.616 177.407 177.21 177.851 177.327C178.296 177.445 178.804 177.042 178.985 176.427Z" fill="#1B1926"/>
<path d="M172.557 179.647C173.707 181.497 175.397 181.926 176.529 179.531C176.543 179.51 176.55 179.485 176.549 179.46C176.548 179.435 176.54 179.411 176.525 179.39C176.511 179.37 176.49 179.353 176.467 179.343C176.443 179.333 176.416 179.329 176.39 179.333L172.679 179.432C172.654 179.435 172.63 179.443 172.609 179.457C172.588 179.47 172.571 179.488 172.559 179.509C172.547 179.53 172.54 179.554 172.54 179.578C172.54 179.602 172.546 179.625 172.557 179.647Z" fill="#751B40"/>
<path d="M174.874 179.382L172.679 179.432C172.654 179.435 172.63 179.443 172.609 179.457C172.588 179.47 172.571 179.488 172.559 179.509C172.547 179.53 172.54 179.554 172.54 179.578C172.54 179.602 172.546 179.625 172.557 179.647C173.55 181.232 174.926 181.778 176.024 180.39C175.752 179.956 175.352 179.606 174.874 179.382V179.382Z" fill="#9C2455"/>
</g>
<g clip-path="url(#clip3_26173_42682)">
<rect x="205.51" y="160.234" width="42.1557" height="16.6535" rx="4" fill="#BED3FF"/>
<rect x="251.179" y="166.896" width="42.1557" height="9.99209" rx="4" fill="#72767D"/>
</g>
<path d="M205.51 184.218C205.51 182.009 207.301 180.218 209.51 180.218H370.133C372.342 180.218 374.133 182.009 374.133 184.218V196.872H205.51V184.218Z" fill="#DCDDDE"/>
<path d="M205.51 196.872H374.133V209.525C374.133 211.734 372.342 213.525 370.133 213.525H209.51C207.301 213.525 205.51 211.734 205.51 209.525V196.872Z" fill="#DCDDDE"/>
<mask id="mask3_26173_42682" style="mask-type:alpha" maskUnits="userSpaceOnUse" x="156" y="226" width="36" height="35">
<ellipse cx="173.893" cy="243.501" rx="17.5649" ry="16.6535" fill="#C4C4C4"/>
</mask>
<g mask="url(#mask3_26173_42682)">
<ellipse cx="173.893" cy="243.501" rx="17.5649" ry="16.6535" fill="#FFB869"/>
<path d="M164.879 248.94C166.929 255.699 175.176 260.381 181.792 255.964C188.408 251.546 181.838 242.491 181.838 242.491C181.838 242.491 185.426 233.921 176.434 231.889C167.441 229.857 165.205 233.567 164.879 248.94Z" fill="#4D7AE8"/>
<path d="M178.204 243.993C177.2 243.993 176.387 242.964 176.387 241.695C176.387 240.427 177.2 239.398 178.204 239.398C179.207 239.398 180.021 240.427 180.021 241.695C180.021 242.964 179.207 243.993 178.204 243.993Z" fill="#DBE7FF"/>
<path d="M178.984 243.439C178.727 243.423 178.546 243.034 178.579 242.572C178.612 242.11 178.847 241.748 179.104 241.765C179.361 241.781 179.542 242.17 179.509 242.632C179.476 243.095 179.24 243.456 178.984 243.439Z" fill="#201E2F"/>
<path d="M180.3 237.411C180.18 237.068 179.949 236.769 179.639 236.558C179.329 236.346 178.958 236.232 178.576 236.232C178.195 236.232 177.823 236.346 177.514 236.558C177.204 236.769 176.973 237.068 176.853 237.411H180.3Z" fill="#201E2F"/>
<path d="M180.114 247.173C178.344 247.614 176.434 247.217 174.849 245.582C174.642 245.359 174.352 245.22 174.039 245.195C173.726 245.17 173.415 245.262 173.172 245.45C172.907 245.62 172.724 245.883 172.663 246.181C172.602 246.479 172.668 246.788 172.846 247.04C175.269 250.795 179.043 251.369 181.372 249.249C181.532 249.113 181.651 248.939 181.717 248.745C181.782 248.55 181.792 248.343 181.745 248.145C181.713 247.975 181.643 247.815 181.542 247.672C181.441 247.53 181.309 247.409 181.156 247.318C181.002 247.226 180.83 247.166 180.651 247.141C180.472 247.116 180.289 247.127 180.114 247.173Z" fill="#590942"/>
<path d="M178.763 247.35C179.22 247.353 179.675 247.294 180.114 247.173H180.533V248.277C180.533 248.277 179.834 248.763 177.225 248.498V247.88L172.659 246.422C172.661 246.24 172.708 246.061 172.797 245.9C172.887 245.738 173.015 245.599 173.172 245.494C173.172 245.483 173.177 245.471 173.185 245.463C173.194 245.455 173.206 245.45 173.218 245.45C173.41 245.326 173.639 245.264 173.871 245.274C173.917 245.229 174.01 245.274 174.057 245.274H174.476C174.523 245.318 174.569 245.318 174.569 245.362C174.569 245.406 174.663 245.362 174.663 245.406L174.849 245.539C175.125 245.838 175.438 246.105 175.781 246.334L176.433 246.731C176.737 246.909 177.067 247.043 177.412 247.129C177.847 247.271 178.303 247.345 178.763 247.35Z" fill="#DBE7FF"/>
<path d="M173.172 245.45C173.172 245.438 173.177 245.427 173.185 245.419C173.194 245.41 173.206 245.406 173.218 245.406C173.41 245.281 173.639 245.219 173.871 245.229C173.917 245.185 174.01 245.229 174.057 245.229H174.476C174.523 245.273 174.569 245.273 174.569 245.317C174.569 245.362 174.663 245.317 174.663 245.362L174.849 245.494C174.996 245.678 175.168 245.841 175.361 245.98L174.057 246.731L172.659 246.289C172.675 246.122 172.729 245.961 172.817 245.816C172.906 245.671 173.027 245.546 173.172 245.45Z" fill="#B5CDFF"/>
<path d="M166.789 234.981C168.466 231.447 171.402 230.74 176.434 231.889C177.447 232.103 178.421 232.461 179.322 232.949C179.602 234.363 177.319 234.804 173.079 233.523C174.477 235.909 171.588 240.149 166.789 234.981Z" fill="#201E2F"/>
<path d="M172.66 231.756L172.893 228.841C172.914 228.575 172.874 228.307 172.776 228.057C172.678 227.807 172.524 227.58 172.325 227.391C172.126 227.202 171.887 227.057 171.623 226.964C171.359 226.871 171.077 226.833 170.796 226.853C170.48 226.87 170.173 226.959 169.901 227.114C169.63 227.268 169.402 227.482 169.237 227.739C169.072 227.995 168.975 228.286 168.954 228.585C168.934 228.885 168.99 229.185 169.119 229.459L170.517 232.463L172.66 231.756Z" fill="#201E2F"/>
<path d="M160.546 247.35L161.944 247.836L164.879 246.024V248.277L167.302 250.088C167.811 250.485 168.23 250.975 168.534 251.529C168.838 252.084 169.021 252.69 169.072 253.313L169.165 255.124C172.706 257.907 177.552 258.791 181.792 255.964C182.481 255.527 183.094 254.99 183.609 254.373L185.053 254.859C185.053 254.859 182.118 266.566 177.226 268.686C172.334 270.806 168.932 268.686 168.932 268.686C163.807 252.165 165.298 249.072 152.625 253.843L152.02 250.486L160.546 247.35Z" fill="#EF6767"/>
<path d="M170.703 242.093L161.477 233.92L160.639 234.936L167.767 247.526L170.703 242.093Z" fill="#4D7AE8"/>
<path d="M167.348 240.238L163.714 237.808L166.509 242.579L165.997 240.724L167.348 240.238Z" fill="#3366E0"/>
</g>
<g clip-path="url(#clip4_26173_42682)">
<rect x="205.51" y="226.848" width="42.1557" height="16.6535" rx="4" fill="#FDD171"/>
<rect x="251.179" y="233.509" width="42.1557" height="9.99209" rx="4" fill="#72767D"/>
</g>
<mask id="mask4_26173_42682" style="mask-type:alpha" maskUnits="userSpaceOnUse" x="205" y="246" width="170" height="91">
<path d="M205.51 250.832C205.51 248.623 207.301 246.832 209.51 246.832H370.133C372.342 246.832 374.133 248.623 374.133 250.832V332.761C374.133 334.97 372.342 336.761 370.133 336.761H209.51C207.301 336.761 205.51 334.97 205.51 332.761V250.832Z" fill="#DCDDDE"/>
</mask>
<g mask="url(#mask4_26173_42682)">
<path d="M533.866 226.848H-122.075V348.433H533.866V226.848Z" fill="url(#paint1_linear_26173_42682)"/>
<path d="M251.107 226.848C151.343 273.52 36.3383 348.432 36.3383 348.432H-14.0967L160.787 226.848H251.107Z" fill="url(#paint2_linear_26173_42682)"/>
<path d="M419.456 226.848C327.231 260.779 215.381 304.149 215.381 304.149C245.126 285.232 336.04 238.987 371.602 226.848H419.456Z" fill="url(#paint3_linear_26173_42682)"/>
<path d="M250.595 253.631C278.148 237.958 294.843 230.208 294.843 230.208C273.805 232.966 261.411 241.648 250.595 253.631Z" fill="url(#paint4_linear_26173_42682)"/>
<path opacity="0.4" d="M343.168 313.336C345.36 302.518 343.659 288.902 324.813 280.065C311.518 274.258 294.986 282.551 296.809 301.974C291.237 302.071 286.567 303.819 283.617 308.422C269.277 298.419 244.92 306.324 250.431 332.894C234.083 332.448 226.36 337.4 223.554 348.432H324.813L390.571 348.374C385.47 329.476 367.238 314.948 343.168 313.336Z" fill="#7196FF"/>
<path opacity="0.5" d="M282.797 318.424C283.371 309.451 290.151 303.683 296.809 301.974C291.237 302.071 286.566 303.819 283.616 308.422C275.893 303.042 265.282 302.848 257.969 307.956C264.913 303.547 278.372 311.044 282.797 318.424Z" fill="#83A4FF"/>
<path d="M461.963 348.432C461.963 324.659 444.448 324.018 444.448 324.018C448.955 299.643 424.024 279.599 398.704 293.039C373.384 306.48 387.232 328.835 387.232 328.835C367.3 325.086 340.628 328.796 335.24 348.432H461.963Z" fill="#5E87F9"/>
<path d="M236.542 348.432C233.1 343.207 222.673 340.877 214.93 342.256C211.14 335.4 199.484 331.612 190.941 339.226C183.218 338.565 173.017 340.993 172.033 348.432H236.542Z" fill="#83A4FF"/>
</g>
<mask id="mask5_26173_42682" style="mask-type:alpha" maskUnits="userSpaceOnUse" x="156" y="350" width="36" height="34">
<ellipse cx="173.893" cy="366.737" rx="17.5649" ry="16.6535" fill="#C4C4C4"/>
</mask>
<g mask="url(#mask5_26173_42682)">
<ellipse cx="173.893" cy="366.737" rx="17.5649" ry="16.6535" fill="#FFB869"/>
<path d="M164.879 372.176C166.929 378.934 175.176 383.617 181.792 379.199C188.408 374.782 181.838 365.726 181.838 365.726C181.838 365.726 185.426 357.157 176.434 355.125C167.441 353.093 165.205 356.803 164.879 372.176Z" fill="#4D7AE8"/>
<path d="M178.204 367.228C177.2 367.228 176.387 366.2 176.387 364.931C176.387 363.663 177.2 362.634 178.204 362.634C179.207 362.634 180.021 363.663 180.021 364.931C180.021 366.2 179.207 367.228 178.204 367.228Z" fill="#DBE7FF"/>
<path d="M178.984 366.675C178.727 366.659 178.546 366.27 178.579 365.808C178.612 365.345 178.847 364.984 179.104 365.001C179.361 365.017 179.542 365.405 179.509 365.868C179.476 366.33 179.24 366.692 178.984 366.675Z" fill="#201E2F"/>
<path d="M180.3 360.646C180.18 360.303 179.949 360.005 179.639 359.794C179.329 359.582 178.958 359.468 178.576 359.468C178.195 359.468 177.823 359.582 177.514 359.794C177.204 360.005 176.973 360.303 176.853 360.646H180.3Z" fill="#201E2F"/>
<path d="M180.114 370.409C178.344 370.85 176.434 370.453 174.849 368.818C174.642 368.594 174.352 368.455 174.039 368.431C173.726 368.406 173.415 368.497 173.172 368.686C172.907 368.856 172.724 369.119 172.663 369.417C172.602 369.715 172.668 370.024 172.846 370.276C175.269 374.031 179.043 374.605 181.372 372.485C181.532 372.349 181.651 372.174 181.717 371.98C181.782 371.786 181.792 371.579 181.745 371.38C181.713 371.211 181.643 371.05 181.542 370.908C181.441 370.766 181.309 370.645 181.156 370.554C181.002 370.462 180.83 370.402 180.651 370.377C180.472 370.352 180.289 370.363 180.114 370.409Z" fill="#590942"/>
<path d="M178.763 370.586C179.22 370.589 179.675 370.53 180.114 370.409H180.533V371.513C180.533 371.513 179.834 371.999 177.225 371.734V371.116L172.659 369.658C172.661 369.476 172.708 369.297 172.797 369.135C172.887 368.974 173.015 368.835 173.172 368.73C173.172 368.718 173.177 368.707 173.185 368.699C173.194 368.691 173.206 368.686 173.218 368.686C173.41 368.562 173.639 368.5 173.871 368.509C173.917 368.465 174.01 368.509 174.057 368.509H174.476C174.523 368.554 174.569 368.554 174.569 368.598C174.569 368.642 174.663 368.598 174.663 368.642L174.849 368.774C175.125 369.074 175.438 369.341 175.781 369.57L176.433 369.967C176.737 370.144 177.067 370.278 177.412 370.365C177.847 370.507 178.303 370.581 178.763 370.586Z" fill="#DBE7FF"/>
<path d="M173.172 368.686C173.172 368.674 173.177 368.663 173.185 368.655C173.194 368.646 173.206 368.642 173.218 368.642C173.41 368.517 173.639 368.455 173.871 368.465C173.917 368.421 174.01 368.465 174.057 368.465H174.476C174.523 368.509 174.569 368.509 174.569 368.553C174.569 368.597 174.663 368.553 174.663 368.597L174.849 368.73C174.996 368.913 175.168 369.077 175.361 369.216L174.057 369.967L172.659 369.525C172.675 369.358 172.729 369.197 172.817 369.052C172.906 368.907 173.027 368.782 173.172 368.686Z" fill="#B5CDFF"/>
<path d="M166.789 358.217C168.466 354.683 171.402 353.976 176.434 355.125C177.447 355.339 178.421 355.697 179.322 356.185C179.602 357.598 177.319 358.04 173.079 356.759C174.477 359.144 171.588 363.385 166.789 358.217Z" fill="#201E2F"/>
<path d="M172.66 354.992L172.893 352.076C172.914 351.81 172.874 351.543 172.776 351.293C172.678 351.043 172.524 350.816 172.325 350.627C172.126 350.438 171.887 350.292 171.623 350.2C171.359 350.107 171.077 350.069 170.796 350.089C170.48 350.106 170.173 350.195 169.901 350.349C169.63 350.504 169.402 350.718 169.237 350.975C169.072 351.231 168.975 351.521 168.954 351.821C168.934 352.121 168.99 352.421 169.119 352.695L170.517 355.699L172.66 354.992Z" fill="#201E2F"/>
<path d="M160.546 370.585L161.944 371.071L164.879 369.26V371.513L167.302 373.324C167.811 373.721 168.23 374.211 168.534 374.765C168.838 375.319 169.021 375.926 169.072 376.549L169.165 378.36C172.706 381.143 177.552 382.027 181.792 379.199C182.481 378.763 183.094 378.226 183.609 377.609L185.053 378.095C185.053 378.095 182.118 389.801 177.226 391.922C172.334 394.042 168.932 391.922 168.932 391.922C163.807 375.4 165.298 372.308 152.625 377.079L152.02 373.722L160.546 370.585Z" fill="#EF6767"/>
<path d="M170.703 365.328L161.477 357.156L160.639 358.172L167.767 370.762L170.703 365.328Z" fill="#4D7AE8"/>
<path d="M167.348 363.474L163.714 361.044L166.509 365.815L165.997 363.959L167.348 363.474Z" fill="#3366E0"/>
</g>
<g clip-path="url(#clip5_26173_42682)">
<rect x="205.51" y="350.083" width="42.1557" height="16.6535" rx="4" fill="#FDD171"/>
<rect x="251.179" y="356.745" width="42.1557" height="9.99209" rx="4" fill="#72767D"/>
</g>
<path d="M205.51 374.068C205.51 371.859 207.301 370.068 209.51 370.068H370.133C372.342 370.068 374.133 371.859 374.133 374.068V382.721C374.133 384.93 372.342 386.721 370.133 386.721H205.51V374.068Z" fill="#DCDDDE"/>
<path d="M205.51 386.721H289.821V399.375C289.821 401.584 288.03 403.375 285.821 403.375H209.51C207.301 403.375 205.51 401.584 205.51 399.375V386.721Z" fill="#DCDDDE"/>
<mask id="mask6_26173_42682" style="mask-type:alpha" maskUnits="userSpaceOnUse" x="156" y="416" width="36" height="35">
<ellipse cx="173.893" cy="433.351" rx="17.5649" ry="16.6535" fill="#C4C4C4"/>
</mask>
<g mask="url(#mask6_26173_42682)">
<ellipse cx="173.893" cy="433.351" rx="17.5649" ry="16.6535" fill="#FFB869"/>
<path d="M164.879 438.79C166.929 445.548 175.176 450.231 181.792 445.813C188.408 441.396 181.838 432.34 181.838 432.34C181.838 432.34 185.426 423.77 176.434 421.738C167.441 419.706 165.205 423.417 164.879 438.79Z" fill="#4D7AE8"/>
<path d="M178.204 433.842C177.2 433.842 176.387 432.814 176.387 431.545C176.387 430.277 177.2 429.248 178.204 429.248C179.207 429.248 180.021 430.277 180.021 431.545C180.021 432.814 179.207 433.842 178.204 433.842Z" fill="#DBE7FF"/>
<path d="M178.984 433.289C178.727 433.272 178.546 432.884 178.579 432.422C178.612 431.959 178.847 431.598 179.104 431.614C179.361 431.631 179.542 432.019 179.509 432.482C179.476 432.944 179.24 433.306 178.984 433.289Z" fill="#201E2F"/>
<path d="M180.3 427.26C180.18 426.917 179.949 426.619 179.639 426.407C179.329 426.196 178.958 426.082 178.576 426.082C178.195 426.082 177.823 426.196 177.514 426.407C177.204 426.619 176.973 426.917 176.853 427.26H180.3Z" fill="#201E2F"/>
<path d="M180.114 437.022C178.344 437.464 176.434 437.066 174.849 435.432C174.642 435.208 174.352 435.069 174.039 435.045C173.726 435.02 173.415 435.111 173.172 435.3C172.907 435.47 172.724 435.733 172.663 436.031C172.602 436.329 172.668 436.638 172.846 436.89C175.269 440.645 179.043 441.219 181.372 439.098C181.532 438.962 181.651 438.788 181.717 438.594C181.782 438.4 181.792 438.193 181.745 437.994C181.713 437.825 181.643 437.664 181.542 437.522C181.441 437.38 181.309 437.259 181.156 437.167C181.002 437.076 180.83 437.016 180.651 436.991C180.472 436.966 180.289 436.977 180.114 437.022Z" fill="#590942"/>
<path d="M178.763 437.199C179.22 437.203 179.675 437.143 180.114 437.023H180.533V438.127C180.533 438.127 179.834 438.613 177.225 438.348V437.729L172.659 436.272C172.661 436.09 172.708 435.911 172.797 435.749C172.887 435.588 173.015 435.449 173.172 435.344C173.172 435.332 173.177 435.321 173.185 435.313C173.194 435.304 173.206 435.3 173.218 435.3C173.41 435.175 173.639 435.114 173.871 435.123C173.917 435.079 174.01 435.123 174.057 435.123H174.476C174.523 435.167 174.569 435.167 174.569 435.211C174.569 435.256 174.663 435.211 174.663 435.256L174.849 435.388C175.125 435.688 175.438 435.955 175.781 436.183L176.433 436.581C176.737 436.758 177.067 436.892 177.412 436.978C177.847 437.12 178.303 437.195 178.763 437.199Z" fill="#DBE7FF"/>
<path d="M173.172 435.3C173.172 435.288 173.177 435.277 173.185 435.268C173.194 435.26 173.206 435.255 173.218 435.255C173.41 435.131 173.639 435.069 173.871 435.079C173.917 435.035 174.01 435.079 174.057 435.079H174.476C174.523 435.123 174.569 435.123 174.569 435.167C174.569 435.211 174.663 435.167 174.663 435.211L174.849 435.344C174.996 435.527 175.168 435.691 175.361 435.83L174.057 436.581L172.659 436.139C172.675 435.972 172.729 435.81 172.817 435.665C172.906 435.52 173.027 435.396 173.172 435.3Z" fill="#B5CDFF"/>
<path d="M166.789 424.831C168.466 421.297 171.402 420.59 176.434 421.738C177.447 421.953 178.421 422.31 179.322 422.799C179.602 424.212 177.319 424.654 173.079 423.373C174.477 425.758 171.588 429.999 166.789 424.831Z" fill="#201E2F"/>
<path d="M172.66 421.606L172.893 418.69C172.914 418.424 172.874 418.157 172.776 417.907C172.678 417.657 172.524 417.429 172.325 417.241C172.126 417.052 171.887 416.906 171.623 416.813C171.359 416.72 171.077 416.683 170.796 416.702C170.48 416.719 170.173 416.809 169.901 416.963C169.63 417.117 169.402 417.332 169.237 417.588C169.072 417.845 168.975 418.135 168.954 418.435C168.934 418.734 168.99 419.034 169.119 419.309L170.517 422.312L172.66 421.606Z" fill="#201E2F"/>
<path d="M160.546 437.199L161.944 437.685L164.879 435.874V438.127L167.302 439.938C167.811 440.335 168.23 440.825 168.534 441.379C168.838 441.933 169.021 442.54 169.072 443.163L169.165 444.974C172.706 447.757 177.552 448.64 181.792 445.813C182.481 445.377 183.094 444.84 183.609 444.223L185.053 444.709C185.053 444.709 182.118 456.415 177.226 458.536C172.334 460.656 168.932 458.536 168.932 458.536C163.807 442.014 165.298 438.922 152.625 443.693L152.02 440.336L160.546 437.199Z" fill="#EF6767"/>
<path d="M170.703 431.942L161.477 423.77L160.639 424.786L167.767 437.376L170.703 431.942Z" fill="#4D7AE8"/>
<path d="M167.348 430.087L163.714 427.658L166.509 432.429L165.997 430.573L167.348 430.087Z" fill="#3366E0"/>
</g>
<g clip-path="url(#clip6_26173_42682)">
<rect x="205.51" y="416.697" width="42.1557" height="16.6535" rx="4" fill="#FDD171"/>
<rect x="251.179" y="423.359" width="42.1557" height="9.99209" rx="4" fill="#72767D"/>
</g>
<path d="M205.51 440.682C205.51 438.473 207.301 436.682 209.51 436.682H370.133C372.342 436.682 374.133 438.473 374.133 440.682V449.335C374.133 451.544 372.342 453.335 370.133 453.335H205.51V440.682Z" fill="#DCDDDE"/>
<path d="M205.51 453.335H346.029V465.988C346.029 468.198 344.238 469.988 342.029 469.988H209.51C207.301 469.988 205.51 468.198 205.51 465.988V453.335Z" fill="#DCDDDE"/>
<mask id="mask7_26173_42682" style="mask-type:alpha" maskUnits="userSpaceOnUse" x="156" y="483" width="36" height="34">
<ellipse cx="173.893" cy="499.965" rx="17.5649" ry="16.6535" fill="#C4C4C4"/>
</mask>
<g mask="url(#mask7_26173_42682)">
<ellipse cx="173.893" cy="499.965" rx="17.5649" ry="16.6535" fill="#FF82A6"/>
<path d="M183.707 487.323L183.657 487.466L183.509 487.815L183.459 487.957L183.344 488.211C180.801 494.027 175.829 498.276 172.537 501.232C169.128 504.278 165.279 506.843 161.102 508.853C156.986 510.705 155.09 508.972 155.508 505.735L155.9 504.112L157.829 495.933L157.911 495.535C159.22 490.206 161.309 487.162 168.215 485.59L178.725 483.242L178.759 483.227C182.429 482.421 185.007 483.64 183.707 487.323Z" fill="url(#paint5_linear_26173_42682)"/>
<path d="M182.558 483.265C179.216 483.758 172.998 487.542 166.856 493.138C160.714 498.734 156.047 504.936 155.661 508.004C156.272 509.65 158.08 510.183 161.067 508.849C165.249 506.835 169.102 504.265 172.516 501.213C175.812 498.251 180.79 493.994 183.336 488.166L183.452 487.912L183.501 487.769L183.65 487.419L183.699 487.276C184.474 485.113 183.916 483.804 182.558 483.265Z" fill="url(#paint6_linear_26173_42682)"/>
<path d="M172.848 499.08C178.856 493.677 182.819 488.392 181.701 487.276C180.583 486.16 174.807 489.635 168.8 495.038C162.792 500.442 158.828 505.727 159.946 506.843C161.064 507.959 166.84 504.484 172.848 499.08Z" fill="#6B3143"/>
<path d="M171.434 508.317L169.858 509.4C169.477 509.639 169.159 509.958 168.928 510.334C168.697 510.71 168.557 511.132 168.52 511.571L168.281 513.556L165.513 515.985C164.934 516.528 164.599 517.267 164.574 518.052L164.617 519.947C164.617 519.947 180.041 527.946 188.259 526.646C196.477 525.345 191.28 511.771 191.28 511.771C191.205 511.638 191.094 511.526 190.958 511.447C190.823 511.369 190.669 511.327 190.512 511.326L188.064 511.134L186.986 508.676C186.886 508.448 186.731 508.246 186.533 508.086C186.334 507.927 186.1 507.815 185.849 507.762L178.615 506.216L171.434 508.317Z" fill="#EF6270"/>
<path d="M171.9 512.53C169.701 512.104 169.851 512.155 170.462 511.196C170.811 510.603 171.326 510.117 171.952 509.793L171.9 512.53Z" fill="#BD3C53"/>
<path d="M175.092 493.195C174.825 492.92 172.649 494.397 170.243 496.535C167.838 498.674 166.11 500.619 166.377 500.894C169.361 505.199 171.367 509.279 172.012 512.477L183.94 514.854C183.16 504.731 178.127 497.755 175.092 493.195Z" fill="#FFB685"/>
<path d="M179.825 502.196C179.72 501.834 179.428 501.591 179.173 501.654C178.917 501.716 178.795 502.06 178.9 502.423C179.004 502.785 179.296 503.027 179.551 502.965C179.807 502.902 179.929 502.558 179.825 502.196Z" fill="#543247"/>
<path d="M175.894 504.318C176.079 504.064 175.937 503.666 175.577 503.429C175.218 503.191 174.776 503.205 174.592 503.459C174.407 503.713 174.549 504.111 174.909 504.348C175.269 504.586 175.71 504.572 175.894 504.318Z" fill="#543247"/>
<path d="M178.356 507.795C179.355 507.336 180.27 506.876 180.704 506.996C181.138 507.117 180.959 507.879 180.496 508.731C180.033 509.584 180.165 509.203 179.063 508.91C177.96 508.617 177.591 508.147 178.356 507.795Z" fill="#C74153"/>
<path d="M178.772 507.648L178.008 508.159C178.043 508.462 178.495 508.774 179.062 508.913C179.629 509.052 180.279 509.113 180.494 508.734L180.692 508.324C180.407 508.095 179.621 507.538 178.772 507.648Z" fill="#A82C3C"/>
<path d="M180.299 506.992C179.627 507.208 178.978 507.48 178.359 507.806C177.925 508.007 177.959 508.233 178.162 508.462L180.469 507.478C180.603 507.417 180.434 507.172 180.299 506.992Z" fill="white"/>
<path d="M183.2 504.06C183.216 504.012 183.182 503.947 183.199 503.9C183.155 503.574 183.006 503.267 182.774 503.021C182.542 502.775 182.238 502.602 181.904 502.527C181.985 502.597 182.05 502.684 182.092 502.78C182.134 502.877 182.153 502.981 182.147 503.085C182.141 503.188 182.111 503.288 182.058 503.378C182.005 503.467 181.931 503.543 181.842 503.6C181.522 503.773 181.161 503.871 180.79 503.883C180.306 503.93 179.842 504.077 179.43 504.315C179.018 504.553 178.668 504.877 178.404 505.263C176.697 505.164 176.117 506.195 174.915 506.748C174.591 506.906 174.242 507.012 173.88 507.064C172.693 507.248 172.49 506.779 172.453 506.153C171.153 507.153 171.997 508.613 173.02 508.986C173.623 509.271 174.426 509.143 175.259 508.518C177.353 509.041 178.088 508.783 179.266 506.915C181.259 507.404 182.527 506.66 182.602 504.898C182.768 504.819 182.909 504.701 183.014 504.554C183.118 504.408 183.182 504.238 183.2 504.06V504.06Z" fill="#6B3143"/>
<path d="M179.264 506.911C181.258 507.4 182.527 506.655 182.602 504.891C182.768 504.812 182.909 504.694 183.014 504.547C183.118 504.401 183.182 504.23 183.2 504.052V504.052C183.216 504.004 183.183 503.939 183.199 503.891C183.163 503.724 183.106 503.562 183.029 503.406C183.056 503.673 182.979 503.937 182.813 504.147C182.647 504.357 182.404 504.499 182.131 504.544C181.552 505.817 180.347 506.05 178.957 505.765C178.957 505.765 177.427 507.837 175.265 507.344C173.764 508.518 172.139 508.341 171.782 507.178C171.756 507.562 171.862 507.947 172.085 508.273C172.307 508.599 172.633 508.849 173.013 508.985C173.617 509.27 174.42 509.141 175.254 508.516C177.349 509.039 178.085 508.781 179.264 506.911Z" fill="#5E2737"/>
</g>
<g clip-path="url(#clip7_26173_42682)">
<rect x="205.51" y="483.312" width="42.1557" height="16.6535" rx="4" fill="#FFA78B"/>
<rect x="251.179" y="489.973" width="42.1557" height="9.99209" rx="4" fill="#72767D"/>
</g>
<path d="M205.51 507.296C205.51 505.087 207.301 503.296 209.51 503.296H393.51C395.719 503.296 397.51 505.087 397.51 507.296V519.296C397.51 521.505 395.719 523.296 393.51 523.296H209.51C207.301 523.296 205.51 521.505 205.51 519.296V507.296Z" fill="#DCDDDE"/>
</g>
<path fill-rule="evenodd" clip-rule="evenodd" d="M164.986 70.6646C165.077 70.1198 164.709 69.6046 164.164 69.5138C163.62 69.423 163.104 69.791 163.014 70.3358L162.153 75.5001H158C157.448 75.5001 157 75.9478 157 76.5001C157 77.0524 157.448 77.5001 158 77.5001H161.82L161.153 81.5001H157C156.448 81.5001 156 81.9478 156 82.5001C156 83.0524 156.448 83.5001 157 83.5001H160.82L160.014 88.3358C159.923 88.8805 160.291 89.3958 160.836 89.4865C161.38 89.5773 161.896 89.2093 161.986 88.6646L162.847 83.5001H167.82L167.014 88.3358C166.923 88.8805 167.291 89.3958 167.836 89.4865C168.38 89.5773 168.896 89.2093 168.986 88.6646L169.847 83.5001H174C174.552 83.5001 175 83.0524 175 82.5001C175 81.9478 174.552 81.5001 174 81.5001H170.18L170.847 77.5001H175C175.552 77.5001 176 77.0524 176 76.5001C176 75.9478 175.552 75.5001 175 75.5001H171.18L171.986 70.6646C172.077 70.1198 171.709 69.6046 171.164 69.5138C170.62 69.423 170.104 69.791 170.014 70.3358L169.153 75.5001H164.18L164.986 70.6646ZM168.153 81.5001L168.82 77.5001H163.847L163.18 81.5001H168.153Z" fill="#B5BAC1"/>
</g>
<path d="M207.514 30.4064C212.151 30.4064 215.91 26.641 215.91 21.9962C215.91 17.3513 212.151 13.5859 207.514 13.5859C202.878 13.5859 199.119 17.3513 199.119 21.9962C199.119 26.641 202.878 30.4064 207.514 30.4064Z" fill="#1B1B26"/>
<path d="M230.762 17.8989C230.762 15.8742 229.124 14.2329 227.103 14.2329C225.082 14.2329 223.443 15.8742 223.443 17.8989V25.921C223.443 27.9457 225.082 29.587 227.103 29.587C229.124 29.587 230.762 27.9457 230.762 25.921V17.8989Z" fill="black"/>
<path d="M435.049 160.657H436.34C437.311 160.657 438.242 161.043 438.928 161.731C439.614 162.418 440 163.351 440 164.323V201.199C440 202.171 439.614 203.104 438.928 203.791C438.242 204.479 437.311 204.865 436.34 204.865H435.049V160.657Z" fill="#DE3C3C"/>
<path d="M435.049 249.289C436.362 249.289 437.621 249.811 438.55 250.741C439.478 251.671 440 252.933 440 254.248V328.647C440 329.962 439.478 331.224 438.55 332.154C437.621 333.084 436.362 333.607 435.049 333.607V249.289Z" fill="#11111A"/>
</g>
<defs>
<linearGradient id="paint0_linear_26173_42682" x1="161.646" y1="129.995" x2="167.257" y2="127.744" gradientUnits="userSpaceOnUse">
<stop stop-color="#61C7C7"/>
<stop offset="1" stop-color="#54B9C7"/>
</linearGradient>
<linearGradient id="paint1_linear_26173_42682" x1="205.896" y1="348.984" x2="205.896" y2="261.892" gradientUnits="userSpaceOnUse">
<stop stop-color="#7196FF"/>
<stop offset="1" stop-color="#2A5EE8"/>
</linearGradient>
<linearGradient id="paint2_linear_26173_42682" x1="218357" y1="73327.1" x2="218357" y2="4419.08" gradientUnits="userSpaceOnUse">
<stop stop-color="#537FF5"/>
<stop offset="1" stop-color="#2A5EE8"/>
</linearGradient>
<linearGradient id="paint3_linear_26173_42682" x1="366408" y1="52527.4" x2="366408" y2="3226.14" gradientUnits="userSpaceOnUse">
<stop stop-color="#537FF5"/>
<stop offset="1" stop-color="#2A5EE8"/>
</linearGradient>
<linearGradient id="paint4_linear_26173_42682" x1="69995.4" y1="14313.1" x2="69995.4" y2="1037.85" gradientUnits="userSpaceOnUse">
<stop stop-color="#537FF5"/>
<stop offset="1" stop-color="#2A5EE8"/>
</linearGradient>
<linearGradient id="paint5_linear_26173_42682" x1="168.771" y1="486.544" x2="169.989" y2="504.046" gradientUnits="userSpaceOnUse">
<stop stop-color="#FFC285"/>
<stop offset="1" stop-color="#DB8D6B"/>
</linearGradient>
<linearGradient id="paint6_linear_26173_42682" x1="153.64" y1="504.2" x2="185.485" y2="487.591" gradientUnits="userSpaceOnUse">
<stop stop-color="#D67569"/>
<stop offset="1" stop-color="#E39E7F"/>
</linearGradient>
<clipPath id="clip0_26173_42682">
<rect width="440" height="741.395" fill="white"/>
</clipPath>
<clipPath id="clip1_26173_42682">
<rect x="135.25" y="34.5" width="323.194" height="512.927" rx="8" fill="white"/>
</clipPath>
<clipPath id="clip2_26173_42682">
<rect width="87.8243" height="16.6535" fill="white" transform="translate(205.51 110.273)"/>
</clipPath>
<clipPath id="clip3_26173_42682">
<rect width="87.8243" height="16.6535" fill="white" transform="translate(205.51 160.234)"/>
</clipPath>
<clipPath id="clip4_26173_42682">
<rect width="87.8243" height="16.6535" fill="white" transform="translate(205.51 226.848)"/>
</clipPath>
<clipPath id="clip5_26173_42682">
<rect width="87.8243" height="16.6535" fill="white" transform="translate(205.51 350.083)"/>
</clipPath>
<clipPath id="clip6_26173_42682">
<rect width="87.8243" height="16.6535" fill="white" transform="translate(205.51 416.697)"/>
</clipPath>
<clipPath id="clip7_26173_42682">
<rect width="87.8243" height="16.6535" fill="white" transform="translate(205.51 483.312)"/>
</clipPath>
</defs>
</svg>
