<svg width="438" height="712" viewBox="0 0 438 712" fill="none" xmlns="http://www.w3.org/2000/svg">
<g clip-path="url(#clip0_26173_41271)">
<path d="M278.351 60.0581H46.9426C23.5292 60.0581 4.54883 79.0658 4.54883 102.513V669.421C4.54883 692.868 23.5292 711.876 46.9426 711.876H278.351C301.764 711.876 320.744 692.868 320.744 669.421V102.513C320.744 79.0658 301.764 60.0581 278.351 60.0581Z" fill="url(#paint0_linear_26173_41271)"/>
<g opacity="0.9">
<path opacity="0.9" d="M278.352 60.0581H96.1621V614.664C96.1621 629.22 101.936 643.179 112.213 653.471C122.49 663.763 136.429 669.545 150.964 669.545H320.746V102.513C320.746 91.2533 316.279 80.4547 308.329 72.4929C300.378 64.531 289.595 60.0581 278.352 60.0581Z" fill="url(#paint1_linear_26173_41271)"/>
</g>
<path d="M3.30878 270.469H4.54957V191.15H3.30878C2.43124 191.15 1.58964 191.499 0.96912 192.121C0.348603 192.742 0 193.585 0 194.464L0 267.155C0 268.034 0.348603 268.877 0.96912 269.498C1.58964 270.119 2.43124 270.469 3.30878 270.469Z" fill="#ACADBD"/>
<path d="M119.942 74.9692H55.4212C33.9493 74.9692 16.543 92.4007 16.543 113.903V186.098C16.543 207.6 33.9493 225.032 55.4212 225.032H119.942C141.414 225.032 158.821 207.6 158.821 186.098V113.903C158.821 92.4007 141.414 74.9692 119.942 74.9692Z" fill="url(#paint2_radial_26173_41271)"/>
<path d="M119.944 85.3237H55.423C39.6618 85.3237 26.8848 98.1192 26.8848 113.903V186.097C26.8848 201.881 39.6618 214.677 55.423 214.677H119.944C135.705 214.677 148.483 201.881 148.483 186.097V113.903C148.483 98.1192 135.705 85.3237 119.944 85.3237Z" fill="#CCCFDE"/>
<path d="M117.669 177.275C132.745 177.275 144.966 165.036 144.966 149.938C144.966 134.841 132.745 122.602 117.669 122.602C102.593 122.602 90.3711 134.841 90.3711 149.938C90.3711 165.036 102.593 177.275 117.669 177.275Z" fill="white"/>
<path d="M117.669 171.477C129.547 171.477 139.176 161.834 139.176 149.938C139.176 138.043 129.547 128.4 117.669 128.4C105.791 128.4 96.1621 138.043 96.1621 149.938C96.1621 161.834 105.791 171.477 117.669 171.477Z" fill="#161621"/>
<path d="M117.668 165.471C126.234 165.471 133.178 158.517 133.178 149.939C133.178 141.36 126.234 134.406 117.668 134.406C109.102 134.406 102.158 141.36 102.158 149.939C102.158 158.517 109.102 165.471 117.668 165.471Z" fill="#1E1E2E"/>
<path d="M117.668 158.429C122.351 158.429 126.147 154.628 126.147 149.938C126.147 145.249 122.351 141.447 117.668 141.447C112.986 141.447 109.189 145.249 109.189 149.938C109.189 154.628 112.986 158.429 117.668 158.429Z" fill="#0F0F17"/>
<path d="M58.9381 143.518C74.014 143.518 86.2355 131.279 86.2355 116.182C86.2355 101.084 74.014 88.8447 58.9381 88.8447C43.8621 88.8447 31.6406 101.084 31.6406 116.182C31.6406 131.279 43.8621 143.518 58.9381 143.518Z" fill="white"/>
<path d="M58.9368 137.72C70.8148 137.72 80.4439 128.077 80.4439 116.182C80.4439 104.286 70.8148 94.6436 58.9368 94.6436C47.0587 94.6436 37.4297 104.286 37.4297 116.182C37.4297 128.077 47.0587 137.72 58.9368 137.72Z" fill="#161621"/>
<path d="M58.9381 211.239C74.014 211.239 86.2355 199 86.2355 183.902C86.2355 168.805 74.014 156.565 58.9381 156.565C43.8621 156.565 31.6406 168.805 31.6406 183.902C31.6406 199 43.8621 211.239 58.9381 211.239Z" fill="white"/>
<path d="M58.9368 205.44C70.8148 205.44 80.4439 195.798 80.4439 183.902C80.4439 172.007 70.8148 162.364 58.9368 162.364C47.0587 162.364 37.4297 172.007 37.4297 183.902C37.4297 195.798 47.0587 205.44 58.9368 205.44Z" fill="#161621"/>
<path d="M117.669 114.525C123.837 114.525 128.836 109.518 128.836 103.341C128.836 97.1651 123.837 92.1582 117.669 92.1582C111.502 92.1582 106.502 97.1651 106.502 103.341C106.502 109.518 111.502 114.525 117.669 114.525Z" fill="#A7ABC7"/>
<path d="M117.669 109.761C121.209 109.761 124.079 106.887 124.079 103.341C124.079 99.7957 121.209 96.9214 117.669 96.9214C114.128 96.9214 111.258 99.7957 111.258 103.341C111.258 106.887 114.128 109.761 117.669 109.761Z" fill="#EDEBE7"/>
<path d="M117.669 187.837C117.071 187.837 116.48 187.955 115.928 188.184C115.376 188.413 114.874 188.748 114.452 189.171C114.029 189.594 113.694 190.097 113.465 190.65C113.237 191.202 113.119 191.795 113.119 192.393C113.118 192.982 113.237 193.565 113.468 194.107C113.699 194.648 114.038 195.137 114.463 195.544C114.889 195.951 115.392 196.266 115.943 196.472C116.494 196.678 117.081 196.77 117.669 196.742C118.239 196.742 118.804 196.63 119.331 196.411C119.858 196.192 120.336 195.872 120.74 195.468C121.143 195.064 121.463 194.585 121.681 194.057C121.899 193.53 122.011 192.964 122.011 192.393C122.039 191.805 121.948 191.217 121.742 190.665C121.537 190.113 121.221 189.609 120.815 189.183C120.409 188.757 119.921 188.418 119.38 188.187C118.839 187.955 118.257 187.836 117.669 187.837Z" fill="#414159"/>
<path d="M58.9377 131.714C67.5035 131.714 74.4476 124.759 74.4476 116.181C74.4476 107.603 67.5035 100.649 58.9377 100.649C50.3718 100.649 43.4277 107.603 43.4277 116.181C43.4277 124.759 50.3718 131.714 58.9377 131.714Z" fill="#1E1E2E"/>
<path d="M58.9377 124.672C63.6204 124.672 67.4165 120.871 67.4165 116.181C67.4165 111.492 63.6204 107.69 58.9377 107.69C54.255 107.69 50.459 111.492 50.459 116.181C50.459 120.871 54.255 124.672 58.9377 124.672Z" fill="#0F0F17"/>
<path d="M58.9377 199.435C67.5035 199.435 74.4476 192.481 74.4476 183.902C74.4476 175.324 67.5035 168.37 58.9377 168.37C50.3718 168.37 43.4277 175.324 43.4277 183.902C43.4277 192.481 50.3718 199.435 58.9377 199.435Z" fill="#1E1E2E"/>
<path d="M58.9377 192.393C63.6204 192.393 67.4165 188.592 67.4165 183.902C67.4165 179.213 63.6204 175.411 58.9377 175.411C54.255 175.411 50.459 179.213 50.459 183.902C50.459 188.592 54.255 192.393 58.9377 192.393Z" fill="#0F0F17"/>
<path d="M390.644 3.31348H160.477C138.548 3.31348 120.771 21.1158 120.771 43.0761V608.617C120.771 630.577 138.548 648.38 160.477 648.38H390.644C412.573 648.38 430.349 630.577 430.349 608.617V43.0761C430.349 21.1158 412.573 3.31348 390.644 3.31348Z" fill="#161621"/>
<path d="M391.264 4.14194C396.279 4.14187 401.244 5.13433 405.874 7.06226C410.504 8.9902 414.708 11.8156 418.244 15.376C421.78 18.9364 424.578 23.1617 426.478 27.8088C428.378 32.456 429.343 37.4334 429.315 42.4549V609.487C429.315 614.491 428.331 619.446 426.419 624.069C424.507 628.693 421.704 632.893 418.17 636.432C414.637 639.97 410.442 642.777 405.826 644.692C401.209 646.607 396.261 647.593 391.264 647.593H159.65C149.539 647.593 139.839 643.585 132.67 636.444C125.501 629.304 121.446 619.612 121.392 609.487V42.4549C121.392 32.2937 125.423 22.5486 132.597 15.3636C139.772 8.17848 149.503 4.14194 159.65 4.14194H391.264ZM391.264 3.04958e-09H159.65C148.406 3.04959e-09 137.623 4.47292 129.673 12.4348C121.722 20.3966 117.256 31.1952 117.256 42.4549V609.487C117.256 615.052 118.354 620.563 120.487 625.702C122.62 630.842 125.746 635.508 129.685 639.434C133.625 643.36 138.3 646.467 143.442 648.578C148.584 650.689 154.092 651.762 159.65 651.735H391.264C402.453 651.735 413.183 647.284 421.095 639.361C429.007 631.438 433.451 620.692 433.451 609.487V42.4549C433.479 36.8894 432.407 31.3734 430.3 26.2238C428.192 21.0741 425.088 16.3923 421.168 12.4472C417.248 8.50219 412.588 5.37171 407.456 3.23562C402.325 1.09953 396.822 -6.6865e-05 391.264 3.04958e-09V3.04958e-09Z" fill="#989AAD"/>
<mask id="mask0_26173_41271" style="mask-type:alpha" maskUnits="userSpaceOnUse" x="131" y="16" width="288" height="619">
<path d="M418.976 44.7334V607.209C418.976 614.514 416.078 621.52 410.92 626.686C405.762 631.851 398.766 634.753 391.472 634.753H159.443C152.13 634.753 145.112 631.858 139.922 626.699C134.731 621.539 131.787 614.533 131.732 607.209V44.7334C131.732 37.3734 134.652 30.3148 139.849 25.1105C145.046 19.9062 152.094 16.9824 159.443 16.9824H198.528C200.157 17.0342 201.706 17.7055 202.858 18.8596C204.01 20.0137 204.681 21.564 204.732 23.1953V26.0947C204.705 27.5262 204.963 28.9489 205.491 30.2795C206.019 31.61 206.807 32.8218 207.808 33.8438C208.809 34.8658 210.004 35.6777 211.322 36.2318C212.641 36.7859 214.056 37.0711 215.486 37.0708H335.223C338.129 37.0708 340.917 35.9144 342.973 33.856C345.028 31.7976 346.183 29.0058 346.183 26.0947V23.1953C346.235 21.564 346.905 20.0137 348.057 18.8596C349.21 17.7055 350.758 17.0342 352.387 16.9824H391.472C395.101 16.9823 398.695 17.7016 402.045 19.0987C405.396 20.4959 408.437 22.5433 410.994 25.1229C413.55 27.7026 415.572 30.7635 416.942 34.1292C418.312 37.495 419.003 41.0989 418.976 44.7334Z" fill="#36393F"/>
</mask>
<g mask="url(#mask0_26173_41271)">
<path d="M418.976 44.7334V607.209C418.976 614.514 416.078 621.52 410.92 626.686C405.762 631.851 398.766 634.753 391.472 634.753H159.443C152.13 634.753 145.112 631.858 139.922 626.699C134.731 621.539 131.787 614.533 131.732 607.209V44.7334C131.732 37.3734 134.652 30.3148 139.849 25.1105C145.046 19.9062 152.094 16.9824 159.443 16.9824H198.528C200.157 17.0342 201.706 17.7055 202.858 18.8596C204.01 20.0137 204.681 21.564 204.732 23.1953V26.0947C204.705 27.5262 204.963 28.9489 205.491 30.2795C206.019 31.61 206.807 32.8218 207.808 33.8438C208.809 34.8658 210.004 35.6777 211.322 36.2318C212.641 36.7859 214.056 37.0711 215.486 37.0708H335.223C338.129 37.0708 340.917 35.9144 342.973 33.856C345.028 31.7976 346.183 29.0058 346.183 26.0947V23.1953C346.235 21.564 346.905 20.0137 348.057 18.8596C349.21 17.7055 350.758 17.0342 352.387 16.9824H391.472C395.101 16.9823 398.695 17.7016 402.045 19.0987C405.396 20.4959 408.437 22.5433 410.994 25.1229C413.55 27.7026 415.572 30.7635 416.942 34.1292C418.312 37.495 419.003 41.0989 418.976 44.7334Z" fill="#292841"/>
<g clip-path="url(#clip1_26173_41271)">
<rect x="131.01" y="16.6445" width="289.393" height="518.917" rx="8" fill="#292841"/>
<path d="M188.848 69.8093C188.848 67.7336 189.728 66.7349 190.96 66.7349C191.762 66.7349 192.212 66.872 192.798 67.1462V71.1996C192.173 72.0024 191.508 72.5116 190.647 72.5116C189.611 72.5116 188.848 71.65 188.848 69.8093ZM186.482 69.9463C186.482 73.1382 188.066 74.6068 190.041 74.6068C191.351 74.6068 192.27 73.9019 192.935 73.099L193.131 74.411H195.145V60.2729L192.798 60.645V65.2076C192.231 65.0117 191.508 64.8551 190.608 64.8551C188.418 64.8551 186.482 66.4216 186.482 69.9463Z" fill="white"/>
<path d="M203.221 67.0874L202.849 64.7572C201.383 64.8355 200.444 65.7558 199.818 66.8524L199.525 64.953H197.53V74.411H199.877V68.9868C200.561 67.9686 201.754 67.1853 203.221 67.0874Z" fill="white"/>
<path d="M209.529 71.8066C208.883 72.4332 208.121 72.8249 207.319 72.8249C206.596 72.8249 206.166 72.4136 206.166 71.7283C206.166 70.8275 206.811 70.0247 209.529 69.6918V71.8066ZM211.875 74.411V67.9294C211.875 65.6579 210.663 64.7572 208.219 64.7572C206.713 64.7572 205.559 65.0901 204.464 65.5209L204.758 67.4007C205.774 66.9503 206.811 66.637 207.906 66.637C208.942 66.637 209.529 67.0287 209.529 68.0469V68.3211C205.716 68.6931 203.839 69.6918 203.839 71.9828C203.839 73.6277 204.914 74.6068 206.517 74.6068C207.925 74.6068 208.903 73.9802 209.666 73.1773L209.861 74.411H211.875Z" fill="white"/>
<path d="M226.621 64.953H224.373L222.75 71.1996L221.049 64.953H218.976L217.275 71.2192L215.613 64.8159L213.227 65.1292L216.043 74.4306H218.194L219.895 68.184L221.635 74.4306H223.786L226.621 64.953Z" fill="white"/>
<path d="M230.838 62.0353C230.838 61.2325 230.212 60.6646 229.45 60.6646C228.668 60.6646 228.042 61.2325 228.042 62.0353C228.042 62.8186 228.668 63.3669 229.45 63.3669C230.212 63.3669 230.838 62.8186 230.838 62.0353ZM230.604 74.411V64.953H228.257V74.411H230.604Z" fill="white"/>
<path d="M241.142 74.411V67.5965C241.142 65.8342 240.203 64.7572 238.444 64.7572C237.173 64.7572 236.175 65.4425 235.295 66.2846L235.08 64.953H233.086V74.411H235.432V68.0273C236.117 67.3028 236.86 66.8328 237.583 66.8328C238.444 66.8328 238.796 67.4007 238.796 68.2231V74.411H241.142Z" fill="white"/>
<path d="M248.616 68.0273C248.616 69.0652 247.99 69.8289 246.954 69.8289C245.937 69.8289 245.311 69.0847 245.311 68.1057C245.311 67.0678 245.917 66.265 246.954 66.265C247.951 66.265 248.616 67.0287 248.616 68.0273ZM251.96 74.8026C251.96 73.3536 250.747 72.7465 248.811 72.4724L247.599 72.3549C246.133 72.1395 245.839 72.0612 245.839 71.7479C245.839 71.5912 245.996 71.415 246.23 71.2387C246.465 71.2779 246.719 71.2975 246.993 71.2975C249.027 71.2975 250.767 70.0834 250.767 68.0469C250.767 67.6161 250.689 67.1853 250.513 66.8133L252.233 66.6958L251.92 64.8159L249.613 65.6384C248.929 65.0705 248.029 64.7572 246.934 64.7572C244.822 64.7572 243.141 66.03 243.141 68.1057C243.141 69.3589 243.806 70.338 244.92 70.8667C244.138 71.3367 243.727 71.8458 243.727 72.3745C243.727 72.7465 243.903 73.099 244.275 73.3927C243.102 74.0585 242.496 74.7439 242.496 75.6251C242.496 77.1916 244.431 77.9749 246.993 77.9749C249.73 77.9749 251.96 76.8391 251.96 74.8026ZM247.149 76.5846C245.37 76.5846 244.529 76.0754 244.529 75.3705C244.529 74.881 244.842 74.4306 245.526 73.941C245.996 74.0389 246.289 74.0977 246.934 74.176L248.205 74.3327C249.378 74.5089 249.789 74.8026 249.789 75.3118C249.789 76.0167 248.831 76.5846 247.149 76.5846Z" fill="white"/>
<path d="M258.366 69.9072V67.6357H253.282V69.9072H258.366Z" fill="white"/>
<path d="M267.586 73.6865L267.273 71.6695C266.413 72.3353 265.611 72.5703 264.79 72.5703C263.421 72.5703 262.346 71.6304 262.346 69.6722C262.346 67.7924 263.323 66.7937 264.712 66.7937C265.65 66.7937 266.393 67.107 267.156 67.6749L267.488 65.56C266.804 65.1292 265.826 64.7572 264.594 64.7572C262.033 64.7572 259.98 66.4412 259.98 69.7309C259.98 72.8249 261.837 74.5872 264.457 74.5872C265.709 74.5872 266.687 74.2935 267.586 73.6865Z" fill="white"/>
<path d="M271.907 74.411V60.2729L269.56 60.645V74.411H271.907Z" fill="white"/>
<path d="M274.35 64.953V71.7479C274.35 73.5298 275.269 74.6068 277.048 74.6068C278.3 74.6068 279.317 73.9214 280.196 73.0794L280.412 74.411H282.406V64.953H280.06V71.3367C279.375 72.0416 278.632 72.5116 277.909 72.5116C277.048 72.5116 276.696 71.9633 276.696 71.1408V64.953H274.35Z" fill="white"/>
<path d="M293.38 69.4176C293.38 66.2454 291.816 64.7572 289.821 64.7572C288.628 64.7572 287.749 65.3838 287.142 66.0104V60.2729L284.796 60.645V73.9019C285.969 74.2935 287.201 74.5285 288.668 74.5285C291.483 74.5285 293.38 72.9032 293.38 69.4176ZM291.014 69.5547C291.014 71.7087 290.115 72.6095 288.628 72.6095C287.964 72.6095 287.631 72.5311 287.142 72.3549V68.0665C287.729 67.3616 288.433 66.8328 289.215 66.8328C290.271 66.8328 291.014 67.7336 291.014 69.5547Z" fill="white"/>
<g clip-path="url(#clip2_26173_41271)">
<path d="M275.706 95.9507H420.402V232.044H275.706V95.9507Z" fill="#5E87F9"/>
<path d="M445.196 175.459C427.474 170.611 406.51 177.015 400.158 191.336C381.103 185.243 359.073 196.54 348.679 209.837H445.196V175.459Z" fill="#6E94FF"/>
<path d="M254.205 154.912C265.798 152.955 279.478 155.535 283.653 161.317C296.09 158.87 310.481 163.451 317.276 168.788H254.205V154.912Z" fill="#7A9DFF"/>
<path d="M299.643 216.286C303.197 208.681 303.108 208.37 309.415 206.102L301.02 218.154L299.643 216.286Z" fill="#FF707E"/>
<path d="M397.093 149.219L396.694 149.575L395.85 150.376L395.539 150.642L394.873 151.221C380.037 163.985 361.027 169.366 348.146 173.235C331.535 178.216 317.721 179.684 307.372 179.728C293.914 179.595 291.205 172.568 296.89 164.207L300.088 160.249L316.522 140.236L317.321 139.257C328.159 126.404 337.886 120.622 358.362 125.07L389.498 131.83H389.587C400.469 134.232 405.577 140.858 397.093 149.219Z" fill="url(#paint3_linear_26173_41271)"/>
<path d="M361.249 127.56C373.686 130.629 395.006 136.855 395.006 136.855L400.158 137.567C398.337 134.943 394.562 132.942 389.587 131.83H389.498L358.362 125.07C348.68 122.98 341.44 123.202 335.31 125.292C344.771 123.024 350.279 124.847 361.249 127.56Z" fill="#FFFDC4"/>
<path d="M349.079 174.881C360.006 171.59 383.369 162.295 392.43 153.222C390.298 155.357 392.385 151.532 388.299 153.534C366.801 164.029 317.988 178.217 307.372 179.729C317.766 180.351 337.931 178.217 349.079 174.881Z" fill="#FFFDC4"/>
<path d="M399.58 136.855C389.986 133.965 368.355 136.589 344.37 144.105C319.364 151.932 299.51 162.739 294.18 170.7C293.558 175.904 297.644 179.639 307.371 179.728C317.098 179.817 331.534 178.216 348.146 173.235C361.026 169.366 380.037 163.985 394.872 151.221L395.538 150.642L395.849 150.376L396.693 149.575L397.093 149.219C402.023 144.327 402.334 140.058 399.58 136.855Z" fill="url(#paint4_linear_26173_41271)"/>
<path d="M307.159 173.227C305.758 168.75 323.503 159.196 346.794 151.888C370.085 144.58 390.102 142.284 391.503 146.761C392.904 151.238 375.159 160.791 351.868 168.1C328.577 175.408 308.56 177.704 307.159 173.227Z" fill="#6B3143"/>
<path d="M391.319 148.375C391.582 147.869 391.661 147.287 391.541 146.729C391.441 146.479 391.289 146.251 391.097 146.062L367.068 156.38L385.101 144.506C384.317 144.461 383.531 144.461 382.747 144.506L366.046 155.669C365.059 155.532 364.057 155.532 363.07 155.669L372.22 145.617L368.755 146.24L361.738 155.846C360.316 156.024 358.673 156.336 356.852 156.736L362.093 147.663L358.984 148.419L355.519 157.047L352.232 157.937L354.631 149.576C353.387 149.872 352.144 150.228 350.9 150.643L349.745 158.559H350.012L349.123 158.871L346.592 151.933L343.793 152.867L348.191 159.138L345.97 159.894L339.663 154.245L336.331 155.446L344.104 160.561L341.795 161.45L332.156 157.047L328.07 158.693L340.018 162.162L337.22 163.451L320.297 162.295C318.876 163.007 317.499 163.718 316.255 164.43H335.354L334.022 165.275L310.792 167.988C309.792 168.706 308.882 169.542 308.082 170.478L332.911 166.298C332.835 166.38 332.779 166.479 332.748 166.588C332.717 166.696 332.712 166.81 332.734 166.92C332.771 167.017 332.831 167.104 332.908 167.173C332.985 167.243 333.078 167.293 333.178 167.321L307.461 173.725C307.86 174.259 308.66 174.703 309.815 175.015L335.621 167.543C337.009 167.467 338.389 167.288 339.751 167.009L319.231 175.237C320.208 175.193 321.274 175.059 322.385 174.926L342.416 166.476L343.127 166.342L330.246 173.636C332.201 173.236 334.244 172.835 336.376 172.302L345.659 165.72L350.678 164.252C352.81 163.585 354.809 162.873 356.63 162.206L364.536 163.674C367.201 162.695 369.688 161.673 371.998 160.65L359.916 160.872H359.961L378.483 157.67C380.57 156.602 382.48 155.58 384.123 154.601L363.647 159.138L364.98 158.381L391.319 148.375Z" fill="#7A384C"/>
<path d="M283.964 231.808H391.63C389.72 229.851 387.41 228.65 383.724 226.96L375.418 225.804L372.353 225.403L365.691 224.469L360.627 223.802L357.607 223.402L356.319 223.224L343.838 221.534L340.951 221.134L336.243 220.511L334.377 220.244L330.735 219.755L329.847 219.622L321.763 218.51L302.575 215.93L301.598 215.797C301.021 215.753 300.442 215.753 299.865 215.797C290.76 216.019 287.607 220.067 283.964 231.808Z" fill="#2347A1"/>
<path d="M300.131 227.538L303.507 231.807H323.184L312.257 220.778L307.46 223.446L300.131 227.538Z" fill="#2A52C2"/>
<path d="M301.598 215.797L302.131 216.554C302.309 216.731 302.442 216.998 302.664 217.265L303.242 218.021C304.263 219.355 305.685 221.223 307.461 223.447L311.636 228.517L313.013 230.118C313.502 230.652 313.946 231.23 314.435 231.808H382.969C383.502 228.828 383.724 226.96 383.724 226.96C383.731 226.496 383.61 226.04 383.375 225.64C383.14 225.24 382.8 224.912 382.392 224.692L376.174 221.09H376.129V220.645C376.129 220.467 376.174 220.334 376.174 220.2C376.174 220.067 376.262 218.777 376.262 218.244V217.665C376.295 217.4 376.31 217.132 376.307 216.865C376.329 216.808 376.344 216.748 376.351 216.687L376.573 212.951C376.616 212.21 376.476 211.469 376.167 210.795C375.857 210.12 375.386 209.532 374.797 209.082L366.58 202.589L365.869 202.011L363.559 200.232L357.83 195.74L354.587 195.295H354.543L350.234 194.628H350.19L344.327 193.783L342.639 193.516L338.286 192.849L336.199 192.538H335.843L334.689 192.715L333.178 192.938L330.114 193.427C328.776 193.641 327.498 194.136 326.365 194.879C325.232 195.623 324.269 196.598 323.54 197.741L320.164 202.945L319.898 203.033L317.81 203.656L310.837 205.746L309.416 206.147L308.483 206.502H308.394C306.526 207.329 305.014 208.795 304.13 210.639L301.598 215.797Z" fill="#EF6270"/>
<path d="M317.81 203.611C319.453 199.475 320.341 194.583 330.735 192.493L338.419 191.336L337.797 197.607L323.273 207.214L317.81 203.611Z" fill="#FF707E"/>
<path d="M301.598 215.797L302.131 216.553C302.309 216.731 302.442 216.998 302.664 217.265L303.242 218.021C304.263 219.355 305.684 221.223 307.461 223.446L311.636 228.517L313.013 230.118L314.479 231.808H346.592C345.837 229.139 344.727 225.136 344.194 222.868C344.107 222.416 343.988 221.97 343.838 221.534C343.083 218.732 342.461 216.998 347.125 216.286L346.636 213.84L344.504 203.033L343.971 200.142L343.527 198.052L342.817 194.494L342.639 193.56L338.286 192.893L336.199 192.582H335.843L334.688 192.759L333.178 192.982L330.113 193.471C328.776 193.685 327.498 194.179 326.365 194.923C325.232 195.667 324.269 196.642 323.54 197.785L320.164 202.988L319.898 203.077L317.81 203.7L310.837 205.79L309.415 206.191L308.483 206.546H308.394C306.526 207.373 305.014 208.839 304.13 210.682L301.598 215.797Z" fill="#E05164"/>
<path d="M331.179 204.234C325.938 200.276 326.293 200.587 329.224 198.675C330.988 197.521 333.028 196.861 335.132 196.762L331.179 204.234Z" fill="#BD3C53"/>
<path d="M329.847 219.622L338.419 231.808H344.859C341.35 227.983 337.664 223.936 334.377 220.245C329.713 214.908 325.849 210.238 324.383 207.97L324.828 210.861L325.138 212.906L329.847 219.622Z" fill="#E05164"/>
<path d="M318.831 227.138C320.605 228.801 322.474 230.36 324.427 231.808H332.467C328.691 230.206 323.717 227.894 320.474 225.848C315.589 222.779 316.21 224.692 318.831 227.138Z" fill="#E05164"/>
<path d="M368.134 205.479C373.953 210.549 376.84 209.17 363.115 228.027L359.828 225.848L350.234 215.085L362.405 199.742L368.134 205.479Z" fill="#C74153"/>
<path d="M366.357 154.912C366.002 153.756 358.14 155.09 348.724 157.892C339.308 160.694 332.023 163.896 332.334 165.052C334.289 180.707 333.978 194.583 331.179 204.234L359.828 225.848C371.82 196.94 368.178 171.323 366.357 154.912Z" fill="#FFB685"/>
<path d="M353.742 194.672L342.638 194.494L341.439 200.987C345.792 205.346 352.143 203.611 355.386 200.721C359.65 204.456 363.825 204.412 366.756 201.121L366.845 201.032C367.112 199.253 367.378 197.474 367.556 195.695C363.025 194.361 353.742 194.672 353.742 194.672Z" fill="#FE9B77"/>
<path d="M342.638 212.106C345.392 193.293 344.77 170.656 344.415 159.271C337.22 161.672 332.067 164.074 332.334 165.052C334.288 180.707 333.977 194.583 331.179 204.234L342.638 212.106Z" fill="#FE9B77"/>
<g style="mix-blend-mode:multiply" opacity="0.4">
<path d="M366.357 154.912C366.002 153.756 358.14 155.09 348.724 157.892C339.307 160.694 332.023 163.896 332.334 165.052C332.601 167.053 332.823 169.01 333 170.967C343.216 169.722 357.385 171.323 368.134 174.614C367.778 167.142 366.979 160.471 366.357 154.912Z" fill="#A8387E"/>
</g>
<path d="M355.874 131.163L361.204 132.186L359.65 134.677L355.874 131.163Z" fill="#FFCD8F"/>
<path d="M346.754 186.129C346.12 184.992 346.266 183.702 347.079 183.246C347.893 182.791 349.067 183.343 349.701 184.48C350.335 185.616 350.19 186.906 349.376 187.362C348.563 187.817 347.389 187.265 346.754 186.129Z" fill="#543247"/>
<path d="M341.44 125.915C341.44 125.915 344.193 125.693 345.393 126.627C344.016 128.228 341.44 125.915 341.44 125.915Z" fill="#FFD08F"/>
<path d="M350.233 125.87C356.096 124.492 356.585 127.56 356.585 127.56L350.233 125.87Z" fill="#FFFDC4"/>
<path d="M307.105 162.161C307.416 164.296 312.169 165.675 312.169 165.675L310.215 167.187C305.284 167.053 303.996 164.563 303.996 164.563C304.905 163.609 305.954 162.8 307.105 162.161V162.161Z" fill="#D4655B"/>
<path d="M294.492 171.412C295.291 173.769 305.463 172.346 305.463 172.346L305.773 173.547C298.267 174.881 295.025 174.214 295.025 174.214C295.025 174.214 294.58 173.502 294.492 171.412Z" fill="#D4655B"/>
<path d="M331.934 149.575C332.511 152.332 335.887 154.2 335.887 154.2L341.395 152.51C339.84 150.286 339.174 147.218 339.174 147.218C339.174 147.218 335.398 148.241 331.934 149.575Z" fill="#DC7363"/>
<path d="M368.312 231.719L368.445 231.808H374.041C374.486 230.073 374.974 227.894 375.418 225.804C375.863 223.713 376.085 222.201 376.173 221.045V220.6C376.173 220.422 376.218 220.289 376.218 220.156C376.218 220.022 376.307 218.732 376.307 218.199V217.621C376.339 217.355 376.354 217.088 376.351 216.82C376.373 216.763 376.388 216.703 376.396 216.642C375.306 219.683 373.938 222.615 372.309 225.403C370.843 227.938 369.378 230.162 368.312 231.719Z" fill="#D14658"/>
<path d="M310.837 205.701C314.232 210.176 317.88 214.453 321.763 218.51C326.383 223.446 331.268 228.25 335.133 231.807H339.663C337.22 228.65 334.022 224.38 330.735 219.755C328.737 216.864 326.693 213.84 324.828 210.86C323.895 209.393 323.007 207.925 322.163 206.502C321.452 205.301 320.786 204.145 320.164 202.988H319.898L317.81 203.611L310.837 205.701Z" fill="#CC4355"/>
<path d="M325.716 202.944L339.885 216.642L342.639 228.605L327.093 208.903L325.716 202.944Z" fill="#E65568"/>
<path d="M360.672 223.669L331.49 203.211L330.957 202.811C330.113 202.055 329.447 202.055 331.179 204.234L359.828 225.848L360.672 223.669Z" fill="#BD3C53"/>
<path d="M289.028 140.858L292.715 139.213C292.759 139.213 292.759 139.079 292.715 139.079L289.028 137.434H288.984L287.34 133.742C287.34 133.698 287.207 133.698 287.207 133.742L285.564 137.434H285.519L281.833 139.079C281.788 139.079 281.788 139.213 281.833 139.213L285.519 140.858H285.564L287.207 144.55H287.34L288.984 140.858H289.028Z" fill="#FF99B9"/>
<path d="M415.57 198.497L419.257 196.851C419.28 196.851 419.303 196.842 419.32 196.825C419.336 196.808 419.346 196.786 419.346 196.762C419.346 196.738 419.336 196.716 419.32 196.699C419.303 196.682 419.28 196.673 419.257 196.673L415.57 195.028H415.526L413.882 191.381C413.882 191.292 413.794 191.292 413.749 191.381L412.106 195.028H412.061L408.375 196.673C408.353 196.698 408.341 196.729 408.341 196.762C408.341 196.795 408.353 196.827 408.375 196.851L412.061 198.497H412.106L413.749 202.143C413.794 202.232 413.882 202.232 413.882 202.143L415.526 198.497H415.57Z" fill="#5580F9"/>
<path d="M307.461 151.31C313.369 145.928 318.299 143.705 318.299 143.705C312.791 144.816 308.838 146.64 307.461 151.31Z" fill="#EB9363"/>
<path d="M367.423 127.561L376.795 129.606C375.685 127.472 374.441 127.071 367.423 127.561Z" fill="#FFFDC4"/>
<path d="M350.455 199.875C354.319 199.875 358.006 199.786 359.161 200.765C360.316 201.743 358.494 204.011 355.652 206.146C354.408 207.08 353.831 207.169 350.855 204.545C348.678 202.677 347.479 199.831 350.455 199.875Z" fill="#C74153"/>
<path d="M352.055 200.053L348.812 200.587C348.368 201.521 349.345 203.255 350.855 204.545C353.831 207.169 354.409 207.08 355.652 206.146L356.94 205.079C356.452 203.922 354.897 200.987 352.055 200.053Z" fill="#A82C3C"/>
<path d="M357.829 200.231C356.142 199.831 353.343 199.875 350.456 199.875C348.813 199.831 348.457 200.72 348.813 201.788L357.607 201.965C358.096 201.965 358.007 200.987 357.829 200.231Z" fill="white"/>
<path d="M370.665 194.761C371.554 193.204 371.065 190.714 369.155 189.424C369.264 189.715 369.308 190.027 369.284 190.337C369.261 190.647 369.169 190.949 369.017 191.22C368.865 191.491 368.655 191.725 368.403 191.907C368.15 192.088 367.861 192.213 367.556 192.271C366.49 192.448 364.536 192.048 363.692 191.737C361.338 190.847 358.673 190.803 355.475 192.448C351.122 190.091 348.191 192.137 344.238 192.137C343.155 192.148 342.078 191.998 341.04 191.692C337.708 190.714 337.753 189.113 338.508 187.423C333.755 188.535 333.977 193.605 336.065 195.828C337.309 197.385 339.618 198.097 342.683 197.341C347.48 201.432 349.834 201.699 355.475 198.097C360.05 201.921 364.447 201.521 367.068 196.718C367.068 196.718 369.733 196.496 370.665 194.761Z" fill="#6B3143"/>
<path d="M355.475 198.096C360.05 201.921 364.447 201.521 367.068 196.718C367.068 196.718 371.199 196.362 371.11 193.204C370.577 194.449 368.401 195.65 366.357 195.205C363.071 197.874 359.562 197.073 356.275 194.538C356.275 194.538 349.301 198.274 344.371 194.183C338.73 195.561 334.733 192.982 335.399 189.424C334.067 191.425 334.644 194.316 336.065 195.828C337.309 197.385 339.619 198.096 342.683 197.34C347.48 201.432 349.834 201.699 355.475 198.096Z" fill="#5E2737"/>
<path d="M359.93 187.348C359.118 187.001 358.849 185.804 359.331 184.674C359.812 183.545 360.86 182.91 361.673 183.257C362.485 183.604 362.753 184.801 362.272 185.931C361.791 187.06 360.742 187.695 359.93 187.348Z" fill="#543247"/>
</g>
<g clip-path="url(#clip3_26173_41271)">
<rect width="144.696" height="136.093" transform="matrix(-1 0 0 1 275.706 95.9507)" fill="#F7E5BC"/>
<path d="M304.993 129.24H131.068V231.821H304.993V129.24Z" fill="#F7E5BC"/>
<path d="M304.995 223.295V186.556C297.229 183.68 278.906 188.541 270.453 200.247C260.503 190.12 241.331 189.472 223.695 200.247C218.963 188.379 201.247 179.751 178.111 188.136C176.372 174.12 150.728 161.888 131.07 178.293V231.841H296.461C298.721 231.831 300.885 230.927 302.484 229.326C304.082 227.726 304.984 225.558 304.995 223.295V223.295Z" fill="#6ADBC6"/>
<path d="M237.892 197.614C257.065 197.735 273.446 206.89 281.333 231.882H223.695L237.892 197.614Z" fill="#44C9C5"/>
<path d="M257.671 231.841H304.995V209.806C293.507 210.981 272.677 215.396 257.671 231.841Z" fill="#44C9C5"/>
<path d="M269.562 221.431H166.258C159.746 227.629 159.423 231.841 159.423 231.841H277.287C277.287 231.841 274.092 224.955 269.562 221.431Z" fill="#FAFAFA"/>
<path d="M271.99 225.968C272.331 225.683 272.559 225.286 272.633 224.848C272.707 224.409 272.622 223.959 272.394 223.578C270.897 221.107 270.412 219.163 267.015 217.381C263.617 215.598 261.392 213.451 251.038 212.115C248.934 206.687 249.379 205.026 233.726 203.811H190.447C183.328 204.945 182.843 204.945 181.589 209.158C180.335 213.37 180.376 212.844 176.655 214.343C172.933 215.841 167.149 216.125 164.925 221.067C164.197 222.687 163.914 223.861 168.161 231.841H263.536C266.522 230.139 269.351 228.173 271.99 225.968Z" fill="#CC4F79"/>
<path d="M237.892 205.553C245.375 206.849 245.091 206.849 240.036 212.803C234.98 218.758 228.548 224.266 221.308 227.223C209.983 231.841 200.276 227.507 194.37 220.621C185.795 210.616 182.115 205.553 189.355 205.553H237.892Z" fill="#590942"/>
<path d="M260.259 149.209L256.902 147.71C256.881 147.71 256.86 147.702 256.845 147.687C256.83 147.671 256.821 147.651 256.821 147.629C256.821 147.608 256.83 147.587 256.845 147.572C256.86 147.557 256.881 147.548 256.902 147.548L260.259 146.05C260.27 146.05 260.28 146.045 260.288 146.038C260.296 146.03 260.3 146.02 260.3 146.009L261.796 142.647C261.796 142.607 261.877 142.607 261.918 142.647L263.414 146.009C263.414 146.05 263.414 146.05 263.455 146.05L266.812 147.548C266.832 147.571 266.843 147.599 266.843 147.629C266.843 147.659 266.832 147.688 266.812 147.71L263.455 149.209H263.414L261.918 152.571C261.877 152.652 261.796 152.652 261.796 152.571L260.3 149.209H260.259Z" fill="#FAFAFA"/>
<path d="M166.016 153.949L163.832 152.976C163.792 152.976 163.792 152.895 163.832 152.895L166.016 151.923C166.016 151.913 166.021 151.902 166.028 151.895C166.036 151.887 166.046 151.883 166.057 151.883L167.027 149.695C167.027 149.655 167.108 149.655 167.108 149.695L168.079 151.883H168.12L170.304 152.895C170.344 152.895 170.344 152.976 170.304 152.976L168.12 153.949C168.12 153.959 168.115 153.97 168.108 153.977C168.1 153.985 168.09 153.989 168.079 153.989L167.108 156.176H167.027L166.057 153.989C166.016 153.989 166.016 153.989 166.016 153.949Z" fill="#F7D78D"/>
<path d="M195.341 172.662C192.429 164.561 187.332 158.647 184.906 157.554C182.479 156.46 183.085 157.837 185.35 164.683C187.616 171.528 187.656 182.748 191.863 182.829C196.069 182.91 195.341 172.662 195.341 172.662Z" fill="#2E64E8"/>
<path d="M190.002 174.809C188.263 171.325 188.142 169.624 187.454 166.991C187.09 165.573 186.564 163.589 186.119 162.009C188.222 165.776 191.903 174.161 192.672 176.834C193.44 179.507 191.741 178.252 190.002 174.809Z" fill="#1C4BBA"/>
<path d="M233.725 173.189C237.851 164.561 244.444 158.444 247.478 157.432C250.511 156.419 249.702 157.837 246.466 165.128C243.231 172.419 242.422 184.692 237.285 184.49C232.148 184.287 233.725 173.189 233.725 173.189Z" fill="#2E64E8"/>
<path d="M218.356 150.06C223.069 150.06 226.89 146.233 226.89 141.513C226.89 136.793 223.069 132.966 218.356 132.966C213.642 132.966 209.821 136.793 209.821 141.513C209.821 146.233 213.642 150.06 218.356 150.06Z" fill="#201E2F"/>
<path d="M226.49 143.747C226.779 141.551 223.225 139.271 218.552 138.655C213.879 138.039 209.856 139.32 209.568 141.515C209.279 143.711 212.833 145.991 217.506 146.607C222.179 147.223 226.202 145.942 226.49 143.747Z" fill="#41314A"/>
<path d="M232.634 148.358C223.816 140.095 209.336 139.042 199.386 146.211C189.436 153.381 191.499 164.561 193.117 176.834L235.223 178.049C236.962 171.366 241.411 156.662 232.634 148.358Z" fill="#4D7AE8"/>
<path d="M236.193 174.404L193.642 173.148C185.836 190.323 178.07 222.282 213.138 223.295C246.588 224.267 244 193.766 236.193 174.404Z" fill="#4D7AE8"/>
<path d="M236.193 174.404C238.013 166.91 240.035 155.366 232.633 148.359L231.825 147.67H229.6C229.6 147.67 230.53 162.131 229.762 167.882C228.993 173.634 229.276 174.242 231.016 175.011C232.755 175.781 234.373 176.713 234.049 184.085C233.726 191.457 233.281 192.429 234.899 201.178C236.516 209.928 234.332 215.517 229.762 220.135C245.253 211.912 242.341 189.715 236.193 174.404Z" fill="#2E64E8"/>
<path d="M203.309 207.497C207.92 213.695 220.378 215.274 225.434 207.74C227.982 203.973 221.268 203.771 214.473 203.811C207.677 203.852 200.842 204.135 203.309 207.497Z" fill="#3366E0"/>
<path d="M220.89 175.34C220.998 171.695 218.28 168.657 214.819 168.555C211.358 168.452 208.465 171.323 208.357 174.968C208.249 178.613 210.967 181.651 214.428 181.754C217.889 181.857 220.782 178.985 220.89 175.34Z" fill="#DBE7FF"/>
<path d="M216.933 176.167C216.999 174.759 215.968 173.566 214.629 173.503C213.29 173.44 212.151 174.53 212.085 175.938C212.019 177.346 213.05 178.538 214.389 178.601C215.728 178.665 216.867 177.575 216.933 176.167Z" fill="#201E2F"/>
<path d="M207.799 163.67C210.428 158.161 220.135 158.728 222.36 164.115L207.799 163.67Z" fill="#201E2F"/>
<path d="M205.373 186.717L206.546 187.123L207.718 187.406L208.891 187.69L210.064 187.852C213.251 188.234 216.483 187.845 219.489 186.717L220.621 186.272L221.713 185.745L222.805 185.178L223.898 184.53H224.019C224.366 184.339 224.748 184.218 225.142 184.175C225.536 184.133 225.935 184.169 226.315 184.282C226.695 184.395 227.049 184.583 227.356 184.834C227.663 185.085 227.918 185.395 228.104 185.745C228.351 186.209 228.473 186.729 228.459 187.255C228.444 187.78 228.294 188.293 228.023 188.743C226.725 190.848 224.916 192.59 222.765 193.806C220.616 195.04 218.239 195.827 215.779 196.119C213.319 196.412 210.825 196.204 208.447 195.507C206.08 194.79 203.936 193.479 202.218 191.7C201.66 191.119 201.355 190.341 201.371 189.536C201.386 188.731 201.72 187.965 202.299 187.406C202.685 187.052 203.156 186.803 203.665 186.683C204.175 186.562 204.707 186.574 205.211 186.717H205.373Z" fill="#400015"/>
<path d="M204.078 193.279C205.412 194.231 206.886 194.969 208.446 195.467C210.825 196.163 213.319 196.371 215.779 196.079C218.239 195.787 220.616 195 222.765 193.766C224.295 192.884 225.663 191.747 226.81 190.404C225.039 188.659 222.971 187.246 220.702 186.231H220.621L219.489 186.677C216.483 187.805 213.251 188.194 210.064 187.811L208.891 187.649H208.77C206.781 189.126 205.173 191.056 204.078 193.279Z" fill="#590942"/>
<path d="M225.92 188.297L226.041 184.206C225.355 184.037 224.631 184.139 224.018 184.49H223.897L222.805 185.138L221.713 185.705L220.621 186.232L219.488 186.677C216.483 187.805 213.251 188.194 210.064 187.811L208.891 187.649L207.718 187.366L206.545 187.082L205.372 186.677H205.21C204.815 186.569 204.403 186.542 203.997 186.596L203.916 188.702C211.965 192.631 221.066 190.404 225.92 188.297Z" fill="#DBE7FF"/>
<path d="M206.909 187.204L206.545 187.123L205.372 186.718H205.21C204.815 186.61 204.403 186.583 203.997 186.637L203.916 188.743C204.744 189.133 205.595 189.471 206.464 189.756L206.909 187.204Z" fill="#B5CDFF"/>
<path d="M221.43 189.837C222.968 189.454 224.47 188.939 225.92 188.297L226.041 184.206C225.355 184.037 224.631 184.139 224.019 184.49H223.897L222.805 185.138L221.713 185.705L221.309 185.907L221.43 189.837Z" fill="#B5CDFF"/>
<path d="M224.544 180.844L230.773 183.963C230.854 180.196 227.739 179.751 224.544 180.844Z" fill="#3366E0"/>
<path d="M197.363 189.148L203.107 183.477C198.739 183.355 196.999 186.272 197.363 189.148Z" fill="#3366E0"/>
<path d="M200.802 194.94C202.743 197.695 204.725 200.247 204.725 200.247C200.761 199.923 200.802 194.94 200.802 194.94Z" fill="#3366E0"/>
<path d="M232.633 148.358C223.816 140.095 209.335 139.042 199.385 146.211C194.815 149.492 192.833 153.867 192.186 158.89C197.646 163.102 198.253 155.771 200.558 148.156C208.729 154.799 221.106 154.88 229.033 148.966L229.357 155.406C229.721 161.644 233.927 162.373 237.689 159.052C237.204 155.123 235.788 151.315 232.633 148.358Z" fill="#201E2F"/>
<path d="M205.258 158.306C206.291 157.253 206.69 155.967 206.148 155.434C205.606 154.901 204.329 155.322 203.296 156.375C202.263 157.429 201.864 158.714 202.406 159.248C202.947 159.781 204.224 159.359 205.258 158.306Z" fill="#618AED"/>
<path d="M244.971 161.564C242.776 164.723 240.815 168.04 239.106 171.488C238.094 173.594 239.146 173.877 239.47 176.429C239.793 178.981 240.602 177.766 241.654 173.432C242.705 169.098 243.272 167.559 244.323 165.209C245.375 162.86 247.155 158.404 244.971 161.564Z" fill="#1C4BBA"/>
<path d="M250.309 214.14C248.327 219.447 243.069 231.841 243.069 231.841H227.658C235.829 226.13 242.017 219.69 244.808 214.748C247.599 209.806 248.165 206.849 250.268 212.358C250.503 212.926 250.517 213.562 250.309 214.14V214.14Z" fill="#BA3B66"/>
<path d="M247.438 231.841C254.839 223.052 257.266 220.054 259.248 218.92C261.23 217.786 264.547 216.044 260.987 221.472C257.428 226.9 251.442 231.841 251.442 231.841H247.438Z" fill="#BA3B66"/>
<path d="M196.352 231.841C190.608 224.874 186.644 218.069 185.148 214.302C183.651 210.535 183.206 209.604 182.842 211.71C182.478 213.816 181.669 214.788 182.397 217.705C183.126 220.621 185.512 228.52 187.009 231.841H196.352Z" fill="#BA3B66"/>
<path d="M172.69 231.841H170.425C167.836 225.279 166.785 222.322 166.663 220.135C166.542 217.947 169.171 225.198 172.69 231.841Z" fill="#BA3B66"/>
<path d="M182.114 231.882H177.342C176.088 222.363 176.088 220.5 176.371 217.826C176.654 215.153 177.989 217.462 178.959 222.242C179.694 225.551 180.75 228.78 182.114 231.882V231.882Z" fill="#BA3B66"/>
<path d="M162.943 213.249C167.19 206.363 171.761 203.001 177.302 199.963C182.843 196.925 183.571 195.183 179.486 193.806C175.401 192.429 171.882 192.956 166.988 194.981C162.094 197.006 158.615 198.181 157.119 203.933C155.622 209.684 157.725 213.168 162.943 213.249Z" fill="#542113"/>
<path d="M164.358 206.039C166.987 194.981 168.767 186.596 170.466 179.062C172.164 171.528 174.066 167.153 171.153 165.817C168.241 164.48 166.664 164.966 162.821 173.553C158.979 182.141 157.28 188.338 156.026 192.794C154.772 197.249 150.565 209.361 164.358 206.039Z" fill="#542113"/>
<path d="M158.857 188.702L156.309 188.338C157.684 173.675 158.412 167.437 158.736 163.224C159.059 159.012 157.32 158.931 154.65 158.809C151.981 158.688 151.01 159.781 149.837 165.29C148.664 170.799 147.249 180.358 146.723 184.125C146.197 187.892 145.307 196.561 145.388 199.315C145.469 202.069 158.857 203.325 158.857 188.702Z" fill="#542113"/>
<path d="M146.48 192.389C146.885 186.677 146.035 171.447 145.955 168.612C145.874 165.776 144.863 166.1 142.436 166.019C140.009 165.938 138.998 167.032 138.674 173.715C138.35 180.399 137.825 187.649 137.906 191.011C136.159 195.745 135.496 200.812 135.964 205.837C136.449 211.143 137.137 212.561 138.108 214.221C139.078 215.882 144.863 217.745 152.264 218.474C159.666 219.203 160.354 218.15 162.943 213.249C165.531 208.348 160.678 195.143 160.678 195.143L146.48 192.389Z" fill="#542113"/>
<path d="M136.449 209.644C135.357 212.196 133.214 218.231 131.11 224.226C131.348 226.318 132.345 228.248 133.911 229.652C135.477 231.056 137.503 231.835 139.604 231.841H160.354C160.314 231.153 159.747 221.431 161.689 215.518C161.689 215.518 138.917 203.973 136.449 209.644Z" fill="#542113"/>
<path d="M161.689 198.221C156.916 201.259 155.581 202.717 154.408 204.824C153.235 206.93 152.103 207.132 147.775 207.213C143.447 207.294 143.366 207.375 142.152 202.231C140.939 197.087 142.759 194.9 147.451 195.102C153.68 195.345 164.56 196.601 161.689 198.221Z" fill="#4A1A0D"/>
<path d="M139.888 189.351H155.905C150.93 187.082 143.973 187.366 139.888 189.351Z" fill="#4A1A0D"/>
<path d="M158.776 190.079C161.163 190.93 165.814 192.915 165.814 192.915C162.417 187.892 158.776 190.079 158.776 190.079Z" fill="#4A1A0D"/>
<path d="M161.365 179.305C163.833 179.791 168.767 181.006 168.767 181.006C164.601 176.591 161.365 179.305 161.365 179.305Z" fill="#4A1A0D"/>
<path d="M149.312 175.821C151.617 176.024 156.269 176.591 156.269 176.591C151.779 172.784 149.312 175.821 149.312 175.821Z" fill="#4A1A0D"/>
<path d="M139.523 179.386C141.424 179.102 145.348 178.778 145.348 178.778C140.98 176.388 139.523 179.386 139.523 179.386Z" fill="#4A1A0D"/>
<path d="M181.67 194.94C177.949 197.776 172.407 198.343 167.109 201.057C161.81 203.771 160.88 206.647 159.424 210.616C158.499 213.242 157.729 215.92 157.118 218.636C160.192 218.312 161.082 216.773 162.943 213.249C167.19 206.363 171.76 203.001 177.302 199.963C181.468 197.735 182.924 196.196 181.67 194.94Z" fill="#732D1A"/>
<path d="M161.689 215.517L162.943 213.249C163.186 212.804 163.469 212.439 163.712 212.034C161.082 215.558 154.206 216.287 148.301 216.692C142.396 217.097 137.542 215.193 136.45 209.644C135.762 211.264 133.295 217.543 131.07 223.376V231.841H160.354C160.314 231.153 159.748 221.431 161.689 215.517Z" fill="#4A1A0D"/>
<path d="M171.194 165.816C171.578 167.232 171.606 168.721 171.274 170.151C170.506 173.837 168.767 181.006 165.086 195.75L166.906 195.062C168.281 189.067 169.414 183.882 170.465 179.062C172.164 171.609 174.065 167.194 171.194 165.816Z" fill="#732D1A"/>
<path d="M158.736 163.224C158.412 167.396 157.644 173.877 156.309 188.338L155.217 188.095L156.996 159.092C158.25 159.457 158.938 160.429 158.736 163.224Z" fill="#732D1A"/>
</g>
<rect width="144.696" height="136.093" transform="matrix(-1 0 0 1 420.402 232.044)" fill="#F7E5BC"/>
<mask id="mask1_26173_41271" style="mask-type:alpha" maskUnits="userSpaceOnUse" x="305" y="257" width="87" height="87">
<ellipse cx="348.054" cy="300.58" rx="43.0179" ry="43.0799" fill="#C4C4C4"/>
</mask>
<g mask="url(#mask1_26173_41271)">
<ellipse cx="348.054" cy="300.58" rx="43.0179" ry="43.0799" fill="#CFDEFF"/>
<path d="M396.138 358.387C395.321 356.368 393.971 354.61 392.232 353.3C390.493 351.991 388.431 351.18 386.267 350.954L381.748 350.476C375.27 327.092 378.548 321.781 359.408 316.538L343.915 315.994C343.915 315.994 328.173 316.261 322.381 324.022L330.473 350.597C330.473 350.597 327.155 368.237 328.661 377.179L348.841 374.567L357.583 402.899C390.556 397.993 405.918 382.69 405.918 382.69L396.138 358.387Z" fill="#CFDEFF"/>
<path d="M326.073 318.085C348.039 338.683 367.89 352.756 364.553 320.257L326.073 318.085Z" fill="#B8C5FF"/>
<path d="M336.855 320.513C355.982 329.51 360.946 332.904 359.695 322.089L336.855 320.513Z" fill="#5697B0"/>
<path d="M378.135 335.643C375.808 325.816 374.06 321.58 364.264 318.031C366.899 324.206 368.044 336.949 368.044 336.949L378.135 335.643Z" fill="white"/>
<path d="M345.489 288.157L344.789 282.724C344.554 280.951 343.762 279.3 342.527 278.009C341.292 276.717 339.679 275.852 337.921 275.539V275.539C335.99 275.202 334.001 275.556 332.304 276.54C330.607 277.524 329.309 279.074 328.639 280.919C326.176 287.612 322.328 298.379 319.674 307.434C315.448 321.863 334.554 325.197 353.328 323.759C372.102 322.32 373.872 314.088 371.276 302.171C369.611 294.738 367.502 287.15 366.187 282.433C365.785 281.116 365.008 279.946 363.953 279.064C362.897 278.182 361.607 277.627 360.242 277.466V277.466C358.711 277.288 357.164 277.625 355.846 278.424C354.527 279.223 353.511 280.439 352.957 281.879L350.847 287.464L345.489 288.157Z" fill="#7CE4CC"/>
<path d="M368.758 307.883L367.425 307.419L360.585 309.791L353.627 310.692L341.574 308.286C341.574 308.286 334.947 298.025 335.427 309.436C335.805 317.319 339.147 321.843 341.182 323.917C345.229 324.101 349.284 324.026 353.321 323.691C356.368 323.52 359.387 323.011 362.322 322.172C364.355 319.289 367.633 313.978 368.758 307.883Z" fill="#AAFAE7"/>
<path opacity="0.74" d="M335.232 308.464C333.683 304.132 330.88 295.003 332.046 288.124C333.212 281.244 334.748 275.591 337.924 275.534C335.993 275.197 334.004 275.552 332.306 276.536C330.609 277.519 329.312 279.07 328.641 280.915C326.178 287.608 322.329 298.377 319.675 307.432C315.886 320.318 330.767 324.341 347.424 324.027C343.81 323.432 339.218 319.635 335.232 308.464Z" fill="url(#paint5_linear_26173_41271)"/>
<path d="M347.425 324.03L346.085 324.062L344.814 324.084L342.821 323.988L342.194 324.069L341.193 323.986C339.166 321.982 335.824 317.457 335.446 309.573C335.417 309.432 335.422 309.285 335.461 309.146C339.375 319.76 343.889 323.496 347.425 324.03Z" fill="#AAFAE7"/>
<path d="M367.115 306.682L367.106 308.271C359.79 313.062 358.602 314.386 339.758 308.467L339.567 306.987L340.383 307.216C356.34 311.252 359.388 311.61 367.115 306.682Z" fill="#2C4661"/>
<path d="M338.272 312.866C340.736 312.178 342.111 309.379 341.342 306.614C340.573 303.848 337.953 302.163 335.489 302.851C333.026 303.538 331.651 306.337 332.42 309.102C333.188 311.868 335.809 313.553 338.272 312.866Z" fill="#738EFF"/>
<path d="M370.633 307.129C371.134 304.736 370.434 302.565 369.07 302.278C367.705 301.992 366.192 303.699 365.691 306.092C365.19 308.484 365.89 310.656 367.254 310.942C368.619 311.229 370.132 309.522 370.633 307.129Z" fill="#738EFF"/>
<path opacity="0.41" d="M351.941 302.551C351.591 302.03 352.181 301.67 352.65 301.468C352.84 301.396 353.047 301.384 353.244 301.435C353.441 301.485 353.617 301.596 353.748 301.751L355.532 304.069C356.048 304.782 355.274 304.811 354.506 304.344C353.739 303.877 352.475 303.403 351.941 302.551Z" fill="#284E7A"/>
<path opacity="0.41" d="M359.932 303.642L360.476 302.368C360.571 302.15 360.599 301.908 360.557 301.673C360.514 301.439 360.402 301.223 360.236 301.053L359.991 300.801C359.968 300.775 359.939 300.755 359.907 300.742C359.874 300.73 359.839 300.726 359.805 300.73C359.771 300.735 359.738 300.748 359.709 300.768C359.681 300.788 359.658 300.815 359.643 300.846C359.31 301.754 359.052 302.688 358.871 303.638C358.787 304.64 359.414 304.559 359.932 303.642Z" fill="#284E7A"/>
<path d="M352.196 288.633L345.485 288.156L350.843 287.463L352.954 281.878C353.507 280.438 354.523 279.223 355.842 278.424C357.16 277.625 358.707 277.288 360.237 277.465V277.465L361.544 277.721C358.357 277.142 357.274 280.823 356.648 285.295C356.326 287.744 356.418 289.007 352.196 288.633Z" fill="#61C7C7"/>
<path d="M364.718 287.613C364.729 285.905 363.607 284.515 362.212 284.507C360.818 284.498 359.679 285.876 359.668 287.583C359.658 289.291 360.78 290.681 362.174 290.69C363.569 290.698 364.708 289.32 364.718 287.613Z" fill="#21354A"/>
<path d="M341.1 286.59C341.268 284.891 340.279 283.403 338.891 283.266C337.503 283.128 336.242 284.395 336.075 286.094C335.907 287.793 336.895 289.282 338.283 289.419C339.671 289.556 340.932 288.29 341.1 286.59Z" fill="#21354A"/>
<path d="M330.474 350.589C333.381 350.637 337.087 350.299 340.394 350.155C340.332 348.832 340.447 347.507 340.735 346.215C341.243 344.044 342.018 341.945 343.044 339.967C340.397 339.743 337.185 339.521 334.556 339.436C334.01 326.404 327.16 319.358 323.379 322.964C321.587 324.668 320.497 326.982 320.323 329.45C320.227 331.446 320.431 334.678 320.312 335.401C319.981 337.781 318.304 338.494 320.358 342.903C321.419 345.103 319.43 350.531 330.474 350.589Z" fill="white"/>
<path d="M339.538 276.034C342.234 277.739 342.912 281.901 343.127 283.573C343.343 285.245 343.728 288.241 343.827 289.007C343.926 289.774 344.171 290.025 346.725 291.182C349.28 292.339 348.214 291.202 347.051 289.865L345.486 288.155L344.786 282.721C344.59 281.238 343.999 279.835 343.076 278.659C342.152 277.483 340.931 276.576 339.538 276.034V276.034Z" fill="#D4FFDC"/>
<path d="M363.262 285.574C364.229 285.944 364.447 288.183 363.486 287.316C362.526 286.448 361.929 285.109 363.262 285.574Z" fill="#335A70"/>
<path d="M339.893 284.274C340.791 284.654 341.018 286.962 340.118 286.016C339.218 285.07 338.49 283.818 339.893 284.274Z" fill="#335A70"/>
<path d="M339.696 309.962C340.621 309.473 340.696 307.797 339.863 306.219C339.031 304.641 337.606 303.759 336.681 304.249C335.756 304.738 335.681 306.414 336.513 307.992C337.346 309.57 338.771 310.452 339.696 309.962Z" fill="#B2A6FF"/>
<path d="M370.573 305.228C370.574 304.103 370.135 303.19 369.593 303.19C369.051 303.189 368.61 304.101 368.609 305.227C368.608 306.352 369.047 307.264 369.589 307.265C370.131 307.265 370.572 306.353 370.573 305.228Z" fill="#B2A6FF"/>
<path d="M363.499 279.735C365.001 280.957 365.427 283.169 363.741 281.616C362.055 280.064 361.683 278.27 363.499 279.735Z" fill="#D4FFDC"/>
</g>
<rect width="144.696" height="136.093" transform="matrix(-1 0 0 1 420.402 368.137)" fill="#EF6270"/>
<mask id="mask2_26173_41271" style="mask-type:alpha" maskUnits="userSpaceOnUse" x="305" y="393" width="87" height="87">
<ellipse cx="348.054" cy="436.674" rx="43.0179" ry="43.0799" fill="#C4C4C4"/>
</mask>
<g mask="url(#mask2_26173_41271)">
<ellipse cx="348.054" cy="436.674" rx="43.0179" ry="43.0799" fill="#CC4355"/>
<path d="M396.138 494.481C395.321 492.461 393.971 490.703 392.232 489.394C390.493 488.084 388.431 487.273 386.267 487.047L381.748 486.569C375.27 463.185 378.548 457.874 359.408 452.632L343.915 452.087C343.915 452.087 328.173 452.354 322.381 460.116L330.473 486.69C330.473 486.69 327.155 504.33 328.661 513.272L348.841 510.66L357.583 538.992C390.556 534.087 405.918 518.783 405.918 518.783L396.138 494.481Z" fill="#CFDEFF"/>
<path d="M326.073 454.178C348.039 474.776 367.89 488.85 364.553 456.35L326.073 454.178Z" fill="#B8C5FF"/>
<path d="M336.855 456.606C355.982 465.603 360.946 468.997 359.695 458.182L336.855 456.606Z" fill="#5697B0"/>
<path d="M378.135 471.736C375.808 461.909 374.06 457.673 364.264 454.125C366.899 460.3 368.044 473.042 368.044 473.042L378.135 471.736Z" fill="white"/>
<path d="M345.489 424.251L344.789 418.817C344.554 417.045 343.762 415.393 342.527 414.102C341.292 412.81 339.679 411.945 337.921 411.632V411.632C335.99 411.295 334.001 411.65 332.304 412.633C330.607 413.617 329.309 415.167 328.639 417.012C326.176 423.705 322.328 434.473 319.674 443.527C315.448 457.956 334.554 461.29 353.328 459.852C372.102 458.413 373.872 450.181 371.276 438.265C369.611 430.831 367.502 423.243 366.187 418.526C365.785 417.21 365.008 416.039 363.953 415.157C362.897 414.275 361.607 413.72 360.242 413.559V413.559C358.711 413.381 357.164 413.719 355.846 414.518C354.527 415.317 353.511 416.532 352.957 417.972L350.847 423.557L345.489 424.251Z" fill="#7CE4CC"/>
<path d="M368.758 443.977L367.425 443.512L360.585 445.884L353.627 446.785L341.574 444.379C341.574 444.379 334.947 434.118 335.427 445.529C335.805 453.412 339.147 457.937 341.182 460.01C345.229 460.195 349.284 460.119 353.321 459.785C356.368 459.614 359.387 459.104 362.322 458.265C364.355 455.382 367.633 450.071 368.758 443.977Z" fill="#AAFAE7"/>
<path opacity="0.74" d="M335.232 444.558C333.683 440.225 330.88 431.097 332.046 424.217C333.212 417.337 334.748 411.685 337.924 411.628C335.993 411.291 334.004 411.645 332.306 412.629C330.609 413.613 329.312 415.163 328.641 417.008C326.178 423.702 322.329 434.47 319.675 443.526C315.886 456.411 330.767 460.435 347.424 460.12C343.81 459.526 339.218 455.729 335.232 444.558Z" fill="url(#paint6_linear_26173_41271)"/>
<path d="M347.425 460.123L346.085 460.155L344.814 460.178L342.821 460.082L342.194 460.163L341.193 460.08C339.166 458.076 335.824 453.55 335.446 445.666C335.417 445.525 335.422 445.378 335.461 445.239C339.375 455.853 343.889 459.589 347.425 460.123Z" fill="#AAFAE7"/>
<path d="M367.115 442.775L367.106 444.364C359.79 449.155 358.602 450.479 339.758 444.56L339.567 443.081L340.383 443.309C356.34 447.345 359.388 447.703 367.115 442.775Z" fill="#2C4661"/>
<path d="M338.272 448.959C340.736 448.272 342.111 445.473 341.342 442.707C340.573 439.942 337.953 438.257 335.489 438.944C333.026 439.631 331.651 442.43 332.42 445.196C333.188 447.961 335.809 449.646 338.272 448.959Z" fill="#738EFF"/>
<path d="M370.633 443.222C371.134 440.83 370.434 438.658 369.07 438.372C367.705 438.085 366.192 439.792 365.691 442.185C365.19 444.578 365.89 446.749 367.254 447.036C368.619 447.322 370.132 445.615 370.633 443.222Z" fill="#738EFF"/>
<path opacity="0.41" d="M351.941 438.644C351.591 438.123 352.181 437.763 352.65 437.561C352.84 437.489 353.047 437.477 353.244 437.528C353.441 437.579 353.617 437.689 353.748 437.844L355.532 440.163C356.048 440.875 355.274 440.904 354.506 440.437C353.739 439.97 352.475 439.496 351.941 438.644Z" fill="#284E7A"/>
<path opacity="0.41" d="M359.932 439.735L360.476 438.461C360.571 438.243 360.599 438.001 360.557 437.767C360.514 437.532 360.402 437.316 360.236 437.146L359.991 436.895C359.968 436.868 359.939 436.848 359.907 436.836C359.874 436.823 359.839 436.819 359.805 436.824C359.771 436.828 359.738 436.841 359.709 436.861C359.681 436.882 359.658 436.908 359.643 436.94C359.31 437.848 359.052 438.781 358.871 439.731C358.787 440.734 359.414 440.652 359.932 439.735Z" fill="#284E7A"/>
<path d="M352.196 424.726L345.485 424.249L350.843 423.556L352.954 417.971C353.507 416.531 354.523 415.316 355.842 414.517C357.16 413.718 358.707 413.381 360.237 413.558V413.558L361.544 413.814C358.357 413.235 357.274 416.916 356.648 421.388C356.326 423.838 356.418 425.1 352.196 424.726Z" fill="#61C7C7"/>
<path d="M364.718 423.706C364.729 421.999 363.607 420.608 362.212 420.6C360.818 420.592 359.679 421.969 359.668 423.677C359.658 425.384 360.78 426.775 362.174 426.783C363.569 426.791 364.708 425.413 364.718 423.706Z" fill="#21354A"/>
<path d="M341.1 422.684C341.268 420.985 340.279 419.496 338.891 419.359C337.503 419.222 336.242 420.488 336.075 422.187C335.907 423.886 336.895 425.375 338.283 425.512C339.671 425.649 340.932 424.383 341.1 422.684Z" fill="#21354A"/>
<path d="M330.474 486.682C333.381 486.731 337.087 486.393 340.394 486.248C340.332 484.925 340.447 483.6 340.735 482.308C341.243 480.138 342.018 478.039 343.044 476.06C340.397 475.836 337.185 475.614 334.556 475.53C334.01 462.497 327.16 455.451 323.379 459.057C321.587 460.762 320.497 463.076 320.323 465.544C320.227 467.539 320.431 470.771 320.312 471.495C319.981 473.875 318.304 474.588 320.358 478.996C321.419 481.196 319.43 486.624 330.474 486.682Z" fill="white"/>
<path d="M339.538 412.127C342.234 413.832 342.912 417.994 343.127 419.666C343.343 421.338 343.728 424.334 343.827 425.101C343.926 425.867 344.171 426.119 346.725 427.275C349.28 428.432 348.214 427.295 347.051 425.958L345.486 424.248L344.786 418.814C344.59 417.331 343.999 415.928 343.076 414.752C342.152 413.576 340.931 412.669 339.538 412.127V412.127Z" fill="#D4FFDC"/>
<path d="M363.262 421.667C364.229 422.038 364.447 424.276 363.486 423.409C362.526 422.542 361.929 421.202 363.262 421.667Z" fill="#335A70"/>
<path d="M339.893 420.368C340.791 420.747 341.018 423.055 340.118 422.109C339.218 421.163 338.49 419.912 339.893 420.368Z" fill="#335A70"/>
<path d="M339.696 446.056C340.621 445.566 340.696 443.89 339.863 442.312C339.031 440.734 337.606 439.852 336.681 440.342C335.756 440.832 335.681 442.508 336.513 444.085C337.346 445.663 338.771 446.545 339.696 446.056Z" fill="#B2A6FF"/>
<path d="M370.573 441.321C370.574 440.196 370.135 439.283 369.593 439.283C369.051 439.283 368.61 440.195 368.609 441.32C368.608 442.445 369.047 443.358 369.589 443.358C370.131 443.358 370.572 442.446 370.573 441.321Z" fill="#B2A6FF"/>
<path d="M363.499 415.828C365.001 417.051 365.427 419.262 363.741 417.709C362.055 416.157 361.683 414.364 363.499 415.828Z" fill="#D4FFDC"/>
</g>
<rect x="131.01" y="232.044" width="144.696" height="136.093" fill="#628BF7"/>
<mask id="mask3_26173_41271" style="mask-type:alpha" maskUnits="userSpaceOnUse" x="160" y="257" width="87" height="87">
<ellipse cx="203.358" cy="300.58" rx="43.0179" ry="43.0799" fill="#C4C4C4"/>
</mask>
<g mask="url(#mask3_26173_41271)">
<ellipse cx="203.358" cy="300.58" rx="43.0179" ry="43.0799" fill="#628BF7"/>
<path d="M193.883 227.052L225.781 286.948C226.521 288.292 226.805 289.84 226.592 291.36C226.379 292.88 225.68 294.289 224.6 295.378L224.157 295.822C218.888 301.34 212.289 305.409 204.996 307.637C197.703 309.864 189.96 310.175 182.512 308.54V308.54C181.43 308.305 180.461 307.708 179.763 306.848C179.065 305.988 178.681 304.916 178.672 303.808L177.195 231.489C177.048 204.129 178.377 198.065 193.883 227.052Z" fill="#33BEB5"/>
<path d="M224.157 295.821C225.315 294.598 226.066 293.044 226.304 291.375C226.542 289.706 226.256 288.004 225.486 286.504L193.883 227.052C186.351 213.002 182.216 207.087 179.854 208.122C185.908 250.123 198.313 304.843 198.313 304.843L206.879 306.913C213.43 304.631 219.351 300.831 224.157 295.821V295.821Z" fill="#33A2BE"/>
<path d="M216.478 269.497C214.558 265.948 213.672 264.765 212.786 266.539C199.643 245.539 193.293 249.68 193.293 270.089C193.293 270.089 184.137 265.208 185.17 283.251C183.866 282.898 182.482 282.982 181.229 283.489C179.976 283.996 178.923 284.899 178.229 286.061L178.673 303.808C178.682 304.755 178.966 305.678 179.491 306.466C180.015 307.254 180.757 307.872 181.626 308.245C189.444 309.49 197.443 308.91 204.999 306.55C212.556 304.19 219.466 300.113 225.191 294.639C226.003 293.542 226.489 292.239 226.593 290.879C226.698 289.518 226.416 288.156 225.782 286.948L216.478 269.497Z" fill="#F7E5BC"/>
<path d="M225.782 286.948L216.478 269.497C214.558 265.948 213.672 264.765 212.786 266.539C199.643 245.539 193.293 249.68 193.293 270.089C192.515 269.694 191.654 269.491 190.782 269.497V269.497C193.293 270.089 193.44 272.603 194.917 278.075C196.394 283.547 197.428 288.427 197.428 288.427L220.761 298.336C222.338 297.229 223.82 295.992 225.191 294.639C226.003 293.542 226.489 292.239 226.593 290.879C226.698 289.518 226.416 288.156 225.782 286.948V286.948Z" fill="#F7D197"/>
<path d="M224.748 287.687C213.524 275.56 203.482 271.272 180.74 304.547C180.518 304.904 180.383 305.309 180.348 305.728C180.312 306.147 180.376 306.569 180.534 306.959C180.693 307.348 180.941 307.695 181.259 307.97C181.578 308.245 181.956 308.44 182.364 308.54V308.54C189.835 310.159 197.596 309.84 204.909 307.614C212.223 305.388 218.848 301.329 224.157 295.821L224.6 295.378L225.634 294.047C226.197 293.035 226.416 291.866 226.256 290.718C226.096 289.571 225.566 288.506 224.748 287.687Z" fill="#242236"/>
<path d="M222.828 298.04L219.875 282.955C211.605 276.152 202.892 276.004 188.271 294.342L194.326 308.688C204.6 307.725 214.435 304.051 222.828 298.04V298.04Z" fill="#9E4B34"/>
<path d="M223.567 297.448L212.786 296.561L211.309 300.702L208.651 294.934C206.141 289.018 205.993 289.166 203.778 294.194C201.563 299.223 191.668 297.448 191.668 297.448L189.601 292.863C202.449 277.335 210.571 276.448 218.102 281.624L223.567 297.448Z" fill="#7A2F28"/>
<path d="M174.685 318.005L176.605 312.977C177.021 311.985 177.666 311.105 178.488 310.411C179.309 309.717 180.284 309.228 181.331 308.984L188.862 307.505L218.693 306.914L234.938 315.195C235.598 315.519 236.171 315.997 236.608 316.589C237.045 317.181 237.333 317.87 237.448 318.597L238.039 322.442L245.866 327.618C246.3 327.899 246.643 328.3 246.852 328.773C247.062 329.246 247.13 329.77 247.047 330.28C244.98 348.323 226.52 375.831 200.824 363.556C181.626 354.387 163.905 341.076 155.339 334.273L152.09 338.71C151.204 334.421 151.943 332.795 154.748 330.576C155.647 329.965 156.488 329.272 157.259 328.506C157.517 327.793 157.667 327.045 157.702 326.287C158.44 322.886 157.702 321.998 161.689 321.111L174.685 318.005Z" fill="#33BEB5"/>
<path d="M189.01 309.28C182.069 310.463 178.229 310.315 189.01 316.674C199.79 323.034 189.01 309.28 189.01 309.28Z" fill="#1E6470"/>
<path d="M208.06 287.835L209.241 293.159C209.389 293.307 209.536 293.603 209.832 293.603L212.047 293.899L210.127 289.462V289.166L210.57 286.061L208.503 287.244L208.06 287.835Z" fill="#66251F"/>
<path d="M197.428 293.159L201.415 293.751C199.938 295.969 198.166 295.673 197.428 293.159Z" fill="#5E221D"/>
<path d="M212.047 291.68L216.034 290.497C215.591 293.159 213.819 293.603 212.047 291.68Z" fill="#5E221D"/>
<path d="M200.086 293.899C200.738 293.899 201.267 292.972 201.267 291.829C201.267 290.685 200.738 289.758 200.086 289.758C199.433 289.758 198.904 290.685 198.904 291.829C198.904 292.972 199.433 293.899 200.086 293.899Z" fill="black"/>
<path d="M214.263 291.237C214.916 291.237 215.445 290.31 215.445 289.167C215.445 288.023 214.916 287.096 214.263 287.096C213.611 287.096 213.082 288.023 213.082 289.167C213.082 290.31 213.611 291.237 214.263 291.237Z" fill="black"/>
<path d="M218.102 281.624L221.351 284.138C222.532 287.392 222.976 291.976 224.157 295.822C225.338 299.667 226.963 305.434 226.224 308.688C225.486 311.942 226.077 312.237 228.144 316.378C230.212 320.519 234.051 324.956 232.722 329.984C234.937 333.386 234.199 335.456 233.608 338.562C233.018 341.668 230.507 349.95 224.895 349.802C223.001 352.449 220.35 354.459 217.292 355.568C214.234 356.677 210.912 356.832 207.765 356.013C198.756 353.795 189.748 347.583 190.782 339.449C187.828 337.083 188.419 330.872 188.862 327.47C189.179 324.447 188.721 321.394 187.533 318.597C186.499 315.639 186.499 312.681 187.385 306.47C186.35 303.899 185.607 301.22 185.17 298.484L189.6 292.716L191.668 297.448C192.659 299.422 193.546 301.446 194.326 303.512C195.069 303.185 195.878 303.034 196.689 303.068C197.238 301.93 198.069 300.952 199.103 300.227C200.137 299.502 201.34 299.054 202.596 298.927L211.309 300.702L212.786 296.561C216.921 295.969 218.988 295.969 220.465 297.005C221.247 294.666 221.35 292.153 220.76 289.758C220.022 286.948 218.102 281.624 218.102 281.624Z" fill="white"/>
<path d="M212.048 304.103L208.651 303.364C207.027 302.92 207.175 302.772 202.597 298.927L211.31 300.702L212.786 296.561C216.921 295.969 218.989 295.969 220.466 297.005C221.248 294.666 221.35 292.153 220.761 289.758C220.023 286.948 218.103 281.624 218.103 281.624L221.204 284.138C222.533 287.392 222.976 291.976 224.158 295.822C225.339 299.667 226.964 305.434 226.225 308.688C225.487 311.942 226.077 312.237 228.145 316.378C230.212 320.519 234.052 324.956 232.723 329.984C234.938 333.386 234.2 335.456 233.609 338.562C233.018 341.668 230.508 349.95 224.896 349.802C223.001 352.449 220.351 354.459 217.293 355.568C214.235 356.677 210.913 356.832 207.765 356.013C198.757 353.795 189.749 347.583 190.782 339.449C193.588 347.14 199.495 345.661 199.495 345.661C203.084 344.884 206.753 344.536 210.424 344.626C212.491 340.928 215.002 337.379 217.069 335.9C221.499 327.47 218.103 318.449 216.035 313.421L212.048 304.103Z" fill="#D6DFFF"/>
<path d="M212.048 304.103C214.263 304.547 214.116 302.625 213.968 300.702C213.887 299.251 213.483 297.836 212.786 296.561L211.31 300.702L202.597 298.927C207.175 302.772 207.027 302.92 208.651 303.364L212.048 304.103Z" fill="#CAD5FC"/>
<path d="M195.359 290.645L203.482 288.279C202.796 287.89 202.039 287.643 201.256 287.551C200.473 287.46 199.679 287.527 198.922 287.747C198.165 287.968 197.46 288.338 196.848 288.835C196.236 289.333 195.73 289.948 195.359 290.645Z" fill="#CFDEFF"/>
<path d="M209.39 287.392L217.807 285.765C216.465 284.899 214.841 284.584 213.273 284.887C211.705 285.19 210.314 286.087 209.39 287.392V287.392Z" fill="#CFDEFF"/>
<path d="M215.592 307.209C215.562 307.763 215.338 308.288 214.96 308.694C214.583 309.099 214.074 309.359 213.525 309.427C204.664 310.611 200.825 308.54 199.348 307.357C199.17 307.189 199.036 306.98 198.959 306.747C198.881 306.515 198.863 306.267 198.905 306.026V305.73C203.63 307.357 210.719 306.617 212.343 306.322C213.968 306.026 213.377 305.582 213.229 304.843C213.54 304.843 213.847 304.904 214.134 305.023C214.42 305.142 214.681 305.316 214.9 305.536C215.12 305.756 215.294 306.016 215.412 306.304C215.531 306.591 215.592 306.898 215.592 307.209Z" fill="#DE5D70"/>
<path d="M204.738 268.303C206.209 267.597 206.374 264.876 205.105 262.224C203.836 259.572 201.615 257.995 200.144 258.7C198.673 259.406 198.509 262.128 199.778 264.78C201.046 267.432 203.267 269.009 204.738 268.303Z" fill="#FF9CCD"/>
<path d="M205.107 262.102C203.926 259.44 201.563 257.813 200.086 258.553C199.91 258.644 199.754 258.769 199.627 258.921C199.5 259.074 199.405 259.25 199.348 259.44C201.858 259.292 200.529 262.25 205.107 262.102Z" fill="#FFEBF5"/>
<path d="M198.904 261.215C198.937 262.433 199.187 263.635 199.643 264.764L200.233 265.652C200.676 265.504 201.71 265.208 202.153 265.947C202.596 266.687 203.187 268.018 204.811 268.314C205.211 268 205.527 267.594 205.733 267.13C205.939 266.666 206.028 266.158 205.993 265.652H205.55C202.449 265.652 200.676 262.398 198.904 261.215Z" fill="#FF70B7"/>
<path d="M189.6 277.927C190.415 277.927 191.077 277.066 191.077 276.004C191.077 274.942 190.415 274.082 189.6 274.082C188.784 274.082 188.123 274.942 188.123 276.004C188.123 277.066 188.784 277.927 189.6 277.927Z" fill="#F7D197"/>
<path d="M181.774 290.645C182.589 290.645 183.25 289.785 183.25 288.723C183.25 287.661 182.589 286.8 181.774 286.8C180.958 286.8 180.297 287.661 180.297 288.723C180.297 289.785 180.958 290.645 181.774 290.645Z" fill="#F7D197"/>
<path d="M185.17 298.484C185.607 300.789 186.199 303.061 186.942 305.287V305.287C186.942 303.512 187.68 301.441 188.862 300.998C190.043 300.554 190.191 297.596 191.668 297.448L189.6 292.716L185.17 298.484Z" fill="#A8C3FF"/>
<path d="M216.625 314.899C220.317 318.597 221.646 321.259 221.941 323.329C220.44 322.78 219.042 321.98 217.806 320.963L216.625 314.899Z" fill="white"/>
<path d="M202.448 285.617C205.698 284.638 209.002 283.848 212.343 283.251C207.026 282.66 204.073 283.547 202.448 285.617Z" fill="#66251F"/>
<path d="M205.845 291.976C205.876 292.659 206.049 293.328 206.355 293.94C206.66 294.551 207.09 295.091 207.617 295.526C208.356 296.117 207.765 295.082 206.879 293.16C205.993 291.237 205.55 290.793 205.845 291.976Z" fill="#C27059"/>
</g>
<rect width="144.696" height="136.093" transform="matrix(-1 0 0 1 275.706 368.137)" fill="#FFB869"/>
<mask id="mask4_26173_41271" style="mask-type:alpha" maskUnits="userSpaceOnUse" x="160" y="393" width="87" height="87">
<ellipse cx="203.358" cy="436.674" rx="43.0179" ry="43.0799" fill="#C4C4C4"/>
</mask>
<g mask="url(#mask4_26173_41271)">
<ellipse cx="203.358" cy="436.674" rx="43.0179" ry="43.0799" fill="#FFB869"/>
<path d="M181.281 450.742C186.302 468.226 206.499 480.339 222.702 468.912C238.905 457.484 222.816 434.059 222.816 434.059C222.816 434.059 231.602 411.89 209.58 406.634C187.557 401.377 182.08 410.976 181.281 450.742Z" fill="#4D7AE8"/>
<path d="M213.916 437.944C211.458 437.944 209.466 435.284 209.466 432.002C209.466 428.721 211.458 426.06 213.916 426.06C216.374 426.06 218.366 428.721 218.366 432.002C218.366 435.284 216.374 437.944 213.916 437.944Z" fill="#DBE7FF"/>
<path d="M215.824 436.514C215.196 436.472 214.753 435.467 214.834 434.271C214.915 433.074 215.491 432.139 216.12 432.182C216.748 432.225 217.192 433.23 217.11 434.426C217.029 435.622 216.453 436.557 215.824 436.514Z" fill="#201E2F"/>
<path d="M219.051 420.918C218.756 420.03 218.19 419.259 217.432 418.712C216.673 418.164 215.764 417.87 214.829 417.87C213.895 417.87 212.984 418.164 212.227 418.712C211.469 419.259 210.903 420.03 210.607 420.918H219.051Z" fill="#201E2F"/>
<path d="M218.595 446.172C214.259 447.315 209.58 446.286 205.701 442.058C205.194 441.479 204.482 441.12 203.716 441.056C202.949 440.992 202.188 441.228 201.593 441.715C200.944 442.156 200.495 442.836 200.346 443.607C200.196 444.378 200.357 445.177 200.794 445.829C206.727 455.542 215.97 457.028 221.675 451.543C222.067 451.19 222.358 450.74 222.519 450.238C222.678 449.736 222.702 449.2 222.588 448.686C222.51 448.249 222.34 447.833 222.092 447.464C221.843 447.096 221.52 446.784 221.145 446.547C220.769 446.311 220.348 446.155 219.909 446.091C219.47 446.026 219.022 446.054 218.595 446.172Z" fill="#590942"/>
<path d="M215.285 446.629C216.404 446.638 217.519 446.484 218.594 446.172H219.621V449.029C219.621 449.029 217.909 450.286 211.519 449.6V448L200.337 444.229C200.341 443.758 200.457 443.295 200.675 442.878C200.894 442.461 201.208 442.101 201.592 441.83C201.592 441.799 201.604 441.77 201.626 441.749C201.647 441.727 201.676 441.715 201.706 441.715C202.175 441.394 202.736 441.233 203.304 441.258C203.418 441.144 203.646 441.258 203.76 441.258H204.787C204.901 441.373 205.015 441.372 205.015 441.487C205.015 441.601 205.244 441.487 205.244 441.601L205.7 441.944C206.375 442.719 207.142 443.409 207.982 444.001L209.58 445.029C210.324 445.488 211.131 445.834 211.976 446.058C213.042 446.425 214.159 446.618 215.285 446.629Z" fill="#DBE7FF"/>
<path d="M201.592 441.715C201.592 441.685 201.604 441.656 201.626 441.635C201.647 441.613 201.676 441.601 201.706 441.601C202.175 441.28 202.736 441.119 203.304 441.144C203.418 441.03 203.646 441.144 203.76 441.144H204.787C204.901 441.258 205.015 441.258 205.015 441.373C205.015 441.487 205.244 441.373 205.244 441.487L205.7 441.83C206.059 442.304 206.481 442.727 206.955 443.087L203.76 445.029L200.337 443.887C200.375 443.455 200.508 443.037 200.724 442.662C200.941 442.287 201.237 441.964 201.592 441.715Z" fill="#B5CDFF"/>
<path d="M185.96 414.633C190.068 405.491 197.257 403.663 209.58 406.634C212.062 407.189 214.447 408.113 216.655 409.377C217.339 413.033 211.748 414.176 201.364 410.862C204.788 417.033 197.713 428.003 185.96 414.633Z" fill="#201E2F"/>
<path d="M200.338 406.291L200.908 398.749C200.959 398.061 200.862 397.369 200.622 396.722C200.382 396.075 200.005 395.488 199.518 394.999C199.03 394.511 198.444 394.134 197.797 393.894C197.151 393.654 196.461 393.556 195.773 393.607C194.999 393.651 194.247 393.882 193.581 394.282C192.916 394.681 192.357 395.236 191.953 395.899C191.549 396.562 191.312 397.313 191.262 398.088C191.212 398.863 191.35 399.639 191.666 400.349L195.089 408.119L200.338 406.291Z" fill="#201E2F"/>
<path d="M170.67 446.629L174.093 447.886L181.282 443.201V449.029L187.215 453.714C188.462 454.74 189.488 456.008 190.233 457.441C190.978 458.875 191.427 460.444 191.551 462.055L191.78 466.741C200.452 473.94 212.319 476.225 222.703 468.912C224.391 467.782 225.893 466.394 227.153 464.798L230.69 466.055C230.69 466.055 223.501 496.337 211.52 501.822C199.539 507.307 191.209 501.822 191.209 501.822C178.657 459.084 182.309 451.085 151.272 463.427L149.788 454.742L170.67 446.629Z" fill="#EF6767"/>
<path d="M195.545 433.03L172.951 411.89L170.897 414.518L188.356 447.086L195.545 433.03Z" fill="#4D7AE8"/>
<path d="M187.329 428.231L178.429 421.946L185.275 434.288L184.02 429.488L187.329 428.231Z" fill="#3366E0"/>
</g>
</g>
<path fill-rule="evenodd" clip-rule="evenodd" d="M164.986 59.1646C165.077 58.6198 164.709 58.1046 164.164 58.0138C163.62 57.923 163.104 58.291 163.014 58.8358L162.153 64.0001H158C157.448 64.0001 157 64.4478 157 65.0001C157 65.5524 157.448 66.0001 158 66.0001H161.82L161.153 70.0001H157C156.448 70.0001 156 70.4478 156 71.0001C156 71.5524 156.448 72.0001 157 72.0001H160.82L160.014 76.8358C159.923 77.3805 160.291 77.8958 160.836 77.9865C161.38 78.0773 161.896 77.7093 161.986 77.1646L162.847 72.0001H167.82L167.014 76.8358C166.923 77.3805 167.291 77.8958 167.836 77.9865C168.38 78.0773 168.896 77.7093 168.986 77.1646L169.847 72.0001H174C174.552 72.0001 175 71.5524 175 71.0001C175 70.4478 174.552 70.0001 174 70.0001H170.18L170.847 66.0001H175C175.552 66.0001 176 65.5524 176 65.0001C176 64.4478 175.552 64.0001 175 64.0001H171.18L171.986 59.1646C172.077 58.6198 171.709 58.1046 171.164 58.0138C170.62 57.923 170.104 58.291 170.014 58.8358L169.153 64.0001H164.18L164.986 59.1646ZM168.153 70.0001L168.82 66.0001H163.847L163.18 70.0001H168.153Z" fill="#B5BAC1"/>
</g>
<path d="M292.207 20.917H258.706C257.107 20.917 255.811 22.1734 255.811 23.7232C255.811 25.273 257.107 26.5293 258.706 26.5293H292.207C293.806 26.5293 295.102 25.273 295.102 23.7232C295.102 22.1734 293.806 20.917 292.207 20.917Z" fill="black"/>
<path d="M305.444 28.5793C308.185 28.5793 310.407 26.354 310.407 23.609C310.407 20.864 308.185 18.6387 305.444 18.6387C302.703 18.6387 300.48 20.864 300.48 23.609C300.48 26.354 302.703 28.5793 305.444 28.5793Z" fill="black"/>
<path d="M434.692 210.41H433.451V131.092H434.692C435.569 131.092 436.411 131.441 437.032 132.063C437.652 132.684 438.001 133.527 438.001 134.406V206.89C438.002 207.789 437.66 208.654 437.045 209.309C436.43 209.963 435.588 210.358 434.692 210.41Z" fill="#ACADBD"/>
</g>
<defs>
<linearGradient id="paint0_linear_26173_41271" x1="162.626" y1="160.21" x2="162.626" y2="638.232" gradientUnits="userSpaceOnUse">
<stop stop-color="#CCCFDE"/>
<stop offset="0.58" stop-color="#D2D4E3"/>
<stop offset="1" stop-color="#DADCEB"/>
</linearGradient>
<linearGradient id="paint1_linear_26173_41271" x1="208.475" y1="153.687" x2="208.475" y2="600.602" gradientUnits="userSpaceOnUse">
<stop stop-color="#B6B9CC"/>
<stop offset="0.55" stop-color="#BCBFD0"/>
<stop offset="1" stop-color="#C5C8D6"/>
</linearGradient>
<radialGradient id="paint2_radial_26173_41271" cx="0" cy="0" r="1" gradientUnits="userSpaceOnUse" gradientTransform="translate(87.7438 150.042) scale(93.9694 94.105)">
<stop offset="0.51" stop-color="#A6A7BD"/>
<stop offset="0.65" stop-color="#ACADC2"/>
<stop offset="0.85" stop-color="#BBBDCF"/>
<stop offset="1" stop-color="#CCCFDE"/>
</radialGradient>
<linearGradient id="paint3_linear_26173_41271" x1="358.531" y1="128.339" x2="339.091" y2="178.359" gradientUnits="userSpaceOnUse">
<stop stop-color="#FFC285"/>
<stop offset="1" stop-color="#DB8D6B"/>
</linearGradient>
<linearGradient id="paint4_linear_26173_41271" x1="294.113" y1="157.718" x2="401.321" y2="157.718" gradientUnits="userSpaceOnUse">
<stop stop-color="#D67569"/>
<stop offset="1" stop-color="#E39E7F"/>
</linearGradient>
<linearGradient id="paint5_linear_26173_41271" x1="317.884" y1="308.585" x2="332.008" y2="303.237" gradientUnits="userSpaceOnUse">
<stop stop-color="#61C7C7"/>
<stop offset="1" stop-color="#54B9C7"/>
</linearGradient>
<linearGradient id="paint6_linear_26173_41271" x1="317.884" y1="444.678" x2="332.008" y2="439.331" gradientUnits="userSpaceOnUse">
<stop stop-color="#61C7C7"/>
<stop offset="1" stop-color="#54B9C7"/>
</linearGradient>
<clipPath id="clip0_26173_41271">
<rect width="438" height="712" fill="white"/>
</clipPath>
<clipPath id="clip1_26173_41271">
<rect width="289.393" height="518.917" fill="white" transform="translate(131.01 16.6445)"/>
</clipPath>
<clipPath id="clip2_26173_41271">
<rect width="144.696" height="136.093" fill="white" transform="matrix(-1 0 0 1 420.402 95.9507)"/>
</clipPath>
<clipPath id="clip3_26173_41271">
<rect width="144.696" height="136.093" fill="white" transform="matrix(-1 0 0 1 275.706 95.9507)"/>
</clipPath>
</defs>
</svg>
