<svg width="24" height="25" viewBox="0 0 24 25" fill="none" xmlns="http://www.w3.org/2000/svg">
<path fill-rule="evenodd" clip-rule="evenodd" d="M7 12.6978C7 9.93633 9.23858 7.69775 12 7.69775C14.7614 7.69775 17 9.93633 17 12.6978C17 15.4592 14.7614 17.6978 12 17.6978C9.23858 17.6978 7 15.4592 7 12.6978ZM12 9.69775C10.3431 9.69775 9 11.0409 9 12.6978C9 14.3546 10.3431 15.6978 12 15.6978C13.6569 15.6978 15 14.3546 15 12.6978C15 11.0409 13.6569 9.69775 12 9.69775Z" fill="white"/>
<path d="M17.25 8.69775C17.9404 8.69775 18.5 8.13811 18.5 7.44775C18.5 6.7574 17.9404 6.19775 17.25 6.19775C16.5596 6.19775 16 6.7574 16 7.44775C16 8.13811 16.5596 8.69775 17.25 8.69775Z" fill="white"/>
<path fill-rule="evenodd" clip-rule="evenodd" d="M7.85848 2.76769C6.79447 2.81789 6.06786 2.98769 5.43265 3.23729C4.77524 3.49349 4.21804 3.8373 3.66363 4.3937C3.10923 4.9501 2.76782 5.5077 2.51342 6.1661C2.26722 6.80271 2.10042 7.52991 2.05342 8.59451C2.00642 9.65911 1.99602 10.0013 2.00122 12.7169C2.00642 15.4325 2.01842 15.7729 2.07002 16.8397C2.12082 17.9035 2.29002 18.6299 2.53962 19.2653C2.79622 19.9228 3.13963 20.4798 3.69623 21.0344C4.25284 21.589 4.81004 21.9296 5.47005 22.1844C6.10606 22.4302 6.83347 22.5978 7.89788 22.6444C8.96229 22.691 9.30489 22.7018 12.0197 22.6966C14.7345 22.6914 15.0763 22.6794 16.143 22.6288C17.6954 22.5551 19.2158 22.1289 20.3368 21.0026C21.4582 19.8759 21.8789 18.3555 21.9464 16.8019C21.993 15.7345 22.004 15.3937 21.9988 12.6785C21.9936 9.96332 21.9814 9.62292 21.9308 8.55651C21.8571 7.00241 21.4311 5.48433 20.305 4.3611C19.1798 3.23876 17.6566 2.8186 16.1038 2.75149C15.0393 2.70549 14.6967 2.69369 11.9809 2.69889C9.26509 2.70409 8.92509 2.71569 7.85848 2.76769ZM7.95587 4.76532L7.95273 4.76547C7.07742 4.80677 6.56983 4.93931 6.1641 5.09874L6.15888 5.10079C5.7435 5.26267 5.42601 5.4585 5.08039 5.80537C4.73463 6.15236 4.54006 6.47011 4.379 6.88695C4.221 7.29549 4.09019 7.80576 4.05147 8.68272C4.00653 9.7007 3.99603 10.0064 4.00121 12.7131C4.00639 15.4193 4.01834 15.7231 4.06768 16.7431L4.06774 16.7443C4.10961 17.621 4.24188 18.1287 4.40114 18.5341L4.40273 18.5381C4.5653 18.9546 4.76111 19.2721 5.10789 19.6176C5.45429 19.9627 5.77118 20.1567 6.19035 20.3186C6.59953 20.4767 7.1103 20.608 7.98535 20.6463C9.00391 20.6909 9.31064 20.7017 12.0159 20.6966C14.7212 20.6914 15.0273 20.6794 16.0482 20.631C17.329 20.5702 18.2833 20.2306 18.9193 19.5916C19.5568 18.9511 19.8927 17.9957 19.9483 16.7151C19.9929 15.6932 20.004 15.3876 19.9988 12.6824C19.9936 9.977 19.9815 9.6722 19.9331 8.6513C19.8723 7.36967 19.5332 6.41605 18.8926 5.7771C18.2549 5.14101 17.2988 4.805 16.0174 4.74963C14.9973 4.70554 14.6894 4.69371 11.9847 4.69889C9.27761 4.70407 8.9749 4.71564 7.95587 4.76532Z" fill="white"/>
</svg>
