<svg width="24" height="25" viewBox="0 0 24 25" fill="none" xmlns="http://www.w3.org/2000/svg">
<path d="M18.3113 6.90714C17.1994 6.16963 16.3969 4.9895 16.1466 3.6139C16.0924 3.31664 16.0629 3.01066 16.0629 2.69775H12.5144L12.5087 17.1669C12.449 18.7873 11.1384 20.0876 9.53153 20.0876C9.03205 20.0876 8.56177 19.9605 8.14795 19.7389C7.19844 19.2305 6.54869 18.2179 6.54869 17.0526C6.54869 15.3792 7.88692 14.0176 9.53153 14.0176C9.83849 14.0176 10.133 14.0691 10.4117 14.1581V10.4723C10.1235 10.4323 9.83051 10.4073 9.53153 10.4073C5.93009 10.4073 3 13.3885 3 17.0526C3 19.3008 4.10406 21.2904 5.78838 22.4935C6.84923 23.2512 8.13977 23.6978 9.53153 23.6978C13.133 23.6978 16.0631 20.7168 16.0631 17.0524V9.71538C17.4548 10.7317 19.16 11.3306 21 11.3306V7.7203C20.0088 7.7203 19.0858 7.42047 18.3115 6.90694L18.3113 6.90714Z" fill="white"/>
</svg>
