<svg width="24" height="25" viewBox="0 0 24 25" fill="none" xmlns="http://www.w3.org/2000/svg">
<path d="M23.4982 6.35195C23.2227 5.30727 22.4086 4.48469 21.3764 4.20501C19.5041 3.69775 12 3.69775 12 3.69775C12 3.69775 4.49455 3.69775 2.62364 4.20501C1.59136 4.48469 0.777273 5.30727 0.501818 6.35195C3.25116e-08 8.24525 0 12.1978 0 12.1978C0 12.1978 3.25116e-08 16.1489 0.501818 18.0436C0.777273 19.0882 1.59136 19.9108 2.62364 20.1905C4.49591 20.6978 12 20.6978 12 20.6978C12 20.6978 19.5055 20.6978 21.3764 20.1905C22.4086 19.9108 23.2227 19.0882 23.4982 18.0436C24 16.1503 24 12.1978 24 12.1978C24 12.1978 24 8.24662 23.4982 6.35195ZM9.54545 15.7856V8.60993L15.8182 12.1978L9.54545 15.7856Z" fill="white"/>
</svg>
